%TF.GenerationSoftware,KiCad,Pcbnew,7.0.1-0*%
%TF.CreationDate,2023-04-15T20:22:24-04:00*%
%TF.ProjectId,fidrildi3,66696472-696c-4646-9933-2e6b69636164,rev?*%
%TF.SameCoordinates,Original*%
%TF.FileFunction,Soldermask,Top*%
%TF.FilePolarity,Negative*%
%FSLAX46Y46*%
G04 Gerber Fmt 4.6, Leading zero omitted, Abs format (unit mm)*
G04 Created by KiCad (PCBNEW 7.0.1-0) date 2023-04-15 20:22:24*
%MOMM*%
%LPD*%
G01*
G04 APERTURE LIST*
G04 Aperture macros list*
%AMRoundRect*
0 Rectangle with rounded corners*
0 $1 Rounding radius*
0 $2 $3 $4 $5 $6 $7 $8 $9 X,Y pos of 4 corners*
0 Add a 4 corners polygon primitive as box body*
4,1,4,$2,$3,$4,$5,$6,$7,$8,$9,$2,$3,0*
0 Add four circle primitives for the rounded corners*
1,1,$1+$1,$2,$3*
1,1,$1+$1,$4,$5*
1,1,$1+$1,$6,$7*
1,1,$1+$1,$8,$9*
0 Add four rect primitives between the rounded corners*
20,1,$1+$1,$2,$3,$4,$5,0*
20,1,$1+$1,$4,$5,$6,$7,0*
20,1,$1+$1,$6,$7,$8,$9,0*
20,1,$1+$1,$8,$9,$2,$3,0*%
%AMHorizOval*
0 Thick line with rounded ends*
0 $1 width*
0 $2 $3 position (X,Y) of the first rounded end (center of the circle)*
0 $4 $5 position (X,Y) of the second rounded end (center of the circle)*
0 Add line between two ends*
20,1,$1,$2,$3,$4,$5,0*
0 Add two circle primitives to create the rounded ends*
1,1,$1,$2,$3*
1,1,$1,$4,$5*%
%AMRotRect*
0 Rectangle, with rotation*
0 The origin of the aperture is its center*
0 $1 length*
0 $2 width*
0 $3 Rotation angle, in degrees counterclockwise*
0 Add horizontal line*
21,1,$1,$2,0,0,$3*%
G04 Aperture macros list end*
%ADD10C,1.750000*%
%ADD11C,3.100000*%
%ADD12C,4.000000*%
%ADD13RotRect,1.700000X1.700000X340.000000*%
%ADD14HorizOval,1.700000X0.000000X0.000000X0.000000X0.000000X0*%
%ADD15RoundRect,0.250000X0.491093X-0.551206X0.730507X0.106579X-0.491093X0.551206X-0.730507X-0.106579X0*%
%ADD16RoundRect,0.150000X0.536005X-0.354716X0.638611X-0.072809X-0.536005X0.354716X-0.638611X0.072809X0*%
%ADD17C,1.600000*%
G04 APERTURE END LIST*
D10*
X102010000Y-103140000D03*
D11*
X99947859Y-105092454D03*
D12*
X97236361Y-101402538D03*
D11*
X93112079Y-105307445D03*
D10*
X92462722Y-99665076D03*
X159064639Y-186508494D03*
D11*
X161826732Y-185848690D03*
D12*
X162330000Y-190400000D03*
D11*
X167854186Y-189080392D03*
D10*
X165595361Y-194291506D03*
X261590000Y-140690000D03*
D11*
X261265321Y-143511185D03*
D12*
X256816361Y-142427462D03*
D11*
X256167004Y-148069832D03*
D10*
X252042722Y-144164924D03*
X128140000Y-142440000D03*
D11*
X126077859Y-144392454D03*
D12*
X123366361Y-140702538D03*
D11*
X119242079Y-144607445D03*
D10*
X118592722Y-138965076D03*
D13*
X186419796Y-157318768D03*
D14*
X188806615Y-158187499D03*
X185551065Y-159705587D03*
X187937884Y-160574318D03*
X184682334Y-162092407D03*
X187069153Y-162961138D03*
X183813603Y-164479226D03*
X186200422Y-165347957D03*
X182944871Y-166866045D03*
X185331691Y-167734776D03*
X182076140Y-169252864D03*
X184462959Y-170121595D03*
X181207409Y-171639684D03*
X183594228Y-172508415D03*
D10*
X288407278Y-103245076D03*
D11*
X288082599Y-106066261D03*
D12*
X283633639Y-104982538D03*
D11*
X282984282Y-110624908D03*
D10*
X278860000Y-106720000D03*
X340537278Y-135365076D03*
D11*
X340212599Y-138186261D03*
D12*
X335763639Y-137102538D03*
D11*
X335114282Y-142744908D03*
D10*
X330990000Y-138840000D03*
X167957278Y-144164924D03*
D11*
X165895137Y-146117378D03*
D12*
X163183639Y-142427462D03*
D11*
X159059357Y-146332369D03*
D10*
X158410000Y-140690000D03*
X95510000Y-120990000D03*
D11*
X93447859Y-122942454D03*
D12*
X90736361Y-119252538D03*
D11*
X86612079Y-123157445D03*
D10*
X85962722Y-117515076D03*
X141140000Y-106740000D03*
D11*
X139077859Y-108692454D03*
D12*
X136366361Y-105002538D03*
D11*
X132242079Y-108907445D03*
D10*
X131592722Y-103265076D03*
X144970000Y-151760000D03*
D11*
X142907859Y-153712454D03*
D12*
X140196361Y-150022538D03*
D11*
X136072079Y-153927445D03*
D10*
X135422722Y-148285076D03*
X109253639Y-138767462D03*
D11*
X107191498Y-140719916D03*
D12*
X104480000Y-137030000D03*
D11*
X100355718Y-140934907D03*
D10*
X99706361Y-135292538D03*
X134637278Y-124594924D03*
D11*
X132575137Y-126547378D03*
D12*
X129863639Y-122857462D03*
D11*
X125739357Y-126762369D03*
D10*
X125090000Y-121120000D03*
X301397278Y-138965076D03*
D11*
X301072599Y-141786261D03*
D12*
X296623639Y-140702538D03*
D11*
X295974282Y-146344908D03*
D10*
X291850000Y-142440000D03*
X138158708Y-175556232D03*
D11*
X140655915Y-174204028D03*
D12*
X142320000Y-178470000D03*
D11*
X147314414Y-175765592D03*
D10*
X146481292Y-181383768D03*
X327537278Y-99655076D03*
D11*
X327212599Y-102476261D03*
D12*
X322763639Y-101392538D03*
D11*
X322114282Y-107034908D03*
D10*
X317990000Y-103130000D03*
X334027278Y-117515076D03*
D11*
X333702599Y-120336261D03*
D12*
X329253639Y-119252538D03*
D11*
X328604282Y-124894908D03*
D10*
X324480000Y-120990000D03*
X268070000Y-158550000D03*
D11*
X267745321Y-161371185D03*
D12*
X263296361Y-160287462D03*
D11*
X262647004Y-165929832D03*
D10*
X258522722Y-162024924D03*
X151470000Y-133904924D03*
D11*
X149407859Y-135857378D03*
D12*
X146696361Y-132167462D03*
D11*
X142572079Y-136072369D03*
D10*
X141922722Y-130430000D03*
D15*
X179300000Y-159960000D03*
X181215313Y-154697721D03*
D16*
X176103318Y-157413072D03*
X176445338Y-156473379D03*
X176787358Y-155533686D03*
X177129378Y-154593994D03*
D10*
X89020000Y-138850000D03*
D11*
X86957859Y-140802454D03*
D12*
X84246361Y-137112538D03*
D11*
X80122079Y-141017445D03*
D10*
X79472722Y-135375076D03*
X273518708Y-181383768D03*
D11*
X273102147Y-178574680D03*
D12*
X277680000Y-178470000D03*
D11*
X276846878Y-172851823D03*
D10*
X281841292Y-175556232D03*
X278080000Y-130430000D03*
D11*
X277755321Y-133251185D03*
D12*
X273306361Y-132167462D03*
D11*
X272657004Y-137809832D03*
D10*
X268532722Y-133904924D03*
X320273639Y-135282538D03*
D11*
X319948960Y-138103723D03*
D12*
X315500000Y-137020000D03*
D11*
X314850643Y-142662370D03*
D10*
X310726361Y-138757462D03*
X284577278Y-148295076D03*
D11*
X284252599Y-151116261D03*
D12*
X279803639Y-150032538D03*
D11*
X279154282Y-155674908D03*
D10*
X275030000Y-151770000D03*
X271583639Y-112572538D03*
D11*
X271258960Y-115393723D03*
D12*
X266810000Y-114310000D03*
D11*
X266160643Y-119952370D03*
D10*
X262036361Y-116047462D03*
X254404639Y-194291506D03*
D11*
X253275226Y-191685949D03*
D12*
X257670000Y-190400000D03*
D11*
X255411175Y-185188886D03*
D10*
X260935361Y-186508494D03*
D17*
X218960886Y-130241773D03*
X220230886Y-132441477D03*
X221500886Y-134641182D03*
X222770886Y-136840886D03*
X224040886Y-139040591D03*
X225310886Y-141240295D03*
X226580886Y-143440000D03*
X227850886Y-145639705D03*
X229120886Y-147839409D03*
X230390886Y-150039114D03*
X231660886Y-152238818D03*
X232930886Y-154438523D03*
X234200886Y-156638227D03*
X236400591Y-155368227D03*
X238600295Y-154098227D03*
X240800000Y-152828227D03*
X242999705Y-151558227D03*
X245199409Y-150288227D03*
X247399114Y-149018227D03*
X246129114Y-146818523D03*
X244859114Y-144618818D03*
X243589114Y-142419114D03*
X242319114Y-140219409D03*
X241049114Y-138019705D03*
X239779114Y-135820000D03*
X238509114Y-133620295D03*
X237239114Y-131420591D03*
X235969114Y-129220886D03*
X234699114Y-127021182D03*
X233429114Y-124821477D03*
X232159114Y-122621773D03*
X235130591Y-153168523D03*
D10*
X294897278Y-121115076D03*
D11*
X294572599Y-123936261D03*
D12*
X290123639Y-122852538D03*
D11*
X289474282Y-128494908D03*
D10*
X285350000Y-124590000D03*
D15*
X174660000Y-172730000D03*
X177943393Y-163708951D03*
D16*
X171463317Y-170183072D03*
X171805337Y-169243379D03*
X172147358Y-168303687D03*
X172489378Y-167363994D03*
X172831398Y-166424301D03*
X173173418Y-165484609D03*
X173515438Y-164544916D03*
X173857458Y-163605224D03*
D10*
X313787278Y-117425076D03*
D11*
X313462599Y-120246261D03*
D12*
X309013639Y-119162538D03*
D11*
X308364282Y-124804908D03*
D10*
X304240000Y-120900000D03*
X174453639Y-126297462D03*
D11*
X172391498Y-128249916D03*
D12*
X169680000Y-124560000D03*
D11*
X165555718Y-128464907D03*
D10*
X164906361Y-122822538D03*
X157970000Y-116060000D03*
D11*
X155907859Y-118012454D03*
D12*
X153196361Y-114322538D03*
D11*
X149072079Y-118227445D03*
D10*
X148422722Y-112585076D03*
X307287278Y-99575076D03*
D11*
X306962599Y-102396261D03*
D12*
X302513639Y-101312538D03*
D11*
X301864282Y-106954908D03*
D10*
X297740000Y-103050000D03*
X122263639Y-103047462D03*
D11*
X120201498Y-104999916D03*
D12*
X117490000Y-101310000D03*
D11*
X113365718Y-105214907D03*
D10*
X112716361Y-99572538D03*
X115757278Y-120904924D03*
D11*
X113695137Y-122857378D03*
D12*
X110983639Y-119167462D03*
D11*
X106859357Y-123072369D03*
D10*
X106210000Y-117430000D03*
X161463639Y-162017462D03*
D11*
X159401498Y-163969916D03*
D12*
X156690000Y-160280000D03*
D11*
X152565718Y-164184907D03*
D10*
X151916361Y-158542538D03*
X255093639Y-122825076D03*
D11*
X254768960Y-125646261D03*
D12*
X250320000Y-124562538D03*
D11*
X249670643Y-130204908D03*
D10*
X245546361Y-126300000D03*
M02*
