M48
; DRILL file {KiCad 7.0.1-0} date 2023 April 15, Saturday 20:22:39
; FORMAT={-:-/ absolute / metric / decimal}
; #@! TF.CreationDate,2023-04-15T20:22:39-04:00
; #@! TF.GenerationSoftware,Kicad,Pcbnew,7.0.1-0
; #@! TF.FileFunction,Plated,1,2,PTH
FMAT,2
METRIC
; #@! TA.AperFunction,Plated,PTH,ViaDrill
T1C0.400
; #@! TA.AperFunction,Plated,PTH,ComponentDrill
T2C0.960
; #@! TA.AperFunction,Plated,PTH,ComponentDrill
T3C1.000
; #@! TA.AperFunction,Plated,PTH,ComponentDrill
T4C3.050
%
G90
G05
T1
X96.58Y-106.32
X115.53Y-97.25
X117.01Y-106.38
X119.15Y-98.57
X134.38Y-101.05
X135.78Y-109.99
X138.0Y-102.37
X151.22Y-110.26
X152.52Y-119.25
X154.85Y-111.58
X167.71Y-120.5
X169.12Y-129.56
X170.16Y-169.71
X170.51Y-168.77
X170.85Y-167.83
X171.19Y-166.89
X171.33Y-121.82
X171.54Y-165.95
X171.88Y-165.01
X172.75Y-170.66
X173.1Y-169.72
X173.13Y-161.85
X173.44Y-168.78
X173.78Y-167.84
X174.03Y-141.38
X174.13Y-166.897
X174.4Y-158.36
X174.47Y-165.95
X175.49Y-155.06
X175.69Y-136.82
X175.83Y-154.12
X178.09Y-156.0
X178.43Y-155.06
X183.931Y-154.92
X216.91Y-132.88
X230.35Y-134.69
X231.1Y-133.49
X231.362Y-125.59
X234.04Y-141.02
X236.51Y-145.33
X239.13Y-150.09
X242.74Y-143.54
X247.546Y-151.794
X249.04Y-121.1
X253.36Y-128.89
X265.62Y-110.91
X269.96Y-118.87
X281.969Y-102.241
X285.72Y-100.87
X286.8Y-109.47
X300.84Y-98.57
X304.61Y-97.19
X305.58Y-105.77
X325.53Y-105.88
X338.23Y-142.05
X340.33Y-141.3
X342.41Y-140.52
T2
X218.961Y-130.242
X220.231Y-132.441
X221.501Y-134.641
X222.771Y-136.841
X224.041Y-139.041
X225.311Y-141.24
X226.581Y-143.44
X227.851Y-145.64
X229.121Y-147.839
X230.391Y-150.039
X231.661Y-152.239
X232.159Y-122.622
X232.931Y-154.439
X233.429Y-124.821
X234.201Y-156.638
X234.699Y-127.021
X235.131Y-153.169
X235.969Y-129.221
X236.401Y-155.368
X237.239Y-131.421
X238.509Y-133.62
X238.6Y-154.098
X239.779Y-135.82
X240.8Y-152.828
X241.049Y-138.02
X242.319Y-140.219
X243.0Y-151.558
X243.589Y-142.419
X244.859Y-144.619
X245.199Y-150.288
X246.129Y-146.819
X247.399Y-149.018
T3
X181.207Y-171.64
X182.076Y-169.253
X182.945Y-166.866
X183.594Y-172.508
X183.814Y-164.479
X184.463Y-170.122
X184.682Y-162.092
X185.332Y-167.735
X185.551Y-159.706
X186.2Y-165.348
X186.42Y-157.319
X187.069Y-162.961
X187.938Y-160.574
X188.807Y-158.187
T4
X80.122Y-141.017
X86.612Y-123.157
X86.958Y-140.802
X93.112Y-105.307
X93.448Y-122.942
X99.948Y-105.092
X100.356Y-140.935
X106.859Y-123.072
X107.191Y-140.72
X113.366Y-105.215
X113.695Y-122.857
X119.242Y-144.607
X120.201Y-105.0
X125.739Y-126.762
X126.078Y-144.392
X132.242Y-108.907
X132.575Y-126.547
X136.072Y-153.927
X139.078Y-108.692
X140.656Y-174.204
X142.572Y-136.072
X142.908Y-153.712
X147.314Y-175.766
X149.072Y-118.227
X149.408Y-135.857
X152.566Y-164.185
X155.908Y-118.012
X159.059Y-146.332
X159.401Y-163.97
X161.827Y-185.849
X165.556Y-128.465
X165.895Y-146.117
X167.854Y-189.08
X172.391Y-128.25
X249.671Y-130.205
X253.275Y-191.686
X254.769Y-125.646
X255.411Y-185.189
X256.167Y-148.07
X261.265Y-143.511
X262.647Y-165.93
X266.161Y-119.952
X267.745Y-161.371
X271.259Y-115.394
X272.657Y-137.81
X273.102Y-178.575
X276.847Y-172.852
X277.755Y-133.251
X279.154Y-155.675
X282.984Y-110.625
X284.253Y-151.116
X288.083Y-106.066
X289.474Y-128.495
X294.573Y-123.936
X295.974Y-146.345
X301.073Y-141.786
X301.864Y-106.955
X306.963Y-102.396
X308.364Y-124.805
X313.463Y-120.246
X314.851Y-142.662
X319.949Y-138.104
X322.114Y-107.035
X327.213Y-102.476
X328.604Y-124.895
X333.703Y-120.336
X335.114Y-142.745
X340.213Y-138.186
T0
M30
