%TF.GenerationSoftware,KiCad,Pcbnew,7.0.1-0*%
%TF.CreationDate,2023-04-15T20:22:23-04:00*%
%TF.ProjectId,fidrildi3,66696472-696c-4646-9933-2e6b69636164,rev?*%
%TF.SameCoordinates,Original*%
%TF.FileFunction,Paste,Bot*%
%TF.FilePolarity,Positive*%
%FSLAX46Y46*%
G04 Gerber Fmt 4.6, Leading zero omitted, Abs format (unit mm)*
G04 Created by KiCad (PCBNEW 7.0.1-0) date 2023-04-15 20:22:23*
%MOMM*%
%LPD*%
G01*
G04 APERTURE LIST*
G04 Aperture macros list*
%AMRoundRect*
0 Rectangle with rounded corners*
0 $1 Rounding radius*
0 $2 $3 $4 $5 $6 $7 $8 $9 X,Y pos of 4 corners*
0 Add a 4 corners polygon primitive as box body*
4,1,4,$2,$3,$4,$5,$6,$7,$8,$9,$2,$3,0*
0 Add four circle primitives for the rounded corners*
1,1,$1+$1,$2,$3*
1,1,$1+$1,$4,$5*
1,1,$1+$1,$6,$7*
1,1,$1+$1,$8,$9*
0 Add four rect primitives between the rounded corners*
20,1,$1+$1,$2,$3,$4,$5,0*
20,1,$1+$1,$4,$5,$6,$7,0*
20,1,$1+$1,$6,$7,$8,$9,0*
20,1,$1+$1,$8,$9,$2,$3,0*%
%AMRotRect*
0 Rectangle, with rotation*
0 The origin of the aperture is its center*
0 $1 length*
0 $2 width*
0 $3 Rotation angle, in degrees counterclockwise*
0 Add horizontal line*
21,1,$1,$2,0,0,$3*%
G04 Aperture macros list end*
%ADD10RotRect,1.600000X0.820000X220.000000*%
%ADD11RotRect,1.600000X0.820000X353.000000*%
%ADD12RotRect,1.600000X0.820000X197.500000*%
%ADD13RoundRect,0.250000X1.305205X0.589122X-0.621165X1.290263X-1.305205X-0.589122X0.621165X-1.290263X0*%
%ADD14RoundRect,0.250000X-1.424902X0.142408X-0.107187X-1.427983X1.424902X-0.142408X0.107187X1.427983X0*%
%ADD15RotRect,1.600000X0.820000X18.000000*%
%ADD16RoundRect,0.250000X0.621165X1.290263X-1.305205X0.589122X-0.621165X-1.290263X1.305205X-0.589122X0*%
%ADD17RotRect,1.600000X0.820000X29.250000*%
%ADD18RotRect,1.600000X0.820000X111.000000*%
%ADD19RotRect,1.600000X0.820000X17.250000*%
%ADD20RotRect,1.600000X0.820000X257.250000*%
%ADD21RotRect,1.600000X0.820000X341.500000*%
%ADD22RotRect,1.600000X0.820000X335.500000*%
%ADD23RotRect,1.600000X0.820000X54.000000*%
%ADD24RotRect,1.600000X0.820000X306.250000*%
%ADD25RotRect,1.600000X0.820000X181.750000*%
%ADD26RotRect,1.600000X0.820000X178.000000*%
%ADD27RotRect,1.600000X0.820000X328.000000*%
%ADD28RotRect,1.600000X0.820000X329.000000*%
%ADD29RotRect,1.600000X0.820000X134.500000*%
%ADD30RoundRect,0.250000X-1.413207X-0.231236X0.266054X-1.407068X1.413207X0.231236X-0.266054X1.407068X0*%
%ADD31RotRect,1.600000X0.820000X8.750000*%
%ADD32RotRect,1.600000X0.820000X164.500000*%
%ADD33RotRect,1.600000X0.820000X250.500000*%
%ADD34RoundRect,0.250000X-0.266054X-1.407068X1.413207X-0.231236X0.266054X1.407068X-1.413207X0.231236X0*%
%ADD35RotRect,1.600000X0.820000X331.000000*%
%ADD36RotRect,1.600000X0.820000X182.500000*%
%ADD37RotRect,1.600000X0.820000X219.000000*%
%ADD38RotRect,1.600000X0.820000X347.000000*%
%ADD39RotRect,1.600000X0.820000X155.500000*%
%ADD40RoundRect,0.250000X0.107187X-1.427983X1.424902X0.142408X-0.107187X1.427983X-1.424902X-0.142408X0*%
%ADD41RotRect,1.600000X0.820000X32.500000*%
%ADD42RotRect,1.600000X0.820000X226.000000*%
%ADD43RotRect,1.600000X0.820000X140.250000*%
%ADD44R,1.600000X0.820000*%
%ADD45RotRect,1.600000X0.820000X202.250000*%
%ADD46RotRect,1.600000X0.820000X141.000000*%
%ADD47RotRect,1.600000X0.820000X101.000000*%
%ADD48RotRect,1.600000X0.820000X200.000000*%
%ADD49RotRect,1.600000X0.820000X260.000000*%
%ADD50RotRect,1.600000X0.820000X162.000000*%
%ADD51RotRect,1.600000X0.820000X102.000000*%
%ADD52RotRect,1.600000X0.820000X23.500000*%
%ADD53RotRect,1.600000X0.820000X76.500000*%
%ADD54RotRect,1.600000X0.820000X285.000000*%
%ADD55RotRect,1.600000X0.820000X183.000000*%
%ADD56RotRect,1.000000X1.200000X20.000000*%
%ADD57RotRect,1.000000X1.200000X160.000000*%
%ADD58RotRect,1.000000X1.200000X310.000000*%
%ADD59RotRect,1.000000X1.200000X35.000000*%
%ADD60RotRect,1.000000X1.200000X230.000000*%
%ADD61RoundRect,0.250000X-0.303155X0.482801X-0.542569X-0.174983X0.303155X-0.482801X0.542569X0.174983X0*%
%ADD62RotRect,1.700000X1.000000X210.000000*%
%ADD63RotRect,1.000000X1.200000X145.000000*%
G04 APERTURE END LIST*
D10*
X189277015Y-183234728D03*
X188312834Y-182085661D03*
X184022985Y-185685272D03*
X184987166Y-186834339D03*
D11*
X110022273Y-89374356D03*
X109839469Y-90863175D03*
X115397727Y-91545644D03*
X115580531Y-90056825D03*
D12*
X305420000Y-149660000D03*
X304968941Y-148229425D03*
X299628126Y-149913378D03*
X300079185Y-151343953D03*
D13*
X103025352Y-106212570D03*
X90009214Y-104178095D03*
D14*
X159721603Y-183339895D03*
X169976671Y-191609871D03*
D15*
X287165279Y-94821955D03*
X287628805Y-96248540D03*
X292954721Y-94518045D03*
X292491195Y-93091460D03*
D16*
X264342814Y-142391069D03*
X253064139Y-149199182D03*
D17*
X254600545Y-109843767D03*
X255333477Y-111152511D03*
X260219455Y-108416233D03*
X259486523Y-107107489D03*
D18*
X132643245Y-184602801D03*
X134043616Y-184065249D03*
X132036755Y-178837199D03*
X130636384Y-179374751D03*
D19*
X90933538Y-91264051D03*
X91378350Y-92696581D03*
X96726462Y-91035949D03*
X96281650Y-89603419D03*
D20*
X293239460Y-160674565D03*
X291776446Y-160343518D03*
X290540540Y-165805435D03*
X292003554Y-166136482D03*
D21*
X127622672Y-93110304D03*
X127146715Y-94532790D03*
X132457328Y-96309696D03*
X132933285Y-94887210D03*
D13*
X129155352Y-145512570D03*
X116139214Y-143478095D03*
D22*
X144443128Y-99386388D03*
X143821089Y-100751330D03*
X148916872Y-103073612D03*
X149538911Y-101708670D03*
D23*
X77604878Y-103368818D03*
X78818403Y-104250496D03*
X82110000Y-99720000D03*
X80896475Y-98838322D03*
D16*
X291160092Y-104946145D03*
X279881417Y-111754258D03*
D24*
X338409166Y-97928473D03*
X337199500Y-98815437D03*
X340510834Y-103331527D03*
X341720500Y-102444563D03*
D25*
X103521598Y-149744142D03*
X103475790Y-148244842D03*
X97878402Y-148415858D03*
X97924210Y-149915158D03*
D16*
X343290092Y-137066145D03*
X332011417Y-143874258D03*
D13*
X168972630Y-147237494D03*
X155956492Y-145203019D03*
D26*
X323192120Y-149977262D03*
X323244469Y-148478175D03*
X317647880Y-148282738D03*
X317595531Y-149781825D03*
D27*
X176102905Y-116150190D03*
X175308026Y-117422262D03*
X180057095Y-120389810D03*
X180851974Y-119117738D03*
D13*
X96525352Y-124062570D03*
X83509214Y-122028095D03*
X142155352Y-109812570D03*
X129139214Y-107778095D03*
X145985352Y-154832570D03*
X132969214Y-152798095D03*
D28*
X191206210Y-125735018D03*
X190433653Y-127020769D03*
X195233790Y-129904982D03*
X196006347Y-128619231D03*
D13*
X110268991Y-141840032D03*
X97252853Y-139805557D03*
X135652630Y-127667494D03*
X122636492Y-125633019D03*
D16*
X304150092Y-140666145D03*
X292871417Y-147474258D03*
D29*
X143387608Y-199082783D03*
X144457484Y-198031419D03*
X140532392Y-194037217D03*
X139462516Y-195088581D03*
D30*
X137973192Y-172325565D03*
X150019255Y-177659541D03*
D31*
X304508495Y-90144674D03*
X304736680Y-91627217D03*
X310271505Y-90775326D03*
X310043320Y-89292783D03*
D16*
X330290092Y-101356145D03*
X319011417Y-108164258D03*
X336780092Y-119216145D03*
X325501417Y-126024258D03*
D32*
X85487736Y-149430990D03*
X85888594Y-147985545D03*
X80492264Y-146489010D03*
X80091406Y-147934455D03*
D16*
X270822814Y-160251069D03*
X259544139Y-167059182D03*
D13*
X152485352Y-136977494D03*
X139469214Y-134943019D03*
X90035352Y-141922570D03*
X77019214Y-139888095D03*
D33*
X289681640Y-178280959D03*
X288267678Y-177780249D03*
X286398360Y-183059041D03*
X287812322Y-183559751D03*
D34*
X270419424Y-180453143D03*
X279551718Y-170957874D03*
D35*
X160594672Y-107156568D03*
X159867458Y-108468498D03*
X164765328Y-111183432D03*
X165492542Y-109871502D03*
D16*
X280832814Y-132131069D03*
X269554139Y-138939182D03*
D36*
X160300050Y-204607152D03*
X160234620Y-203108580D03*
X154639950Y-203352848D03*
X154705380Y-204851420D03*
D16*
X323026453Y-136983607D03*
X311747778Y-143791720D03*
D37*
X175697999Y-194920762D03*
X174754018Y-193755043D03*
X170402001Y-197279238D03*
X171345982Y-198444957D03*
D16*
X287330092Y-149996145D03*
X276051417Y-156804258D03*
D38*
X322523528Y-89500274D03*
X322186102Y-90961830D03*
X327642574Y-92221556D03*
X327980000Y-90760000D03*
D39*
X221576872Y-177123612D03*
X222198911Y-175758670D03*
X217103128Y-173436388D03*
X216481089Y-174801330D03*
D16*
X274336453Y-114273607D03*
X263057778Y-121081720D03*
D40*
X251170097Y-194194744D03*
X257533659Y-182659407D03*
D41*
X239245529Y-119081895D03*
X240051479Y-120346982D03*
X244774471Y-117338105D03*
X243968521Y-116073018D03*
D42*
X281324548Y-194246842D03*
X280245539Y-193204855D03*
X276355452Y-197233158D03*
X277434461Y-198275145D03*
D43*
X235903178Y-187567061D03*
X236862336Y-186413798D03*
X232556822Y-182832939D03*
X231597664Y-183986202D03*
D44*
X207250000Y-132880000D03*
X207250000Y-134380000D03*
X212850000Y-134380000D03*
X212850000Y-132880000D03*
D16*
X297650092Y-122816145D03*
X286371417Y-129624258D03*
D45*
X204605500Y-174483939D03*
X204037527Y-173095628D03*
X198854500Y-175216061D03*
X199422473Y-176604372D03*
D46*
X249564018Y-199144957D03*
X250507999Y-197979238D03*
X246155982Y-194455043D03*
X245212001Y-195620762D03*
D47*
X128148045Y-167231663D03*
X129620486Y-166945449D03*
X128551955Y-161448337D03*
X127079514Y-161734551D03*
D16*
X316540092Y-119126145D03*
X305261417Y-125934258D03*
D13*
X175468991Y-129370032D03*
X162452853Y-127335557D03*
D48*
X340967654Y-147397113D03*
X340454624Y-145987574D03*
X335192346Y-147902887D03*
X335705376Y-149312426D03*
D13*
X158985352Y-119132570D03*
X145969214Y-117098095D03*
D16*
X310040092Y-101276145D03*
X298761417Y-108084258D03*
D49*
X349227212Y-131690472D03*
X347750000Y-131430000D03*
X346777570Y-136944924D03*
X348254782Y-137205396D03*
D13*
X123278991Y-106120032D03*
X110262853Y-104085557D03*
D50*
X120991195Y-151758540D03*
X121454721Y-150331955D03*
X116128805Y-148601460D03*
X115665279Y-150028045D03*
D51*
X72047084Y-138319494D03*
X73514305Y-138007627D03*
X72350000Y-132530000D03*
X70882779Y-132841867D03*
D52*
X270553170Y-101598702D03*
X271151294Y-102974292D03*
X276286830Y-100741298D03*
X275688706Y-99365708D03*
D13*
X116772630Y-123977494D03*
X103756492Y-121943019D03*
X162478991Y-165090032D03*
X149462853Y-163055557D03*
D53*
X71447076Y-120317552D03*
X72905630Y-120667720D03*
X74212924Y-115222448D03*
X72754370Y-114872280D03*
D16*
X257846453Y-124526145D03*
X246567778Y-131334258D03*
D54*
X346939751Y-113751293D03*
X345490862Y-114139522D03*
X346940249Y-119548707D03*
X348389138Y-119160478D03*
D55*
X266465415Y-204562431D03*
X266386911Y-203064487D03*
X260794585Y-203357569D03*
X260873089Y-204855513D03*
D56*
X324045046Y-97522868D03*
X327240000Y-96360000D03*
D57*
X166207477Y-139051434D03*
X163012523Y-137888566D03*
X107517477Y-133641434D03*
X104322523Y-132478566D03*
X149687477Y-128771434D03*
X146492523Y-127608566D03*
D56*
X263792523Y-110921434D03*
X266987477Y-109758566D03*
D57*
X139367477Y-101731434D03*
X136172523Y-100568566D03*
X132897477Y-119471434D03*
X129702523Y-118308566D03*
X87257477Y-133721434D03*
X84062523Y-132558566D03*
D56*
X312452523Y-133671434D03*
X315647477Y-132508566D03*
X332732523Y-133751434D03*
X335927477Y-132588566D03*
D58*
X168637261Y-183097724D03*
X170822739Y-185702276D03*
D56*
X260242523Y-156922868D03*
X263437477Y-155760000D03*
X287072523Y-119471434D03*
X290267477Y-118308566D03*
D57*
X126377477Y-137311434D03*
X123182523Y-136148566D03*
X120517477Y-97931434D03*
X117322523Y-96768566D03*
D59*
X270917442Y-171575080D03*
X273702558Y-169624920D03*
D56*
X280602523Y-101601434D03*
X283797477Y-100438566D03*
D57*
X156217477Y-110941434D03*
X153022523Y-109778566D03*
X95997477Y-97501434D03*
X92802523Y-96338566D03*
D60*
X251542739Y-182837724D03*
X249357261Y-185442276D03*
D57*
X143237477Y-146641434D03*
X140042523Y-145478566D03*
X93767477Y-115861434D03*
X90572523Y-114698566D03*
D56*
X305982523Y-115781434D03*
X309177477Y-114618566D03*
X270272523Y-128771434D03*
X273467477Y-127608566D03*
X293562523Y-137321434D03*
X296757477Y-136158566D03*
X299472523Y-97931434D03*
X302667477Y-96768566D03*
D57*
X172717477Y-121171434D03*
X169522523Y-120008566D03*
D56*
X326212523Y-115881434D03*
X329407477Y-114718566D03*
X247272523Y-121201434D03*
X250467477Y-120038566D03*
X276762523Y-146651434D03*
X279957477Y-145488566D03*
D57*
X159717477Y-156891434D03*
X156522523Y-155728566D03*
D61*
X180312020Y-154670307D03*
X179627980Y-156549693D03*
D56*
X253782523Y-139041434D03*
X256977477Y-137878566D03*
D57*
X113997477Y-115791434D03*
X110802523Y-114628566D03*
D61*
X182782020Y-154500307D03*
X182097980Y-156379693D03*
D62*
X232137980Y-131469552D03*
X226682020Y-134619552D03*
X234037980Y-134760448D03*
X228582020Y-137910448D03*
D63*
X149312558Y-171765080D03*
X146527442Y-169814920D03*
M02*
