%TF.GenerationSoftware,KiCad,Pcbnew,7.0.1-0*%
%TF.CreationDate,2023-05-23T19:45:12-04:00*%
%TF.ProjectId,plate,706c6174-652e-46b6-9963-61645f706362,rev?*%
%TF.SameCoordinates,Original*%
%TF.FileFunction,Drillmap*%
%TF.FilePolarity,Positive*%
%FSLAX45Y45*%
G04 Gerber Fmt 4.5, Leading zero omitted, Abs format (unit mm)*
G04 Created by KiCad (PCBNEW 7.0.1-0) date 2023-05-23 19:45:12*
%MOMM*%
%LPD*%
G01*
G04 APERTURE LIST*
%ADD10C,0.200000*%
%ADD11C,0.220000*%
G04 APERTURE END LIST*
D10*
X20998992Y-17747393D02*
X21149691Y-17754569D01*
X21300370Y-17775544D01*
X21451013Y-17809494D01*
X21601600Y-17855594D01*
X21752114Y-17913018D01*
X21902536Y-17980944D01*
X22052848Y-18058544D01*
X22203032Y-18144995D01*
X22353070Y-18239473D01*
X22502942Y-18341151D01*
X22652632Y-18449206D01*
X22802121Y-18562813D01*
X22951390Y-18681146D01*
X23100422Y-18803382D01*
X23249198Y-18928695D01*
X23397700Y-19056260D01*
X23545910Y-19185253D01*
X23693809Y-19314849D01*
X23841379Y-19444223D01*
X23988603Y-19572551D01*
X24135461Y-19699008D01*
X24281936Y-19822768D01*
X24428009Y-19943007D01*
X24573662Y-20058901D01*
X24718877Y-20169624D01*
X24863636Y-20274353D01*
X25007920Y-20372261D01*
X25151711Y-20462524D01*
X25294992Y-20544318D01*
X25437743Y-20616817D01*
X25579946Y-20679198D01*
X25721584Y-20730634D01*
X33144826Y-8847498D02*
X32950009Y-8763197D01*
X32747209Y-8692541D01*
X32536911Y-8635054D01*
X32319605Y-8590258D01*
X32095775Y-8557677D01*
X31865910Y-8536833D01*
X31630497Y-8527250D01*
X31390022Y-8528450D01*
X31144972Y-8539956D01*
X30895835Y-8561292D01*
X30643097Y-8591980D01*
X30387246Y-8631543D01*
X30128768Y-8679504D01*
X29868151Y-8735386D01*
X29605881Y-8798713D01*
X29342445Y-8869006D01*
X29078331Y-8945790D01*
X28814026Y-9028587D01*
X28550016Y-9116919D01*
X28286788Y-9210311D01*
X28024830Y-9308284D01*
X27764629Y-9410363D01*
X27506671Y-9516069D01*
X27251443Y-9624926D01*
X26999433Y-9736456D01*
X26751128Y-9850184D01*
X26507014Y-9965631D01*
X26267578Y-10082320D01*
X26033308Y-10199776D01*
X25804691Y-10317520D01*
X25582213Y-10435075D01*
X25366362Y-10551965D01*
X11579630Y-15374173D02*
X11674209Y-15401877D01*
X11761055Y-15435304D01*
X11840581Y-15474292D01*
X11913202Y-15518680D01*
X11979334Y-15568309D01*
X12039389Y-15623017D01*
X12093784Y-15682643D01*
X12142932Y-15747028D01*
X12187248Y-15816010D01*
X12227147Y-15889428D01*
X12263043Y-15967122D01*
X12295352Y-16048932D01*
X12324486Y-16134696D01*
X12350862Y-16224254D01*
X12374894Y-16317445D01*
X12396995Y-16414109D01*
X12417582Y-16514085D01*
X12437068Y-16617212D01*
X12455868Y-16723329D01*
X12474396Y-16832276D01*
X12493068Y-16943892D01*
X12512297Y-17058017D01*
X12532499Y-17174489D01*
X12554088Y-17293149D01*
X12577478Y-17413834D01*
X12603084Y-17536386D01*
X12631321Y-17660642D01*
X12662603Y-17786443D01*
X12697345Y-17913628D01*
X12735962Y-18042036D01*
X12778867Y-18171505D01*
X12826476Y-18301877D01*
X12826476Y-18301877D02*
X12879110Y-18432951D01*
X12936720Y-18564374D01*
X12999165Y-18695756D01*
X13066303Y-18826706D01*
X13137992Y-18956832D01*
X13214090Y-19085745D01*
X13294457Y-19213052D01*
X13378949Y-19338363D01*
X13467427Y-19461287D01*
X13559747Y-19581434D01*
X13655769Y-19698411D01*
X13755351Y-19811829D01*
X13858350Y-19921296D01*
X13964626Y-20026422D01*
X14074037Y-20126815D01*
X14186442Y-20222085D01*
X14301697Y-20311840D01*
X14419663Y-20395690D01*
X14540197Y-20473243D01*
X14663158Y-20544110D01*
X14788404Y-20607898D01*
X14915793Y-20664218D01*
X15045184Y-20712677D01*
X15176436Y-20752885D01*
X15309405Y-20784452D01*
X15443952Y-20806986D01*
X15579934Y-20820096D01*
X15717209Y-20823391D01*
X15855636Y-20816481D01*
X15995074Y-20798974D01*
X16135380Y-20770480D01*
X16276414Y-20730608D01*
X25721584Y-20730634D02*
X25862616Y-20770504D01*
X26002922Y-20798996D01*
X26142359Y-20816501D01*
X26280785Y-20823409D01*
X26418060Y-20820112D01*
X26554041Y-20807001D01*
X26688587Y-20784466D01*
X26821555Y-20752898D01*
X26952806Y-20712688D01*
X27082196Y-20664228D01*
X27209584Y-20607908D01*
X27334829Y-20544119D01*
X27457789Y-20473252D01*
X27578323Y-20395698D01*
X27696287Y-20311847D01*
X27811542Y-20222092D01*
X27923946Y-20126822D01*
X28033356Y-20026429D01*
X28139631Y-19921303D01*
X28242630Y-19811836D01*
X28342210Y-19698418D01*
X28438231Y-19581440D01*
X28530550Y-19461294D01*
X28619026Y-19338370D01*
X28703517Y-19213059D01*
X28783882Y-19085752D01*
X28859979Y-18956840D01*
X28931667Y-18826714D01*
X28998803Y-18695765D01*
X29061246Y-18564383D01*
X29118854Y-18432960D01*
X29171487Y-18301887D01*
X16276414Y-20730608D02*
X16418053Y-20679169D01*
X16560257Y-20616787D01*
X16703008Y-20544286D01*
X16846289Y-20462491D01*
X16990080Y-20372226D01*
X17134364Y-20274317D01*
X17279123Y-20169589D01*
X17424338Y-20058865D01*
X17569991Y-19942971D01*
X17716063Y-19822732D01*
X17862537Y-19698972D01*
X18009395Y-19572516D01*
X18156618Y-19444188D01*
X18304187Y-19314815D01*
X18452085Y-19185220D01*
X18600294Y-19056228D01*
X18748795Y-18928664D01*
X18897570Y-18803352D01*
X19046601Y-18681118D01*
X19195869Y-18562786D01*
X19345357Y-18449182D01*
X19495046Y-18341129D01*
X19644918Y-18239452D01*
X19794955Y-18144977D01*
X19945138Y-18058528D01*
X20095449Y-17980929D01*
X20245871Y-17913007D01*
X20396384Y-17855584D01*
X20546971Y-17809487D01*
X20697614Y-17775539D01*
X20848293Y-17754566D01*
X20998992Y-17747393D01*
X30418311Y-15374146D02*
X30520882Y-15352203D01*
X30631068Y-15335582D01*
X30748338Y-15323721D01*
X30872160Y-15316059D01*
X31002001Y-15312035D01*
X31137329Y-15311086D01*
X31277613Y-15312652D01*
X31422321Y-15316172D01*
X31570920Y-15321084D01*
X31722879Y-15326826D01*
X31877665Y-15332837D01*
X32034747Y-15338557D01*
X32193592Y-15343423D01*
X32353669Y-15346874D01*
X32514445Y-15348349D01*
X32675389Y-15347287D01*
X32835969Y-15343126D01*
X32995652Y-15335304D01*
X33153907Y-15323261D01*
X33310202Y-15306434D01*
X33464004Y-15284264D01*
X33614782Y-15256187D01*
X33762004Y-15221644D01*
X33905137Y-15180072D01*
X34043650Y-15130910D01*
X34177011Y-15073597D01*
X34304688Y-15007572D01*
X34426148Y-14932272D01*
X34540860Y-14847137D01*
X34648291Y-14751606D01*
X34747911Y-14645117D01*
X34839186Y-14527108D01*
X8853140Y-8847485D02*
X8666713Y-8945692D01*
X8488771Y-9057204D01*
X8319326Y-9181201D01*
X8158392Y-9316864D01*
X8005980Y-9463375D01*
X7862103Y-9619914D01*
X7726775Y-9785663D01*
X7600007Y-9959802D01*
X7481813Y-10141514D01*
X7372204Y-10329978D01*
X7271195Y-10524377D01*
X7178796Y-10723891D01*
X7095022Y-10927701D01*
X7019884Y-11134989D01*
X6953396Y-11344935D01*
X6895569Y-11556721D01*
X6846417Y-11769527D01*
X6805952Y-11982536D01*
X6774187Y-12194927D01*
X6751135Y-12405883D01*
X6736808Y-12614584D01*
X6731219Y-12820211D01*
X6734380Y-13021946D01*
X6746304Y-13218969D01*
X6767004Y-13410462D01*
X6796493Y-13595605D01*
X6834782Y-13773581D01*
X6881886Y-13943569D01*
X6937816Y-14104752D01*
X7002585Y-14256310D01*
X7076206Y-14397424D01*
X7158691Y-14527276D01*
X34839186Y-14527108D02*
X34921675Y-14397249D01*
X34995300Y-14256130D01*
X35060073Y-14104569D01*
X35116007Y-13943385D01*
X35163114Y-13773396D01*
X35201407Y-13595422D01*
X35230899Y-13410282D01*
X35251602Y-13218793D01*
X35263530Y-13021776D01*
X35266694Y-12820048D01*
X35261108Y-12614428D01*
X35246784Y-12405736D01*
X35223734Y-12194789D01*
X35191972Y-11982408D01*
X35151510Y-11769409D01*
X35102360Y-11556613D01*
X35044536Y-11344838D01*
X34978050Y-11134903D01*
X34902915Y-10927626D01*
X34819143Y-10723827D01*
X34726747Y-10524324D01*
X34625739Y-10329935D01*
X34516133Y-10141481D01*
X34397941Y-9959778D01*
X34271176Y-9785647D01*
X34135849Y-9619906D01*
X33991975Y-9463373D01*
X33839566Y-9316868D01*
X33678633Y-9181209D01*
X33509190Y-9057216D01*
X33331251Y-8945706D01*
X33144826Y-8847498D01*
X16631654Y-10551981D02*
X16415803Y-10435090D01*
X16193325Y-10317533D01*
X15964707Y-10199789D01*
X15730437Y-10082332D01*
X15491000Y-9965641D01*
X15246886Y-9850193D01*
X14998579Y-9736465D01*
X14746568Y-9624933D01*
X14491340Y-9516075D01*
X14233381Y-9410368D01*
X13973178Y-9308289D01*
X13711218Y-9210314D01*
X13447989Y-9116922D01*
X13183978Y-9028588D01*
X12919671Y-8945790D01*
X12655555Y-8869006D01*
X12392118Y-8798711D01*
X12129846Y-8735384D01*
X11869226Y-8679500D01*
X11610747Y-8631538D01*
X11354893Y-8591974D01*
X11102154Y-8561286D01*
X10853014Y-8539949D01*
X10607962Y-8528442D01*
X10367485Y-8527241D01*
X10132069Y-8536824D01*
X9902202Y-8557667D01*
X9678371Y-8590247D01*
X9461062Y-8635042D01*
X9250762Y-8692529D01*
X9047960Y-8763184D01*
X8853140Y-8847485D01*
X25366362Y-10551965D02*
X25157507Y-10667765D01*
X24955545Y-10782267D01*
X24760253Y-10895313D01*
X24571410Y-11006748D01*
X24388792Y-11116416D01*
X24212178Y-11224161D01*
X24041345Y-11329828D01*
X23876071Y-11433260D01*
X23716133Y-11534302D01*
X23561309Y-11632797D01*
X23411377Y-11728591D01*
X23266114Y-11821526D01*
X23125298Y-11911448D01*
X22988707Y-11998199D01*
X22856118Y-12081625D01*
X22727309Y-12161570D01*
X22602058Y-12237877D01*
X22480142Y-12310391D01*
X22361339Y-12378956D01*
X22245426Y-12443415D01*
X22132181Y-12503614D01*
X22021383Y-12559396D01*
X21912808Y-12610605D01*
X21806234Y-12657086D01*
X21701438Y-12698682D01*
X21598199Y-12735239D01*
X21496295Y-12766598D01*
X21395502Y-12792606D01*
X21295598Y-12813106D01*
X21196362Y-12827942D01*
X21097570Y-12836959D01*
X20999000Y-12840000D01*
X20999000Y-12840000D02*
X20900430Y-12836961D01*
X20801639Y-12827947D01*
X20702402Y-12813113D01*
X20602499Y-12792615D01*
X20501706Y-12766609D01*
X20399802Y-12735251D01*
X20296564Y-12698696D01*
X20191769Y-12657101D01*
X20085196Y-12610622D01*
X19976621Y-12559414D01*
X19865823Y-12503633D01*
X19752579Y-12443435D01*
X19636668Y-12378976D01*
X19517865Y-12310412D01*
X19395950Y-12237899D01*
X19270699Y-12161592D01*
X19141891Y-12081648D01*
X19009303Y-11998222D01*
X18872713Y-11911470D01*
X18731897Y-11821549D01*
X18586635Y-11728613D01*
X18436704Y-11632820D01*
X18281881Y-11534324D01*
X18121943Y-11433282D01*
X17956669Y-11329849D01*
X17785837Y-11224182D01*
X17609223Y-11116436D01*
X17426606Y-11006767D01*
X17237763Y-10895331D01*
X17042471Y-10782285D01*
X16840509Y-10667782D01*
X16631654Y-10551981D01*
X7158691Y-14527276D02*
X7249962Y-14645277D01*
X7349579Y-14751758D01*
X7457008Y-14847282D01*
X7571719Y-14932409D01*
X7693179Y-15007702D01*
X7820856Y-15073720D01*
X7954217Y-15131026D01*
X8092732Y-15180182D01*
X8235867Y-15221748D01*
X8383092Y-15256285D01*
X8533873Y-15284356D01*
X8687679Y-15306521D01*
X8843977Y-15323342D01*
X9002236Y-15335381D01*
X9161923Y-15343198D01*
X9322508Y-15347354D01*
X9483456Y-15348413D01*
X9644237Y-15346934D01*
X9804318Y-15343479D01*
X9963168Y-15338609D01*
X10120254Y-15332886D01*
X10275044Y-15326871D01*
X10427007Y-15321126D01*
X10575609Y-15316212D01*
X10720320Y-15312690D01*
X10860607Y-15311121D01*
X10995938Y-15312068D01*
X11125780Y-15316091D01*
X11249603Y-15323751D01*
X11366873Y-15335611D01*
X11477060Y-15352231D01*
X11579630Y-15374173D01*
X29171487Y-18301887D02*
X29219094Y-18171516D01*
X29261998Y-18042046D01*
X29300612Y-17913639D01*
X29335352Y-17786454D01*
X29366633Y-17660653D01*
X29394868Y-17536395D01*
X29420473Y-17413843D01*
X29443861Y-17293156D01*
X29465448Y-17174496D01*
X29485649Y-17058022D01*
X29504877Y-16943897D01*
X29523547Y-16832279D01*
X29542074Y-16723330D01*
X29560873Y-16617212D01*
X29580358Y-16514083D01*
X29600944Y-16414106D01*
X29623045Y-16317440D01*
X29647075Y-16224247D01*
X29673450Y-16134688D01*
X29702585Y-16048922D01*
X29734892Y-15967110D01*
X29770789Y-15889414D01*
X29810687Y-15815994D01*
X29855004Y-15747011D01*
X29904152Y-15682625D01*
X29958547Y-15622997D01*
X30018603Y-15568287D01*
X30084735Y-15518657D01*
X30157357Y-15474268D01*
X30236884Y-15435279D01*
X30323730Y-15401851D01*
X30418311Y-15374146D01*
D11*
X8819000Y-10752000D02*
X9039000Y-10972000D01*
X9039000Y-10752000D02*
X8819000Y-10972000D01*
X11491000Y-12999000D02*
X11711000Y-13219000D01*
X11711000Y-12999000D02*
X11491000Y-13219000D01*
X15268000Y-19611000D02*
X15488000Y-19831000D01*
X15488000Y-19611000D02*
X15268000Y-19831000D01*
X15701000Y-12520000D02*
X15921000Y-12740000D01*
X15921000Y-12520000D02*
X15701000Y-12740000D01*
X26079000Y-12520000D02*
X26299000Y-12740000D01*
X26299000Y-12520000D02*
X26079000Y-12740000D01*
X26512000Y-19611000D02*
X26732000Y-19831000D01*
X26732000Y-19611000D02*
X26512000Y-19831000D01*
X30289000Y-12999000D02*
X30509000Y-13219000D01*
X30509000Y-12999000D02*
X30289000Y-13219000D01*
X32961000Y-10752000D02*
X33181000Y-10972000D01*
X33181000Y-10752000D02*
X32961000Y-10972000D01*
D10*
X6469147Y-21540514D02*
X6469147Y-21340514D01*
X6469147Y-21340514D02*
X6516766Y-21340514D01*
X6516766Y-21340514D02*
X6545338Y-21350038D01*
X6545338Y-21350038D02*
X6564385Y-21369085D01*
X6564385Y-21369085D02*
X6573909Y-21388133D01*
X6573909Y-21388133D02*
X6583433Y-21426228D01*
X6583433Y-21426228D02*
X6583433Y-21454800D01*
X6583433Y-21454800D02*
X6573909Y-21492895D01*
X6573909Y-21492895D02*
X6564385Y-21511942D01*
X6564385Y-21511942D02*
X6545338Y-21530990D01*
X6545338Y-21530990D02*
X6516766Y-21540514D01*
X6516766Y-21540514D02*
X6469147Y-21540514D01*
X6669147Y-21540514D02*
X6669147Y-21407180D01*
X6669147Y-21445276D02*
X6678671Y-21426228D01*
X6678671Y-21426228D02*
X6688195Y-21416704D01*
X6688195Y-21416704D02*
X6707242Y-21407180D01*
X6707242Y-21407180D02*
X6726290Y-21407180D01*
X6792957Y-21540514D02*
X6792957Y-21407180D01*
X6792957Y-21340514D02*
X6783433Y-21350038D01*
X6783433Y-21350038D02*
X6792957Y-21359561D01*
X6792957Y-21359561D02*
X6802481Y-21350038D01*
X6802481Y-21350038D02*
X6792957Y-21340514D01*
X6792957Y-21340514D02*
X6792957Y-21359561D01*
X6916766Y-21540514D02*
X6897719Y-21530990D01*
X6897719Y-21530990D02*
X6888195Y-21511942D01*
X6888195Y-21511942D02*
X6888195Y-21340514D01*
X7021528Y-21540514D02*
X7002481Y-21530990D01*
X7002481Y-21530990D02*
X6992957Y-21511942D01*
X6992957Y-21511942D02*
X6992957Y-21340514D01*
X7250100Y-21540514D02*
X7250100Y-21340514D01*
X7250100Y-21340514D02*
X7316766Y-21483371D01*
X7316766Y-21483371D02*
X7383433Y-21340514D01*
X7383433Y-21340514D02*
X7383433Y-21540514D01*
X7564385Y-21540514D02*
X7564385Y-21435752D01*
X7564385Y-21435752D02*
X7554862Y-21416704D01*
X7554862Y-21416704D02*
X7535814Y-21407180D01*
X7535814Y-21407180D02*
X7497719Y-21407180D01*
X7497719Y-21407180D02*
X7478671Y-21416704D01*
X7564385Y-21530990D02*
X7545338Y-21540514D01*
X7545338Y-21540514D02*
X7497719Y-21540514D01*
X7497719Y-21540514D02*
X7478671Y-21530990D01*
X7478671Y-21530990D02*
X7469147Y-21511942D01*
X7469147Y-21511942D02*
X7469147Y-21492895D01*
X7469147Y-21492895D02*
X7478671Y-21473847D01*
X7478671Y-21473847D02*
X7497719Y-21464323D01*
X7497719Y-21464323D02*
X7545338Y-21464323D01*
X7545338Y-21464323D02*
X7564385Y-21454800D01*
X7659623Y-21407180D02*
X7659623Y-21607180D01*
X7659623Y-21416704D02*
X7678671Y-21407180D01*
X7678671Y-21407180D02*
X7716766Y-21407180D01*
X7716766Y-21407180D02*
X7735814Y-21416704D01*
X7735814Y-21416704D02*
X7745338Y-21426228D01*
X7745338Y-21426228D02*
X7754862Y-21445276D01*
X7754862Y-21445276D02*
X7754862Y-21502419D01*
X7754862Y-21502419D02*
X7745338Y-21521466D01*
X7745338Y-21521466D02*
X7735814Y-21530990D01*
X7735814Y-21530990D02*
X7716766Y-21540514D01*
X7716766Y-21540514D02*
X7678671Y-21540514D01*
X7678671Y-21540514D02*
X7659623Y-21530990D01*
X7840576Y-21521466D02*
X7850100Y-21530990D01*
X7850100Y-21530990D02*
X7840576Y-21540514D01*
X7840576Y-21540514D02*
X7831052Y-21530990D01*
X7831052Y-21530990D02*
X7840576Y-21521466D01*
X7840576Y-21521466D02*
X7840576Y-21540514D01*
X7840576Y-21416704D02*
X7850100Y-21426228D01*
X7850100Y-21426228D02*
X7840576Y-21435752D01*
X7840576Y-21435752D02*
X7831052Y-21426228D01*
X7831052Y-21426228D02*
X7840576Y-21416704D01*
X7840576Y-21416704D02*
X7840576Y-21435752D01*
X6021528Y-21767990D02*
X6221528Y-21967990D01*
X6221528Y-21767990D02*
X6021528Y-21967990D01*
X6459623Y-21779561D02*
X6469147Y-21770038D01*
X6469147Y-21770038D02*
X6488195Y-21760514D01*
X6488195Y-21760514D02*
X6535814Y-21760514D01*
X6535814Y-21760514D02*
X6554862Y-21770038D01*
X6554862Y-21770038D02*
X6564385Y-21779561D01*
X6564385Y-21779561D02*
X6573909Y-21798609D01*
X6573909Y-21798609D02*
X6573909Y-21817657D01*
X6573909Y-21817657D02*
X6564385Y-21846228D01*
X6564385Y-21846228D02*
X6450100Y-21960514D01*
X6450100Y-21960514D02*
X6573909Y-21960514D01*
X6659623Y-21941466D02*
X6669147Y-21950990D01*
X6669147Y-21950990D02*
X6659623Y-21960514D01*
X6659623Y-21960514D02*
X6650100Y-21950990D01*
X6650100Y-21950990D02*
X6659623Y-21941466D01*
X6659623Y-21941466D02*
X6659623Y-21960514D01*
X6745338Y-21779561D02*
X6754862Y-21770038D01*
X6754862Y-21770038D02*
X6773909Y-21760514D01*
X6773909Y-21760514D02*
X6821528Y-21760514D01*
X6821528Y-21760514D02*
X6840576Y-21770038D01*
X6840576Y-21770038D02*
X6850100Y-21779561D01*
X6850100Y-21779561D02*
X6859623Y-21798609D01*
X6859623Y-21798609D02*
X6859623Y-21817657D01*
X6859623Y-21817657D02*
X6850100Y-21846228D01*
X6850100Y-21846228D02*
X6735814Y-21960514D01*
X6735814Y-21960514D02*
X6859623Y-21960514D01*
X6983433Y-21760514D02*
X7002481Y-21760514D01*
X7002481Y-21760514D02*
X7021528Y-21770038D01*
X7021528Y-21770038D02*
X7031052Y-21779561D01*
X7031052Y-21779561D02*
X7040576Y-21798609D01*
X7040576Y-21798609D02*
X7050100Y-21836704D01*
X7050100Y-21836704D02*
X7050100Y-21884323D01*
X7050100Y-21884323D02*
X7040576Y-21922419D01*
X7040576Y-21922419D02*
X7031052Y-21941466D01*
X7031052Y-21941466D02*
X7021528Y-21950990D01*
X7021528Y-21950990D02*
X7002481Y-21960514D01*
X7002481Y-21960514D02*
X6983433Y-21960514D01*
X6983433Y-21960514D02*
X6964385Y-21950990D01*
X6964385Y-21950990D02*
X6954862Y-21941466D01*
X6954862Y-21941466D02*
X6945338Y-21922419D01*
X6945338Y-21922419D02*
X6935814Y-21884323D01*
X6935814Y-21884323D02*
X6935814Y-21836704D01*
X6935814Y-21836704D02*
X6945338Y-21798609D01*
X6945338Y-21798609D02*
X6954862Y-21779561D01*
X6954862Y-21779561D02*
X6964385Y-21770038D01*
X6964385Y-21770038D02*
X6983433Y-21760514D01*
X7173909Y-21760514D02*
X7192957Y-21760514D01*
X7192957Y-21760514D02*
X7212004Y-21770038D01*
X7212004Y-21770038D02*
X7221528Y-21779561D01*
X7221528Y-21779561D02*
X7231052Y-21798609D01*
X7231052Y-21798609D02*
X7240576Y-21836704D01*
X7240576Y-21836704D02*
X7240576Y-21884323D01*
X7240576Y-21884323D02*
X7231052Y-21922419D01*
X7231052Y-21922419D02*
X7221528Y-21941466D01*
X7221528Y-21941466D02*
X7212004Y-21950990D01*
X7212004Y-21950990D02*
X7192957Y-21960514D01*
X7192957Y-21960514D02*
X7173909Y-21960514D01*
X7173909Y-21960514D02*
X7154862Y-21950990D01*
X7154862Y-21950990D02*
X7145338Y-21941466D01*
X7145338Y-21941466D02*
X7135814Y-21922419D01*
X7135814Y-21922419D02*
X7126290Y-21884323D01*
X7126290Y-21884323D02*
X7126290Y-21836704D01*
X7126290Y-21836704D02*
X7135814Y-21798609D01*
X7135814Y-21798609D02*
X7145338Y-21779561D01*
X7145338Y-21779561D02*
X7154862Y-21770038D01*
X7154862Y-21770038D02*
X7173909Y-21760514D01*
X7326290Y-21960514D02*
X7326290Y-21827180D01*
X7326290Y-21846228D02*
X7335814Y-21836704D01*
X7335814Y-21836704D02*
X7354862Y-21827180D01*
X7354862Y-21827180D02*
X7383433Y-21827180D01*
X7383433Y-21827180D02*
X7402481Y-21836704D01*
X7402481Y-21836704D02*
X7412004Y-21855752D01*
X7412004Y-21855752D02*
X7412004Y-21960514D01*
X7412004Y-21855752D02*
X7421528Y-21836704D01*
X7421528Y-21836704D02*
X7440576Y-21827180D01*
X7440576Y-21827180D02*
X7469147Y-21827180D01*
X7469147Y-21827180D02*
X7488195Y-21836704D01*
X7488195Y-21836704D02*
X7497719Y-21855752D01*
X7497719Y-21855752D02*
X7497719Y-21960514D01*
X7592957Y-21960514D02*
X7592957Y-21827180D01*
X7592957Y-21846228D02*
X7602481Y-21836704D01*
X7602481Y-21836704D02*
X7621528Y-21827180D01*
X7621528Y-21827180D02*
X7650100Y-21827180D01*
X7650100Y-21827180D02*
X7669147Y-21836704D01*
X7669147Y-21836704D02*
X7678671Y-21855752D01*
X7678671Y-21855752D02*
X7678671Y-21960514D01*
X7678671Y-21855752D02*
X7688195Y-21836704D01*
X7688195Y-21836704D02*
X7707243Y-21827180D01*
X7707243Y-21827180D02*
X7735814Y-21827180D01*
X7735814Y-21827180D02*
X7754862Y-21836704D01*
X7754862Y-21836704D02*
X7764385Y-21855752D01*
X7764385Y-21855752D02*
X7764385Y-21960514D01*
X8154862Y-21750990D02*
X7983433Y-22008133D01*
X8412005Y-21760514D02*
X8431052Y-21760514D01*
X8431052Y-21760514D02*
X8450100Y-21770038D01*
X8450100Y-21770038D02*
X8459624Y-21779561D01*
X8459624Y-21779561D02*
X8469148Y-21798609D01*
X8469148Y-21798609D02*
X8478671Y-21836704D01*
X8478671Y-21836704D02*
X8478671Y-21884323D01*
X8478671Y-21884323D02*
X8469148Y-21922419D01*
X8469148Y-21922419D02*
X8459624Y-21941466D01*
X8459624Y-21941466D02*
X8450100Y-21950990D01*
X8450100Y-21950990D02*
X8431052Y-21960514D01*
X8431052Y-21960514D02*
X8412005Y-21960514D01*
X8412005Y-21960514D02*
X8392957Y-21950990D01*
X8392957Y-21950990D02*
X8383433Y-21941466D01*
X8383433Y-21941466D02*
X8373909Y-21922419D01*
X8373909Y-21922419D02*
X8364386Y-21884323D01*
X8364386Y-21884323D02*
X8364386Y-21836704D01*
X8364386Y-21836704D02*
X8373909Y-21798609D01*
X8373909Y-21798609D02*
X8383433Y-21779561D01*
X8383433Y-21779561D02*
X8392957Y-21770038D01*
X8392957Y-21770038D02*
X8412005Y-21760514D01*
X8564386Y-21941466D02*
X8573909Y-21950990D01*
X8573909Y-21950990D02*
X8564386Y-21960514D01*
X8564386Y-21960514D02*
X8554862Y-21950990D01*
X8554862Y-21950990D02*
X8564386Y-21941466D01*
X8564386Y-21941466D02*
X8564386Y-21960514D01*
X8697719Y-21760514D02*
X8716767Y-21760514D01*
X8716767Y-21760514D02*
X8735814Y-21770038D01*
X8735814Y-21770038D02*
X8745338Y-21779561D01*
X8745338Y-21779561D02*
X8754862Y-21798609D01*
X8754862Y-21798609D02*
X8764386Y-21836704D01*
X8764386Y-21836704D02*
X8764386Y-21884323D01*
X8764386Y-21884323D02*
X8754862Y-21922419D01*
X8754862Y-21922419D02*
X8745338Y-21941466D01*
X8745338Y-21941466D02*
X8735814Y-21950990D01*
X8735814Y-21950990D02*
X8716767Y-21960514D01*
X8716767Y-21960514D02*
X8697719Y-21960514D01*
X8697719Y-21960514D02*
X8678671Y-21950990D01*
X8678671Y-21950990D02*
X8669148Y-21941466D01*
X8669148Y-21941466D02*
X8659624Y-21922419D01*
X8659624Y-21922419D02*
X8650100Y-21884323D01*
X8650100Y-21884323D02*
X8650100Y-21836704D01*
X8650100Y-21836704D02*
X8659624Y-21798609D01*
X8659624Y-21798609D02*
X8669148Y-21779561D01*
X8669148Y-21779561D02*
X8678671Y-21770038D01*
X8678671Y-21770038D02*
X8697719Y-21760514D01*
X8878671Y-21846228D02*
X8859624Y-21836704D01*
X8859624Y-21836704D02*
X8850100Y-21827180D01*
X8850100Y-21827180D02*
X8840576Y-21808133D01*
X8840576Y-21808133D02*
X8840576Y-21798609D01*
X8840576Y-21798609D02*
X8850100Y-21779561D01*
X8850100Y-21779561D02*
X8859624Y-21770038D01*
X8859624Y-21770038D02*
X8878671Y-21760514D01*
X8878671Y-21760514D02*
X8916767Y-21760514D01*
X8916767Y-21760514D02*
X8935814Y-21770038D01*
X8935814Y-21770038D02*
X8945338Y-21779561D01*
X8945338Y-21779561D02*
X8954862Y-21798609D01*
X8954862Y-21798609D02*
X8954862Y-21808133D01*
X8954862Y-21808133D02*
X8945338Y-21827180D01*
X8945338Y-21827180D02*
X8935814Y-21836704D01*
X8935814Y-21836704D02*
X8916767Y-21846228D01*
X8916767Y-21846228D02*
X8878671Y-21846228D01*
X8878671Y-21846228D02*
X8859624Y-21855752D01*
X8859624Y-21855752D02*
X8850100Y-21865276D01*
X8850100Y-21865276D02*
X8840576Y-21884323D01*
X8840576Y-21884323D02*
X8840576Y-21922419D01*
X8840576Y-21922419D02*
X8850100Y-21941466D01*
X8850100Y-21941466D02*
X8859624Y-21950990D01*
X8859624Y-21950990D02*
X8878671Y-21960514D01*
X8878671Y-21960514D02*
X8916767Y-21960514D01*
X8916767Y-21960514D02*
X8935814Y-21950990D01*
X8935814Y-21950990D02*
X8945338Y-21941466D01*
X8945338Y-21941466D02*
X8954862Y-21922419D01*
X8954862Y-21922419D02*
X8954862Y-21884323D01*
X8954862Y-21884323D02*
X8945338Y-21865276D01*
X8945338Y-21865276D02*
X8935814Y-21855752D01*
X8935814Y-21855752D02*
X8916767Y-21846228D01*
X9126290Y-21760514D02*
X9088195Y-21760514D01*
X9088195Y-21760514D02*
X9069148Y-21770038D01*
X9069148Y-21770038D02*
X9059624Y-21779561D01*
X9059624Y-21779561D02*
X9040576Y-21808133D01*
X9040576Y-21808133D02*
X9031052Y-21846228D01*
X9031052Y-21846228D02*
X9031052Y-21922419D01*
X9031052Y-21922419D02*
X9040576Y-21941466D01*
X9040576Y-21941466D02*
X9050100Y-21950990D01*
X9050100Y-21950990D02*
X9069148Y-21960514D01*
X9069148Y-21960514D02*
X9107243Y-21960514D01*
X9107243Y-21960514D02*
X9126290Y-21950990D01*
X9126290Y-21950990D02*
X9135814Y-21941466D01*
X9135814Y-21941466D02*
X9145338Y-21922419D01*
X9145338Y-21922419D02*
X9145338Y-21874800D01*
X9145338Y-21874800D02*
X9135814Y-21855752D01*
X9135814Y-21855752D02*
X9126290Y-21846228D01*
X9126290Y-21846228D02*
X9107243Y-21836704D01*
X9107243Y-21836704D02*
X9069148Y-21836704D01*
X9069148Y-21836704D02*
X9050100Y-21846228D01*
X9050100Y-21846228D02*
X9040576Y-21855752D01*
X9040576Y-21855752D02*
X9031052Y-21874800D01*
X9316767Y-21760514D02*
X9278671Y-21760514D01*
X9278671Y-21760514D02*
X9259624Y-21770038D01*
X9259624Y-21770038D02*
X9250100Y-21779561D01*
X9250100Y-21779561D02*
X9231052Y-21808133D01*
X9231052Y-21808133D02*
X9221529Y-21846228D01*
X9221529Y-21846228D02*
X9221529Y-21922419D01*
X9221529Y-21922419D02*
X9231052Y-21941466D01*
X9231052Y-21941466D02*
X9240576Y-21950990D01*
X9240576Y-21950990D02*
X9259624Y-21960514D01*
X9259624Y-21960514D02*
X9297719Y-21960514D01*
X9297719Y-21960514D02*
X9316767Y-21950990D01*
X9316767Y-21950990D02*
X9326290Y-21941466D01*
X9326290Y-21941466D02*
X9335814Y-21922419D01*
X9335814Y-21922419D02*
X9335814Y-21874800D01*
X9335814Y-21874800D02*
X9326290Y-21855752D01*
X9326290Y-21855752D02*
X9316767Y-21846228D01*
X9316767Y-21846228D02*
X9297719Y-21836704D01*
X9297719Y-21836704D02*
X9259624Y-21836704D01*
X9259624Y-21836704D02*
X9240576Y-21846228D01*
X9240576Y-21846228D02*
X9231052Y-21855752D01*
X9231052Y-21855752D02*
X9221529Y-21874800D01*
X9412005Y-21760514D02*
X9412005Y-21798609D01*
X9488195Y-21760514D02*
X9488195Y-21798609D01*
X9783433Y-22036704D02*
X9773910Y-22027180D01*
X9773910Y-22027180D02*
X9754862Y-21998609D01*
X9754862Y-21998609D02*
X9745338Y-21979561D01*
X9745338Y-21979561D02*
X9735814Y-21950990D01*
X9735814Y-21950990D02*
X9726291Y-21903371D01*
X9726291Y-21903371D02*
X9726291Y-21865276D01*
X9726291Y-21865276D02*
X9735814Y-21817657D01*
X9735814Y-21817657D02*
X9745338Y-21789085D01*
X9745338Y-21789085D02*
X9754862Y-21770038D01*
X9754862Y-21770038D02*
X9773910Y-21741466D01*
X9773910Y-21741466D02*
X9783433Y-21731942D01*
X9888195Y-21846228D02*
X9869148Y-21836704D01*
X9869148Y-21836704D02*
X9859624Y-21827180D01*
X9859624Y-21827180D02*
X9850100Y-21808133D01*
X9850100Y-21808133D02*
X9850100Y-21798609D01*
X9850100Y-21798609D02*
X9859624Y-21779561D01*
X9859624Y-21779561D02*
X9869148Y-21770038D01*
X9869148Y-21770038D02*
X9888195Y-21760514D01*
X9888195Y-21760514D02*
X9926291Y-21760514D01*
X9926291Y-21760514D02*
X9945338Y-21770038D01*
X9945338Y-21770038D02*
X9954862Y-21779561D01*
X9954862Y-21779561D02*
X9964386Y-21798609D01*
X9964386Y-21798609D02*
X9964386Y-21808133D01*
X9964386Y-21808133D02*
X9954862Y-21827180D01*
X9954862Y-21827180D02*
X9945338Y-21836704D01*
X9945338Y-21836704D02*
X9926291Y-21846228D01*
X9926291Y-21846228D02*
X9888195Y-21846228D01*
X9888195Y-21846228D02*
X9869148Y-21855752D01*
X9869148Y-21855752D02*
X9859624Y-21865276D01*
X9859624Y-21865276D02*
X9850100Y-21884323D01*
X9850100Y-21884323D02*
X9850100Y-21922419D01*
X9850100Y-21922419D02*
X9859624Y-21941466D01*
X9859624Y-21941466D02*
X9869148Y-21950990D01*
X9869148Y-21950990D02*
X9888195Y-21960514D01*
X9888195Y-21960514D02*
X9926291Y-21960514D01*
X9926291Y-21960514D02*
X9945338Y-21950990D01*
X9945338Y-21950990D02*
X9954862Y-21941466D01*
X9954862Y-21941466D02*
X9964386Y-21922419D01*
X9964386Y-21922419D02*
X9964386Y-21884323D01*
X9964386Y-21884323D02*
X9954862Y-21865276D01*
X9954862Y-21865276D02*
X9945338Y-21855752D01*
X9945338Y-21855752D02*
X9926291Y-21846228D01*
X10202481Y-21960514D02*
X10202481Y-21760514D01*
X10288195Y-21960514D02*
X10288195Y-21855752D01*
X10288195Y-21855752D02*
X10278672Y-21836704D01*
X10278672Y-21836704D02*
X10259624Y-21827180D01*
X10259624Y-21827180D02*
X10231052Y-21827180D01*
X10231052Y-21827180D02*
X10212005Y-21836704D01*
X10212005Y-21836704D02*
X10202481Y-21846228D01*
X10412005Y-21960514D02*
X10392957Y-21950990D01*
X10392957Y-21950990D02*
X10383433Y-21941466D01*
X10383433Y-21941466D02*
X10373910Y-21922419D01*
X10373910Y-21922419D02*
X10373910Y-21865276D01*
X10373910Y-21865276D02*
X10383433Y-21846228D01*
X10383433Y-21846228D02*
X10392957Y-21836704D01*
X10392957Y-21836704D02*
X10412005Y-21827180D01*
X10412005Y-21827180D02*
X10440576Y-21827180D01*
X10440576Y-21827180D02*
X10459624Y-21836704D01*
X10459624Y-21836704D02*
X10469148Y-21846228D01*
X10469148Y-21846228D02*
X10478672Y-21865276D01*
X10478672Y-21865276D02*
X10478672Y-21922419D01*
X10478672Y-21922419D02*
X10469148Y-21941466D01*
X10469148Y-21941466D02*
X10459624Y-21950990D01*
X10459624Y-21950990D02*
X10440576Y-21960514D01*
X10440576Y-21960514D02*
X10412005Y-21960514D01*
X10592957Y-21960514D02*
X10573910Y-21950990D01*
X10573910Y-21950990D02*
X10564386Y-21931942D01*
X10564386Y-21931942D02*
X10564386Y-21760514D01*
X10745338Y-21950990D02*
X10726291Y-21960514D01*
X10726291Y-21960514D02*
X10688195Y-21960514D01*
X10688195Y-21960514D02*
X10669148Y-21950990D01*
X10669148Y-21950990D02*
X10659624Y-21931942D01*
X10659624Y-21931942D02*
X10659624Y-21855752D01*
X10659624Y-21855752D02*
X10669148Y-21836704D01*
X10669148Y-21836704D02*
X10688195Y-21827180D01*
X10688195Y-21827180D02*
X10726291Y-21827180D01*
X10726291Y-21827180D02*
X10745338Y-21836704D01*
X10745338Y-21836704D02*
X10754862Y-21855752D01*
X10754862Y-21855752D02*
X10754862Y-21874800D01*
X10754862Y-21874800D02*
X10659624Y-21893847D01*
X10831053Y-21950990D02*
X10850100Y-21960514D01*
X10850100Y-21960514D02*
X10888195Y-21960514D01*
X10888195Y-21960514D02*
X10907243Y-21950990D01*
X10907243Y-21950990D02*
X10916767Y-21931942D01*
X10916767Y-21931942D02*
X10916767Y-21922419D01*
X10916767Y-21922419D02*
X10907243Y-21903371D01*
X10907243Y-21903371D02*
X10888195Y-21893847D01*
X10888195Y-21893847D02*
X10859624Y-21893847D01*
X10859624Y-21893847D02*
X10840576Y-21884323D01*
X10840576Y-21884323D02*
X10831053Y-21865276D01*
X10831053Y-21865276D02*
X10831053Y-21855752D01*
X10831053Y-21855752D02*
X10840576Y-21836704D01*
X10840576Y-21836704D02*
X10859624Y-21827180D01*
X10859624Y-21827180D02*
X10888195Y-21827180D01*
X10888195Y-21827180D02*
X10907243Y-21836704D01*
X10983434Y-22036704D02*
X10992957Y-22027180D01*
X10992957Y-22027180D02*
X11012005Y-21998609D01*
X11012005Y-21998609D02*
X11021529Y-21979561D01*
X11021529Y-21979561D02*
X11031053Y-21950990D01*
X11031053Y-21950990D02*
X11040576Y-21903371D01*
X11040576Y-21903371D02*
X11040576Y-21865276D01*
X11040576Y-21865276D02*
X11031053Y-21817657D01*
X11031053Y-21817657D02*
X11021529Y-21789085D01*
X11021529Y-21789085D02*
X11012005Y-21770038D01*
X11012005Y-21770038D02*
X10992957Y-21741466D01*
X10992957Y-21741466D02*
X10983434Y-21731942D01*
M02*
