%TF.GenerationSoftware,KiCad,Pcbnew,7.0.1-0*%
%TF.CreationDate,2023-04-15T20:18:31-04:00*%
%TF.ProjectId,plate,706c6174-652e-46b6-9963-61645f706362,rev?*%
%TF.SameCoordinates,Original*%
%TF.FileFunction,Profile,NP*%
%FSLAX46Y46*%
G04 Gerber Fmt 4.6, Leading zero omitted, Abs format (unit mm)*
G04 Created by KiCad (PCBNEW 7.0.1-0) date 2023-04-15 20:18:31*
%MOMM*%
%LPD*%
G01*
G04 APERTURE LIST*
%ADD10C,0.200000*%
%TA.AperFunction,Profile*%
%ADD11C,0.120000*%
%TD*%
G04 APERTURE END LIST*
D10*
X253674009Y-109227386D02*
X251585459Y-110400532D01*
X249565837Y-111559740D01*
X247612921Y-112703481D01*
X245724487Y-113830226D01*
X243898311Y-114938449D01*
X242132169Y-116026619D01*
X240423838Y-117093209D01*
X238771095Y-118136691D01*
X237171716Y-119155537D01*
X235623477Y-120148218D01*
X234124156Y-121113206D01*
X232671527Y-122048973D01*
X231263369Y-122953990D01*
X229897458Y-123826730D01*
X228571569Y-124665664D01*
X227283480Y-125469263D01*
X226030966Y-126236000D01*
X224811806Y-126964346D01*
X223623774Y-127652774D01*
X222464647Y-128299754D01*
X221332202Y-128903759D01*
X220224216Y-129463260D01*
X219138464Y-129976729D01*
X218072724Y-130442638D01*
X217024772Y-130859459D01*
X215992383Y-131225663D01*
X214973336Y-131539722D01*
X213965406Y-131800108D01*
X212966370Y-132005293D01*
X211974004Y-132153748D01*
X210986085Y-132243945D01*
X210000389Y-132274356D01*
X331458649Y-91516060D02*
X329510480Y-90689149D01*
X327482475Y-89999610D01*
X325379503Y-89442611D01*
X323206436Y-89013321D01*
X320968143Y-88706907D01*
X318669494Y-88518540D01*
X316315360Y-88443386D01*
X313910609Y-88476616D01*
X311460113Y-88613397D01*
X308968741Y-88848898D01*
X306441363Y-89178288D01*
X303882850Y-89596735D01*
X301298072Y-90099408D01*
X298691898Y-90681476D01*
X296069198Y-91338107D01*
X293434844Y-92064470D01*
X290793703Y-92855733D01*
X288150648Y-93707066D01*
X285510548Y-94613635D01*
X282878272Y-95570612D01*
X280258692Y-96573163D01*
X277656676Y-97616457D01*
X275077096Y-98695663D01*
X272524820Y-99805951D01*
X270004720Y-100942487D01*
X267521665Y-102100441D01*
X265080526Y-103274982D01*
X262686171Y-104461278D01*
X260343472Y-105654498D01*
X258057299Y-106849810D01*
X255832521Y-108042383D01*
X253674009Y-109227386D01*
X348402249Y-148145486D02*
X349227141Y-146846903D01*
X349963389Y-145435745D01*
X350611117Y-143920230D01*
X351170454Y-142308577D01*
X351641526Y-140609004D01*
X352024458Y-138829729D01*
X352319378Y-136978970D01*
X352526412Y-135064945D01*
X352645688Y-133095873D01*
X352677330Y-131079972D01*
X352621467Y-129025460D01*
X352478225Y-126940555D01*
X352247729Y-124833476D01*
X351930108Y-122712440D01*
X351525486Y-120585667D01*
X351033992Y-118461373D01*
X350455752Y-116347778D01*
X349790891Y-114253100D01*
X349039537Y-112185557D01*
X348201817Y-110153367D01*
X347277856Y-108164748D01*
X346267782Y-106227918D01*
X345171721Y-104351097D01*
X343989800Y-102542501D01*
X342722145Y-100810350D01*
X341368883Y-99162861D01*
X339930140Y-97608253D01*
X338406044Y-96154743D01*
X336796719Y-94810551D01*
X335102294Y-93583894D01*
X333322895Y-92482991D01*
X331458649Y-91516060D01*
X304193499Y-156615866D02*
X305219209Y-156396439D01*
X306321074Y-156230227D01*
X307493774Y-156111618D01*
X308731989Y-156034998D01*
X310030399Y-155994752D01*
X311383684Y-155985267D01*
X312786524Y-156000929D01*
X314233599Y-156036126D01*
X315719590Y-156085242D01*
X317239176Y-156142665D01*
X318787038Y-156202781D01*
X320357855Y-156259976D01*
X321946308Y-156308637D01*
X323547077Y-156343149D01*
X325154842Y-156357900D01*
X326764284Y-156347276D01*
X328370081Y-156305662D01*
X329966914Y-156227445D01*
X331549464Y-156107013D01*
X333112410Y-155938750D01*
X334650433Y-155717043D01*
X336158213Y-155436279D01*
X337630429Y-155090845D01*
X339061763Y-154675125D01*
X340446893Y-154183508D01*
X341780500Y-153610378D01*
X343057265Y-152950123D01*
X344271866Y-152197128D01*
X345418986Y-151345781D01*
X346493302Y-150390467D01*
X347489497Y-149325573D01*
X348402249Y-148145486D01*
X291725259Y-185893276D02*
X292201330Y-184589565D01*
X292630365Y-183294868D01*
X293016511Y-182010792D01*
X293363913Y-180738944D01*
X293676718Y-179480931D01*
X293959070Y-178238359D01*
X294215116Y-177012836D01*
X294449002Y-175805969D01*
X294664873Y-174619365D01*
X294866876Y-173454629D01*
X295059156Y-172313371D01*
X295245860Y-171197195D01*
X295431133Y-170107710D01*
X295619121Y-169046522D01*
X295813970Y-168015238D01*
X296019826Y-167015466D01*
X296240835Y-166048811D01*
X296481142Y-165116881D01*
X296744894Y-164221283D01*
X297036236Y-163363624D01*
X297359314Y-162545511D01*
X297718275Y-161768550D01*
X298117264Y-161034349D01*
X298560427Y-160344514D01*
X299051909Y-159700653D01*
X299595858Y-159104373D01*
X300196418Y-158557279D01*
X300857735Y-158060980D01*
X301583956Y-157617082D01*
X302379226Y-157227193D01*
X303247692Y-156892918D01*
X304193499Y-156615866D01*
X257226229Y-210180746D02*
X258636554Y-210579448D01*
X260039609Y-210864368D01*
X261433977Y-211039415D01*
X262818242Y-211108499D01*
X264190988Y-211075529D01*
X265550797Y-210944413D01*
X266896255Y-210719062D01*
X268225944Y-210403385D01*
X269538447Y-210001290D01*
X270832349Y-209516687D01*
X272106233Y-208953486D01*
X273358684Y-208315596D01*
X274588283Y-207606925D01*
X275793615Y-206831383D01*
X276973264Y-205992880D01*
X278125814Y-205095324D01*
X279249847Y-204142626D01*
X280343947Y-203138693D01*
X281406699Y-202087436D01*
X282436685Y-200992764D01*
X283432489Y-199858585D01*
X284392696Y-198688810D01*
X285315887Y-197487348D01*
X286200649Y-196258107D01*
X287045562Y-195004997D01*
X287849212Y-193731928D01*
X288610182Y-192442808D01*
X289327056Y-191141547D01*
X289998417Y-189832053D01*
X290622848Y-188518238D01*
X291198934Y-187204009D01*
X291725259Y-185893276D01*
X210000309Y-180348336D02*
X211507294Y-180420094D01*
X213014091Y-180629846D01*
X214520518Y-180969345D01*
X216026392Y-181430342D01*
X217531530Y-182004590D01*
X219035751Y-182683841D01*
X220538873Y-183459847D01*
X222040712Y-184324360D01*
X223541086Y-185269133D01*
X225039814Y-186285918D01*
X226536713Y-187366467D01*
X228031600Y-188502533D01*
X229524294Y-189685867D01*
X231014612Y-190908222D01*
X232502372Y-192161351D01*
X233987391Y-193437004D01*
X235469487Y-194726936D01*
X236948479Y-196022897D01*
X238424182Y-197316640D01*
X239896416Y-198599918D01*
X241364998Y-199864482D01*
X242829746Y-201102085D01*
X244290477Y-202304479D01*
X245747009Y-203463417D01*
X247199160Y-204570650D01*
X248646747Y-205617931D01*
X250089589Y-206597011D01*
X251527502Y-207499645D01*
X252960305Y-208317582D01*
X254387815Y-209042577D01*
X255809851Y-209666381D01*
X257226229Y-210180746D01*
X162774529Y-210180486D02*
X164190915Y-209666099D01*
X165612956Y-209042276D01*
X167040471Y-208317265D01*
X168473277Y-207499313D01*
X169911192Y-206596669D01*
X171354033Y-205617579D01*
X172801619Y-204570292D01*
X174253767Y-203463055D01*
X175710295Y-202304116D01*
X177171021Y-201101722D01*
X178635763Y-199864121D01*
X180104338Y-198599561D01*
X181576564Y-197316290D01*
X183052260Y-196022555D01*
X184531242Y-194726603D01*
X186013330Y-193436683D01*
X187498340Y-192161042D01*
X188986090Y-190907928D01*
X190476398Y-189685588D01*
X191969083Y-188502270D01*
X193463961Y-187366223D01*
X194960851Y-186285692D01*
X196459570Y-185268927D01*
X197959937Y-184324175D01*
X199461769Y-183459683D01*
X200964883Y-182683699D01*
X202469099Y-182004471D01*
X203974232Y-181430246D01*
X205480102Y-180969273D01*
X206986527Y-180629798D01*
X208493323Y-180420070D01*
X210000309Y-180348336D01*
X128275149Y-185893176D02*
X128801491Y-187203913D01*
X129377594Y-188518147D01*
X130002043Y-189831967D01*
X130673419Y-191141464D01*
X131390308Y-192442729D01*
X132151293Y-193731852D01*
X132954957Y-195004924D01*
X133799884Y-196258037D01*
X134684657Y-197487280D01*
X135607861Y-198688744D01*
X136568079Y-199858520D01*
X137563895Y-200992698D01*
X138593891Y-202087370D01*
X139656653Y-203138626D01*
X140750763Y-204142557D01*
X141874806Y-205095253D01*
X143027364Y-205992805D01*
X144207022Y-206831304D01*
X145412364Y-207606840D01*
X146641972Y-208315505D01*
X147894430Y-208953388D01*
X149168323Y-209516581D01*
X150462233Y-210001174D01*
X151774745Y-210403258D01*
X153104442Y-210718924D01*
X154449907Y-210944261D01*
X155809725Y-211075362D01*
X157182479Y-211108317D01*
X158566753Y-211039216D01*
X159961130Y-210864150D01*
X161364194Y-210579209D01*
X162774529Y-210180486D01*
X115806689Y-156616136D02*
X116752483Y-156893180D01*
X117620938Y-157227445D01*
X118416199Y-157617323D01*
X119142413Y-158061209D01*
X119803725Y-158557495D01*
X120404281Y-159104574D01*
X120948226Y-159700839D01*
X121439708Y-160344684D01*
X121882870Y-161034502D01*
X122281861Y-161768687D01*
X122640824Y-162545630D01*
X122963907Y-163363726D01*
X123255254Y-164221367D01*
X123519012Y-165116948D01*
X123759326Y-166048860D01*
X123980344Y-167015498D01*
X124186209Y-168015254D01*
X124381068Y-169046522D01*
X124569067Y-170107694D01*
X124754352Y-171197165D01*
X124941069Y-172313326D01*
X125133363Y-173454573D01*
X125335380Y-174619296D01*
X125551267Y-175805891D01*
X125785168Y-177012749D01*
X126041231Y-178238264D01*
X126323600Y-179480830D01*
X126636421Y-180738839D01*
X126983841Y-182010685D01*
X127370005Y-183294761D01*
X127799059Y-184589460D01*
X128275149Y-185893176D01*
X71597296Y-148147166D02*
X72510010Y-149327172D01*
X73506175Y-150391987D01*
X74580472Y-151347225D01*
X75727580Y-152198498D01*
X76942178Y-152951422D01*
X78218946Y-153611608D01*
X79552563Y-154184671D01*
X80937709Y-154676225D01*
X82369064Y-155091883D01*
X83841306Y-155437259D01*
X85349116Y-155717966D01*
X86887174Y-155939618D01*
X88450157Y-156107829D01*
X90032747Y-156228212D01*
X91629623Y-156306382D01*
X93235464Y-156347951D01*
X94844949Y-156358533D01*
X96452759Y-156343742D01*
X98053572Y-156309192D01*
X99642070Y-156260496D01*
X101212929Y-156203267D01*
X102760832Y-156143121D01*
X104280456Y-156085669D01*
X105766482Y-156036526D01*
X107213589Y-156001306D01*
X108616457Y-155985621D01*
X109969764Y-155995087D01*
X111268192Y-156035315D01*
X112506418Y-156111921D01*
X113679123Y-156230517D01*
X114780987Y-156396717D01*
X115806689Y-156616136D01*
X88541792Y-91515875D02*
X86677522Y-92482812D01*
X84898101Y-93583737D01*
X83203653Y-94810429D01*
X81594307Y-96154669D01*
X80070188Y-97608238D01*
X78631423Y-99162916D01*
X77278139Y-100810484D01*
X76010462Y-102542722D01*
X74828518Y-104351412D01*
X73732434Y-106228333D01*
X72722337Y-108165267D01*
X71798353Y-110153993D01*
X70960609Y-112186293D01*
X70209231Y-114253947D01*
X69544346Y-116348736D01*
X68966080Y-118462440D01*
X68474560Y-120586840D01*
X68069912Y-122713717D01*
X67752263Y-124834851D01*
X67521740Y-126942023D01*
X67378468Y-129027012D01*
X67322575Y-131081601D01*
X67354187Y-133097570D01*
X67473430Y-135066698D01*
X67680431Y-136980768D01*
X67975317Y-138831558D01*
X68358214Y-140610851D01*
X68829249Y-142310426D01*
X69388548Y-143922065D01*
X70036238Y-145437547D01*
X70772445Y-146848654D01*
X71597296Y-148147166D01*
X166326929Y-109227336D02*
X164168415Y-108042323D01*
X161943635Y-106849741D01*
X159657458Y-105654421D01*
X157314755Y-104461193D01*
X154920394Y-103274890D01*
X152479247Y-102100342D01*
X149996184Y-100942381D01*
X147476074Y-99805838D01*
X144923788Y-98695545D01*
X142344195Y-97616333D01*
X139742167Y-96573033D01*
X137122573Y-95570478D01*
X134490282Y-94613497D01*
X131850166Y-93706923D01*
X129207095Y-92855587D01*
X126565938Y-92064320D01*
X123931565Y-91337954D01*
X121308847Y-90681320D01*
X118702654Y-90099249D01*
X116117856Y-89596574D01*
X113559322Y-89178124D01*
X111031924Y-88848732D01*
X108540531Y-88613228D01*
X106090013Y-88476445D01*
X103685240Y-88443214D01*
X101331083Y-88518365D01*
X99032412Y-88706731D01*
X96794096Y-89013143D01*
X94621006Y-89442432D01*
X92518012Y-89999429D01*
X90489984Y-90688966D01*
X88541792Y-91515875D01*
X210000389Y-132274356D02*
X209014693Y-132243960D01*
X208026775Y-132153776D01*
X207034411Y-132005334D01*
X206035378Y-131800160D01*
X205027451Y-131539783D01*
X204008408Y-131225732D01*
X202976025Y-130859534D01*
X201928078Y-130442719D01*
X200862344Y-129976814D01*
X199776598Y-129463348D01*
X198668619Y-128903849D01*
X197536181Y-128299845D01*
X196377061Y-127652864D01*
X195189037Y-126964435D01*
X193969883Y-126236087D01*
X192717377Y-125469347D01*
X191429295Y-124665743D01*
X190103414Y-123826805D01*
X188737510Y-122954060D01*
X187329359Y-122049036D01*
X185876738Y-121113263D01*
X184377423Y-120148267D01*
X182829190Y-119155578D01*
X181229817Y-118136724D01*
X179577079Y-117093233D01*
X177868753Y-116026633D01*
X176102616Y-114938452D01*
X174276443Y-113830220D01*
X172388012Y-112703464D01*
X170435098Y-111559712D01*
X168415478Y-110400493D01*
X166326929Y-109227336D01*
D11*
X163176635Y-183488617D02*
X172111383Y-194136635D01*
X152528617Y-192423365D02*
X163176635Y-183488617D01*
X172111383Y-194136635D02*
X161463365Y-203071383D01*
X161463365Y-203071383D02*
X152528617Y-192423365D01*
X140623250Y-171670537D02*
X152009463Y-179643250D01*
X132650537Y-183056750D02*
X140623250Y-171670537D01*
X152009463Y-179643250D02*
X144036750Y-191029463D01*
X144036750Y-191029463D02*
X132650537Y-183056750D01*
X247888617Y-194136635D02*
X256823365Y-183488617D01*
X258536635Y-203071383D02*
X247888617Y-194136635D01*
X256823365Y-183488617D02*
X267471383Y-192423365D01*
X267471383Y-192423365D02*
X258536635Y-203071383D01*
X268000537Y-179643250D02*
X279386750Y-171670537D01*
X275973250Y-191029463D02*
X268000537Y-179643250D01*
X279386750Y-171670537D02*
X287359463Y-183056750D01*
X287359463Y-183056750D02*
X275973250Y-191029463D01*
X270892096Y-148756176D02*
X283953824Y-144002096D01*
X275646176Y-161817904D02*
X270892096Y-148756176D01*
X283953824Y-144002096D02*
X288707904Y-157063824D01*
X288707904Y-157063824D02*
X275646176Y-161817904D01*
X257892096Y-113046176D02*
X270953824Y-108292096D01*
X262646176Y-126107904D02*
X257892096Y-113046176D01*
X270953824Y-108292096D02*
X275707904Y-121353824D01*
X275707904Y-121353824D02*
X262646176Y-126107904D01*
X313872096Y-100136176D02*
X326933824Y-95382096D01*
X318626176Y-113197904D02*
X313872096Y-100136176D01*
X326933824Y-95382096D02*
X331687904Y-108443824D01*
X331687904Y-108443824D02*
X318626176Y-113197904D01*
X241422096Y-123286176D02*
X254483824Y-118532096D01*
X246176176Y-136347904D02*
X241422096Y-123286176D01*
X254483824Y-118532096D02*
X259237904Y-131593824D01*
X259237904Y-131593824D02*
X246176176Y-136347904D01*
X293602096Y-100046176D02*
X306663824Y-95292096D01*
X298356176Y-113107904D02*
X293602096Y-100046176D01*
X306663824Y-95292096D02*
X311417904Y-108353824D01*
X311417904Y-108353824D02*
X298356176Y-113107904D01*
X300102096Y-117886176D02*
X313163824Y-113132096D01*
X304856176Y-130947904D02*
X300102096Y-117886176D01*
X313163824Y-113132096D02*
X317917904Y-126193824D01*
X317917904Y-126193824D02*
X304856176Y-130947904D01*
X247922096Y-141156176D02*
X260983824Y-136402096D01*
X252676176Y-154217904D02*
X247922096Y-141156176D01*
X260983824Y-136402096D02*
X265737904Y-149463824D01*
X265737904Y-149463824D02*
X252676176Y-154217904D01*
X264392096Y-130896176D02*
X277453824Y-126142096D01*
X269146176Y-143957904D02*
X264392096Y-130896176D01*
X277453824Y-126142096D02*
X282207904Y-139203824D01*
X282207904Y-139203824D02*
X269146176Y-143957904D01*
X320362096Y-117976176D02*
X333423824Y-113222096D01*
X325116176Y-131037904D02*
X320362096Y-117976176D01*
X333423824Y-113222096D02*
X338177904Y-126283824D01*
X338177904Y-126283824D02*
X325116176Y-131037904D01*
X287722096Y-139436176D02*
X300783824Y-134682096D01*
X292476176Y-152497904D02*
X287722096Y-139436176D01*
X300783824Y-134682096D02*
X305537904Y-147743824D01*
X305537904Y-147743824D02*
X292476176Y-152497904D01*
X326852096Y-135836176D02*
X339913824Y-131082096D01*
X331606176Y-148897904D02*
X326852096Y-135836176D01*
X339913824Y-131082096D02*
X344667904Y-144143824D01*
X344667904Y-144143824D02*
X331606176Y-148897904D01*
X306602096Y-135756176D02*
X319663824Y-131002096D01*
X311356176Y-148817904D02*
X306602096Y-135756176D01*
X319663824Y-131002096D02*
X324417904Y-144063824D01*
X324417904Y-144063824D02*
X311356176Y-148817904D01*
X254422096Y-159016176D02*
X267483824Y-154262096D01*
X259176176Y-172077904D02*
X254422096Y-159016176D01*
X267483824Y-154262096D02*
X272237904Y-167323824D01*
X272237904Y-167323824D02*
X259176176Y-172077904D01*
X274742096Y-103726176D02*
X287803824Y-98972096D01*
X279496176Y-116787904D02*
X274742096Y-103726176D01*
X287803824Y-98972096D02*
X292557904Y-112033824D01*
X292557904Y-112033824D02*
X279496176Y-116787904D01*
X149046176Y-108292096D02*
X162107904Y-113046176D01*
X144292096Y-121353824D02*
X149046176Y-108292096D01*
X162107904Y-113046176D02*
X157353824Y-126107904D01*
X157353824Y-126107904D02*
X144292096Y-121353824D01*
X165526176Y-118542096D02*
X178587904Y-123296176D01*
X160772096Y-131603824D02*
X165526176Y-118542096D01*
X178587904Y-123296176D02*
X173833824Y-136357904D01*
X173833824Y-136357904D02*
X160772096Y-131603824D01*
X93086176Y-95372096D02*
X106147904Y-100126176D01*
X88332096Y-108433824D02*
X93086176Y-95372096D01*
X106147904Y-100126176D02*
X101393824Y-113187904D01*
X101393824Y-113187904D02*
X88332096Y-108433824D01*
X132206176Y-98972096D02*
X145267904Y-103726176D01*
X127452096Y-112033824D02*
X132206176Y-98972096D01*
X145267904Y-103726176D02*
X140513824Y-116787904D01*
X140513824Y-116787904D02*
X127452096Y-112033824D01*
X113336176Y-95282096D02*
X126397904Y-100036176D01*
X108582096Y-108343824D02*
X113336176Y-95282096D01*
X126397904Y-100036176D02*
X121643824Y-113097904D01*
X121643824Y-113097904D02*
X108582096Y-108343824D01*
X159016176Y-136412096D02*
X172077904Y-141166176D01*
X154262096Y-149473824D02*
X159016176Y-136412096D01*
X172077904Y-141166176D02*
X167323824Y-154227904D01*
X167323824Y-154227904D02*
X154262096Y-149473824D01*
X125726176Y-116822096D02*
X138787904Y-121576176D01*
X120972096Y-129883824D02*
X125726176Y-116822096D01*
X138787904Y-121576176D02*
X134033824Y-134637904D01*
X134033824Y-134637904D02*
X120972096Y-129883824D01*
X142526176Y-126162096D02*
X155587904Y-130916176D01*
X137772096Y-139223824D02*
X142526176Y-126162096D01*
X155587904Y-130916176D02*
X150833824Y-143977904D01*
X150833824Y-143977904D02*
X137772096Y-139223824D01*
X106836176Y-113152096D02*
X119897904Y-117906176D01*
X102082096Y-126213824D02*
X106836176Y-113152096D01*
X119897904Y-117906176D02*
X115143824Y-130967904D01*
X115143824Y-130967904D02*
X102082096Y-126213824D01*
X86586176Y-113222096D02*
X99647904Y-117976176D01*
X81832096Y-126283824D02*
X86586176Y-113222096D01*
X99647904Y-117976176D02*
X94893824Y-131037904D01*
X94893824Y-131037904D02*
X81832096Y-126283824D01*
X80096176Y-131072096D02*
X93157904Y-135826176D01*
X75342096Y-144133824D02*
X80096176Y-131072096D01*
X93157904Y-135826176D02*
X88403824Y-148887904D01*
X88403824Y-148887904D02*
X75342096Y-144133824D01*
X100336176Y-131002096D02*
X113397904Y-135756176D01*
X95582096Y-144063824D02*
X100336176Y-131002096D01*
X113397904Y-135756176D02*
X108643824Y-148817904D01*
X108643824Y-148817904D02*
X95582096Y-144063824D01*
X119226176Y-134682096D02*
X132287904Y-139436176D01*
X114472096Y-147743824D02*
X119226176Y-134682096D01*
X132287904Y-139436176D02*
X127533824Y-152497904D01*
X127533824Y-152497904D02*
X114472096Y-147743824D01*
X152526176Y-154252096D02*
X165587904Y-159006176D01*
X147772096Y-167313824D02*
X152526176Y-154252096D01*
X165587904Y-159006176D02*
X160833824Y-172067904D01*
X160833824Y-172067904D02*
X147772096Y-167313824D01*
X299037904Y-129883824D02*
X285976176Y-134637904D01*
X294283824Y-116822096D02*
X299037904Y-129883824D01*
X285976176Y-134637904D02*
X281222096Y-121576176D01*
X281222096Y-121576176D02*
X294283824Y-116822096D01*
X136036176Y-143992096D02*
X149097904Y-148746176D01*
X131282096Y-157053824D02*
X136036176Y-143992096D01*
X149097904Y-148746176D02*
X144343824Y-161807904D01*
X144343824Y-161807904D02*
X131282096Y-157053824D01*
M02*
