M48
; DRILL file {KiCad 7.0.1-0} date 2023 May 23, Tuesday 20:01:42
; FORMAT={-:-/ absolute / metric / decimal}
; #@! TF.CreationDate,2023-05-23T20:01:42-04:00
; #@! TF.GenerationSoftware,Kicad,Pcbnew,7.0.1-0
; #@! TF.FileFunction,NonPlated,1,2,NPTH
FMAT,2
METRIC
; #@! TA.AperFunction,NonPlated,NPTH,ComponentDrill
T1C1.750
; #@! TA.AperFunction,NonPlated,NPTH,ComponentDrill
T2C4.000
%
G90
G05
T1
X79.473Y-135.375
X85.963Y-117.515
X89.02Y-138.85
X92.463Y-99.665
X95.51Y-120.99
X99.706Y-135.293
X102.01Y-103.14
X106.21Y-117.43
X109.254Y-138.767
X112.716Y-99.573
X115.757Y-120.905
X118.593Y-138.965
X122.264Y-103.047
X125.09Y-121.12
X128.14Y-142.44
X131.593Y-103.265
X134.637Y-124.595
X135.423Y-148.285
X138.159Y-175.556
X141.14Y-106.74
X141.923Y-130.43
X144.97Y-151.76
X146.481Y-181.384
X148.423Y-112.585
X151.47Y-133.905
X152.263Y-157.605
X157.97Y-116.06
X158.743Y-139.755
X159.065Y-186.508
X161.81Y-161.08
X165.243Y-121.895
X165.595Y-194.292
X168.29Y-143.23
X174.79Y-125.37
X245.197Y-125.374
X251.713Y-143.225
X254.405Y-194.292
X254.745Y-121.899
X258.203Y-161.085
X260.935Y-186.508
X261.26Y-139.75
X262.036Y-116.047
X267.75Y-157.61
X268.533Y-133.905
X271.584Y-112.573
X273.519Y-181.384
X275.03Y-151.77
X278.08Y-130.43
X278.86Y-106.72
X281.841Y-175.556
X284.577Y-148.295
X285.35Y-124.59
X288.407Y-103.245
X291.85Y-142.44
X294.897Y-121.115
X297.74Y-103.05
X301.397Y-138.965
X304.24Y-120.9
X307.287Y-99.575
X310.726Y-138.757
X313.787Y-117.425
X317.99Y-103.13
X320.274Y-135.283
X324.48Y-120.99
X327.537Y-99.655
X330.99Y-138.84
X334.027Y-117.515
X340.537Y-135.365
T2
X84.246Y-137.113
X90.736Y-119.253
X97.236Y-101.403
X104.48Y-137.03
X110.984Y-119.167
X117.49Y-101.31
X123.366Y-140.703
X129.864Y-122.857
X136.366Y-105.003
X140.196Y-150.023
X142.32Y-178.47
X146.696Y-132.167
X153.196Y-114.323
X157.036Y-159.343
X162.33Y-190.4
X163.516Y-141.493
X170.016Y-123.633
X249.971Y-123.636
X256.486Y-141.487
X257.67Y-190.4
X262.976Y-159.347
X266.81Y-114.31
X273.306Y-132.167
X277.68Y-178.47
X279.804Y-150.033
X283.634Y-104.983
X290.124Y-122.853
X296.624Y-140.703
X302.514Y-101.313
X309.014Y-119.163
X315.5Y-137.02
X322.764Y-101.393
X329.254Y-119.253
X335.764Y-137.103
T0
M30
