%TF.GenerationSoftware,KiCad,Pcbnew,7.0.1-0*%
%TF.CreationDate,2023-05-23T20:01:44-04:00*%
%TF.ProjectId,fidrildi4,66696472-696c-4646-9934-2e6b69636164,rev?*%
%TF.SameCoordinates,Original*%
%TF.FileFunction,Drillmap*%
%TF.FilePolarity,Positive*%
%FSLAX45Y45*%
G04 Gerber Fmt 4.5, Leading zero omitted, Abs format (unit mm)*
G04 Created by KiCad (PCBNEW 7.0.1-0) date 2023-05-23 20:01:44*
%MOMM*%
%LPD*%
G01*
G04 APERTURE LIST*
%ADD10C,0.200000*%
%ADD11C,0.175000*%
%ADD12C,0.400000*%
G04 APERTURE END LIST*
D10*
X29172495Y-18301494D02*
X29220102Y-18171123D01*
X29263006Y-18041653D01*
X29301620Y-17913246D01*
X29336360Y-17786061D01*
X29367641Y-17660260D01*
X29395876Y-17536002D01*
X29421481Y-17413450D01*
X29444869Y-17292763D01*
X29466456Y-17174103D01*
X29486657Y-17057629D01*
X29505885Y-16943504D01*
X29524555Y-16831886D01*
X29543082Y-16722937D01*
X29561881Y-16616819D01*
X29581366Y-16513690D01*
X29601952Y-16413713D01*
X29624053Y-16317047D01*
X29648083Y-16223854D01*
X29674458Y-16134295D01*
X29703593Y-16048529D01*
X29735900Y-15966717D01*
X29771797Y-15889021D01*
X29811695Y-15815601D01*
X29856012Y-15746618D01*
X29905160Y-15682232D01*
X29959555Y-15622604D01*
X30019611Y-15567894D01*
X30085743Y-15518264D01*
X30158365Y-15473875D01*
X30237892Y-15434886D01*
X30324738Y-15401458D01*
X30419319Y-15373753D01*
X25722592Y-20730241D02*
X25863624Y-20770111D01*
X26003930Y-20798603D01*
X26143367Y-20816108D01*
X26281793Y-20823016D01*
X26419068Y-20819719D01*
X26555049Y-20806608D01*
X26689595Y-20784073D01*
X26822563Y-20752505D01*
X26953814Y-20712295D01*
X27083204Y-20663835D01*
X27210592Y-20607515D01*
X27335837Y-20543726D01*
X27458797Y-20472859D01*
X27579331Y-20395305D01*
X27697295Y-20311454D01*
X27812550Y-20221699D01*
X27924954Y-20126429D01*
X28034364Y-20026036D01*
X28140639Y-19920910D01*
X28243638Y-19811443D01*
X28343218Y-19698025D01*
X28439239Y-19581047D01*
X28531558Y-19460901D01*
X28620034Y-19337977D01*
X28704525Y-19212666D01*
X28784890Y-19085359D01*
X28860987Y-18956447D01*
X28932675Y-18826321D01*
X28999811Y-18695372D01*
X29062254Y-18563990D01*
X29119862Y-18432567D01*
X29172495Y-18301494D01*
X21000000Y-17747000D02*
X21150699Y-17754176D01*
X21301378Y-17775151D01*
X21452021Y-17809101D01*
X21602608Y-17855201D01*
X21753122Y-17912625D01*
X21903544Y-17980551D01*
X22053856Y-18058151D01*
X22204040Y-18144602D01*
X22354078Y-18239080D01*
X22503950Y-18340758D01*
X22653640Y-18448813D01*
X22803129Y-18562420D01*
X22952398Y-18680753D01*
X23101430Y-18802989D01*
X23250206Y-18928302D01*
X23398708Y-19055867D01*
X23546918Y-19184860D01*
X23694817Y-19314456D01*
X23842387Y-19443830D01*
X23989611Y-19572158D01*
X24136469Y-19698615D01*
X24282944Y-19822375D01*
X24429017Y-19942614D01*
X24574670Y-20058508D01*
X24719885Y-20169231D01*
X24864644Y-20273960D01*
X25008928Y-20371868D01*
X25152719Y-20462131D01*
X25296000Y-20543925D01*
X25438751Y-20616424D01*
X25580954Y-20678805D01*
X25722592Y-20730241D01*
X30419319Y-15373753D02*
X30521890Y-15351810D01*
X30632076Y-15335189D01*
X30749346Y-15323328D01*
X30873168Y-15315666D01*
X31003009Y-15311642D01*
X31138337Y-15310693D01*
X31278621Y-15312259D01*
X31423329Y-15315779D01*
X31571928Y-15320691D01*
X31723887Y-15326433D01*
X31878673Y-15332444D01*
X32035755Y-15338164D01*
X32194600Y-15343030D01*
X32354677Y-15346481D01*
X32515453Y-15347956D01*
X32676397Y-15346894D01*
X32836977Y-15342733D01*
X32996660Y-15334911D01*
X33154915Y-15322868D01*
X33311210Y-15306041D01*
X33465012Y-15283871D01*
X33615790Y-15255794D01*
X33763012Y-15221251D01*
X33906145Y-15179679D01*
X34044658Y-15130517D01*
X34178019Y-15073204D01*
X34305696Y-15007179D01*
X34427156Y-14931879D01*
X34541868Y-14846744D01*
X34649299Y-14751213D01*
X34748919Y-14644724D01*
X34840194Y-14526715D01*
X12827484Y-18301484D02*
X12880118Y-18432558D01*
X12937728Y-18563981D01*
X13000173Y-18695363D01*
X13067311Y-18826313D01*
X13139000Y-18956439D01*
X13215098Y-19085352D01*
X13295465Y-19212659D01*
X13379957Y-19337970D01*
X13468435Y-19460894D01*
X13560755Y-19581041D01*
X13656777Y-19698018D01*
X13756359Y-19811436D01*
X13859358Y-19920903D01*
X13965634Y-20026029D01*
X14075045Y-20126422D01*
X14187450Y-20221692D01*
X14302705Y-20311447D01*
X14420671Y-20395297D01*
X14541205Y-20472850D01*
X14664166Y-20543717D01*
X14789412Y-20607505D01*
X14916801Y-20663825D01*
X15046192Y-20712284D01*
X15177444Y-20752492D01*
X15310413Y-20784059D01*
X15444960Y-20806593D01*
X15580942Y-20819703D01*
X15718217Y-20822998D01*
X15856644Y-20816088D01*
X15996082Y-20798581D01*
X16136388Y-20770087D01*
X16277422Y-20730215D01*
X8854148Y-8847092D02*
X8667721Y-8945299D01*
X8489779Y-9056811D01*
X8320334Y-9180808D01*
X8159400Y-9316471D01*
X8006988Y-9462982D01*
X7863111Y-9619521D01*
X7727783Y-9785270D01*
X7601015Y-9959409D01*
X7482821Y-10141121D01*
X7373212Y-10329585D01*
X7272203Y-10523984D01*
X7179804Y-10723498D01*
X7096030Y-10927308D01*
X7020892Y-11134596D01*
X6954404Y-11344542D01*
X6896577Y-11556328D01*
X6847425Y-11769134D01*
X6806960Y-11982143D01*
X6775195Y-12194534D01*
X6752143Y-12405490D01*
X6737816Y-12614191D01*
X6732227Y-12819818D01*
X6735388Y-13021553D01*
X6747312Y-13218576D01*
X6768012Y-13410069D01*
X6797501Y-13595212D01*
X6835790Y-13773188D01*
X6882894Y-13943176D01*
X6938824Y-14104359D01*
X7003593Y-14255917D01*
X7077214Y-14397031D01*
X7159699Y-14526883D01*
X11580638Y-15373780D02*
X11675217Y-15401484D01*
X11762063Y-15434911D01*
X11841589Y-15473899D01*
X11914210Y-15518287D01*
X11980342Y-15567916D01*
X12040397Y-15622624D01*
X12094792Y-15682250D01*
X12143940Y-15746635D01*
X12188256Y-15815617D01*
X12228155Y-15889035D01*
X12264051Y-15966729D01*
X12296360Y-16048539D01*
X12325494Y-16134303D01*
X12351870Y-16223861D01*
X12375902Y-16317052D01*
X12398003Y-16413716D01*
X12418590Y-16513692D01*
X12438076Y-16616819D01*
X12456876Y-16722936D01*
X12475404Y-16831883D01*
X12494076Y-16943499D01*
X12513305Y-17057624D01*
X12533507Y-17174096D01*
X12555096Y-17292756D01*
X12578486Y-17413441D01*
X12604092Y-17535993D01*
X12632329Y-17660249D01*
X12663611Y-17786050D01*
X12698353Y-17913235D01*
X12736970Y-18041643D01*
X12779875Y-18171112D01*
X12827484Y-18301484D01*
X16277422Y-20730215D02*
X16419061Y-20678776D01*
X16561265Y-20616394D01*
X16704016Y-20543893D01*
X16847297Y-20462098D01*
X16991088Y-20371833D01*
X17135372Y-20273924D01*
X17280131Y-20169196D01*
X17425346Y-20058472D01*
X17570999Y-19942578D01*
X17717071Y-19822339D01*
X17863545Y-19698579D01*
X18010403Y-19572123D01*
X18157626Y-19443795D01*
X18305195Y-19314422D01*
X18453093Y-19184827D01*
X18601302Y-19055835D01*
X18749803Y-18928271D01*
X18898578Y-18802959D01*
X19047609Y-18680725D01*
X19196877Y-18562393D01*
X19346365Y-18448789D01*
X19496054Y-18340736D01*
X19645926Y-18239059D01*
X19795963Y-18144584D01*
X19946146Y-18058135D01*
X20096457Y-17980536D01*
X20246879Y-17912614D01*
X20397392Y-17855191D01*
X20547979Y-17809094D01*
X20698622Y-17775146D01*
X20849301Y-17754173D01*
X21000000Y-17747000D01*
X7159699Y-14526883D02*
X7250970Y-14644884D01*
X7350587Y-14751365D01*
X7458016Y-14846889D01*
X7572727Y-14932016D01*
X7694187Y-15007309D01*
X7821864Y-15073327D01*
X7955225Y-15130633D01*
X8093740Y-15179789D01*
X8236875Y-15221355D01*
X8384100Y-15255892D01*
X8534881Y-15283963D01*
X8688687Y-15306128D01*
X8844985Y-15322949D01*
X9003244Y-15334988D01*
X9162931Y-15342805D01*
X9323516Y-15346961D01*
X9484464Y-15348020D01*
X9645245Y-15346541D01*
X9805326Y-15343086D01*
X9964176Y-15338216D01*
X10121262Y-15332493D01*
X10276052Y-15326478D01*
X10428015Y-15320733D01*
X10576617Y-15315819D01*
X10721328Y-15312297D01*
X10861615Y-15310728D01*
X10996946Y-15311675D01*
X11126788Y-15315698D01*
X11250611Y-15323358D01*
X11367881Y-15335218D01*
X11478068Y-15351838D01*
X11580638Y-15373780D01*
X16632662Y-10551588D02*
X16416811Y-10434697D01*
X16194333Y-10317140D01*
X15965715Y-10199396D01*
X15731445Y-10081939D01*
X15492008Y-9965248D01*
X15247894Y-9849800D01*
X14999587Y-9736072D01*
X14747576Y-9624540D01*
X14492348Y-9515682D01*
X14234389Y-9409975D01*
X13974186Y-9307896D01*
X13712226Y-9209921D01*
X13448997Y-9116529D01*
X13184986Y-9028195D01*
X12920679Y-8945397D01*
X12656563Y-8868613D01*
X12393126Y-8798318D01*
X12130854Y-8734991D01*
X11870234Y-8679107D01*
X11611755Y-8631145D01*
X11355901Y-8591581D01*
X11103162Y-8560893D01*
X10854022Y-8539556D01*
X10608970Y-8528049D01*
X10368493Y-8526848D01*
X10133077Y-8536431D01*
X9903210Y-8557274D01*
X9679379Y-8589854D01*
X9462070Y-8634649D01*
X9251770Y-8692136D01*
X9048968Y-8762791D01*
X8854148Y-8847092D01*
X25367370Y-10551572D02*
X25158515Y-10667372D01*
X24956553Y-10781874D01*
X24761261Y-10894920D01*
X24572418Y-11006355D01*
X24389800Y-11116023D01*
X24213186Y-11223768D01*
X24042353Y-11329435D01*
X23877079Y-11432867D01*
X23717141Y-11533909D01*
X23562317Y-11632404D01*
X23412385Y-11728198D01*
X23267122Y-11821133D01*
X23126306Y-11911055D01*
X22989715Y-11997806D01*
X22857126Y-12081232D01*
X22728317Y-12161177D01*
X22603066Y-12237484D01*
X22481150Y-12309998D01*
X22362347Y-12378563D01*
X22246434Y-12443022D01*
X22133189Y-12503221D01*
X22022391Y-12559003D01*
X21913816Y-12610212D01*
X21807242Y-12656693D01*
X21702446Y-12698289D01*
X21599207Y-12734846D01*
X21497303Y-12766205D01*
X21396510Y-12792213D01*
X21296606Y-12812713D01*
X21197370Y-12827549D01*
X21098578Y-12836566D01*
X21000008Y-12839607D01*
X21000008Y-12839607D02*
X20901438Y-12836568D01*
X20802647Y-12827554D01*
X20703410Y-12812720D01*
X20603507Y-12792222D01*
X20502714Y-12766216D01*
X20400810Y-12734858D01*
X20297572Y-12698303D01*
X20192777Y-12656708D01*
X20086204Y-12610229D01*
X19977629Y-12559021D01*
X19866831Y-12503240D01*
X19753587Y-12443042D01*
X19637676Y-12378583D01*
X19518873Y-12310019D01*
X19396958Y-12237506D01*
X19271707Y-12161199D01*
X19142899Y-12081255D01*
X19010311Y-11997829D01*
X18873721Y-11911077D01*
X18732905Y-11821156D01*
X18587643Y-11728220D01*
X18437712Y-11632427D01*
X18282889Y-11533931D01*
X18122951Y-11432889D01*
X17957677Y-11329456D01*
X17786845Y-11223789D01*
X17610231Y-11116043D01*
X17427614Y-11006374D01*
X17238771Y-10894938D01*
X17043479Y-10781892D01*
X16841517Y-10667389D01*
X16632662Y-10551588D01*
X33145834Y-8847105D02*
X32951017Y-8762804D01*
X32748217Y-8692148D01*
X32537919Y-8634661D01*
X32320613Y-8589865D01*
X32096783Y-8557284D01*
X31866918Y-8536440D01*
X31631505Y-8526857D01*
X31391030Y-8528057D01*
X31145980Y-8539563D01*
X30896843Y-8560899D01*
X30644105Y-8591587D01*
X30388254Y-8631150D01*
X30129776Y-8679111D01*
X29869159Y-8734993D01*
X29606889Y-8798320D01*
X29343453Y-8868613D01*
X29079339Y-8945397D01*
X28815034Y-9028194D01*
X28551024Y-9116526D01*
X28287796Y-9209918D01*
X28025838Y-9307891D01*
X27765637Y-9409970D01*
X27507679Y-9515676D01*
X27252451Y-9624533D01*
X27000441Y-9736063D01*
X26752136Y-9849791D01*
X26508022Y-9965238D01*
X26268586Y-10081927D01*
X26034316Y-10199383D01*
X25805699Y-10317127D01*
X25583221Y-10434682D01*
X25367370Y-10551572D01*
X34840194Y-14526715D02*
X34922683Y-14396856D01*
X34996308Y-14255737D01*
X35061081Y-14104176D01*
X35117015Y-13942992D01*
X35164122Y-13773003D01*
X35202415Y-13595029D01*
X35231907Y-13409889D01*
X35252610Y-13218400D01*
X35264538Y-13021383D01*
X35267702Y-12819655D01*
X35262116Y-12614035D01*
X35247792Y-12405343D01*
X35224742Y-12194396D01*
X35192980Y-11982015D01*
X35152518Y-11769016D01*
X35103368Y-11556220D01*
X35045544Y-11344445D01*
X34979058Y-11134510D01*
X34903923Y-10927233D01*
X34820151Y-10723434D01*
X34727755Y-10523931D01*
X34626747Y-10329542D01*
X34517141Y-10141088D01*
X34398949Y-9959385D01*
X34272184Y-9785254D01*
X34136857Y-9619513D01*
X33992983Y-9462980D01*
X33840574Y-9316475D01*
X33679641Y-9180816D01*
X33510198Y-9056823D01*
X33332259Y-8945313D01*
X33145834Y-8847105D01*
D11*
X7859772Y-13450008D02*
X8034772Y-13625008D01*
X8034772Y-13450008D02*
X7859772Y-13625008D01*
X8508772Y-11664008D02*
X8683772Y-11839008D01*
X8683772Y-11664008D02*
X8508772Y-11839008D01*
X8814500Y-13797500D02*
X8989500Y-13972500D01*
X8989500Y-13797500D02*
X8814500Y-13972500D01*
X9158772Y-9879008D02*
X9333772Y-10054008D01*
X9333772Y-9879008D02*
X9158772Y-10054008D01*
X9463500Y-12011500D02*
X9638500Y-12186500D01*
X9638500Y-12011500D02*
X9463500Y-12186500D01*
X9883136Y-13441754D02*
X10058136Y-13616754D01*
X10058136Y-13441754D02*
X9883136Y-13616754D01*
X10113500Y-10226500D02*
X10288500Y-10401500D01*
X10288500Y-10226500D02*
X10113500Y-10401500D01*
X10533500Y-11655500D02*
X10708500Y-11830500D01*
X10708500Y-11655500D02*
X10533500Y-11830500D01*
X10837864Y-13789246D02*
X11012864Y-13964246D01*
X11012864Y-13789246D02*
X10837864Y-13964246D01*
X11184136Y-9869754D02*
X11359136Y-10044754D01*
X11359136Y-9869754D02*
X11184136Y-10044754D01*
X11488228Y-12002992D02*
X11663228Y-12177992D01*
X11663228Y-12002992D02*
X11488228Y-12177992D01*
X11771772Y-13809008D02*
X11946772Y-13984008D01*
X11946772Y-13809008D02*
X11771772Y-13984008D01*
X12138864Y-10217246D02*
X12313864Y-10392246D01*
X12313864Y-10217246D02*
X12138864Y-10392246D01*
X12421500Y-12024500D02*
X12596500Y-12199500D01*
X12596500Y-12024500D02*
X12421500Y-12199500D01*
X12726500Y-14156500D02*
X12901500Y-14331500D01*
X12901500Y-14156500D02*
X12726500Y-14331500D01*
X13071772Y-10239008D02*
X13246772Y-10414008D01*
X13246772Y-10239008D02*
X13071772Y-10414008D01*
X13376228Y-12371992D02*
X13551228Y-12546992D01*
X13551228Y-12371992D02*
X13376228Y-12546992D01*
X13454772Y-14741008D02*
X13629772Y-14916008D01*
X13629772Y-14741008D02*
X13454772Y-14916008D01*
X13728371Y-17468123D02*
X13903371Y-17643123D01*
X13903371Y-17468123D02*
X13728371Y-17643123D01*
X14026500Y-10586500D02*
X14201500Y-10761500D01*
X14201500Y-10586500D02*
X14026500Y-10761500D01*
X14104772Y-12955500D02*
X14279772Y-13130500D01*
X14279772Y-12955500D02*
X14104772Y-13130500D01*
X14409500Y-15088500D02*
X14584500Y-15263500D01*
X14584500Y-15088500D02*
X14409500Y-15263500D01*
X14560629Y-18050877D02*
X14735629Y-18225877D01*
X14735629Y-18050877D02*
X14560629Y-18225877D01*
X14754772Y-11171008D02*
X14929772Y-11346008D01*
X14929772Y-11171008D02*
X14754772Y-11346008D01*
X15059500Y-13302992D02*
X15234500Y-13477992D01*
X15234500Y-13302992D02*
X15059500Y-13477992D01*
X15138772Y-15673008D02*
X15313772Y-15848008D01*
X15313772Y-15673008D02*
X15138772Y-15848008D01*
X15709500Y-11518500D02*
X15884500Y-11693500D01*
X15884500Y-11518500D02*
X15709500Y-11693500D01*
X15786772Y-13888008D02*
X15961772Y-14063008D01*
X15961772Y-13888008D02*
X15786772Y-14063008D01*
X15818964Y-18563349D02*
X15993964Y-18738349D01*
X15993964Y-18563349D02*
X15818964Y-18738349D01*
X16093500Y-16020500D02*
X16268500Y-16195500D01*
X16268500Y-16020500D02*
X16093500Y-16195500D01*
X16436772Y-12102008D02*
X16611772Y-12277008D01*
X16611772Y-12102008D02*
X16436772Y-12277008D01*
X16472036Y-19341651D02*
X16647036Y-19516651D01*
X16647036Y-19341651D02*
X16472036Y-19516651D01*
X16741500Y-14235500D02*
X16916500Y-14410500D01*
X16916500Y-14235500D02*
X16741500Y-14410500D01*
X17391500Y-12449500D02*
X17566500Y-12624500D01*
X17566500Y-12449500D02*
X17391500Y-12624500D01*
X24432240Y-12449874D02*
X24607240Y-12624874D01*
X24607240Y-12449874D02*
X24432240Y-12624874D01*
X25083772Y-14234992D02*
X25258772Y-14409992D01*
X25258772Y-14234992D02*
X25083772Y-14409992D01*
X25352964Y-19341651D02*
X25527964Y-19516651D01*
X25527964Y-19341651D02*
X25352964Y-19516651D01*
X25386968Y-12102381D02*
X25561968Y-12277381D01*
X25561968Y-12102381D02*
X25386968Y-12277381D01*
X25732772Y-16020992D02*
X25907772Y-16195992D01*
X25907772Y-16020992D02*
X25732772Y-16195992D01*
X26006036Y-18563349D02*
X26181036Y-18738349D01*
X26181036Y-18563349D02*
X26006036Y-18738349D01*
X26038500Y-13887500D02*
X26213500Y-14062500D01*
X26213500Y-13887500D02*
X26038500Y-14062500D01*
X26116136Y-11517246D02*
X26291136Y-11692246D01*
X26291136Y-11517246D02*
X26116136Y-11692246D01*
X26687500Y-15673500D02*
X26862500Y-15848500D01*
X26862500Y-15673500D02*
X26687500Y-15848500D01*
X26765772Y-13302992D02*
X26940772Y-13477992D01*
X26940772Y-13302992D02*
X26765772Y-13477992D01*
X27070864Y-11169754D02*
X27245864Y-11344754D01*
X27245864Y-11169754D02*
X27070864Y-11344754D01*
X27264371Y-18050877D02*
X27439371Y-18225877D01*
X27439371Y-18050877D02*
X27264371Y-18225877D01*
X27415500Y-15089500D02*
X27590500Y-15264500D01*
X27590500Y-15089500D02*
X27415500Y-15264500D01*
X27720500Y-12955500D02*
X27895500Y-13130500D01*
X27895500Y-12955500D02*
X27720500Y-13130500D01*
X27798500Y-10584500D02*
X27973500Y-10759500D01*
X27973500Y-10584500D02*
X27798500Y-10759500D01*
X28096629Y-17468123D02*
X28271629Y-17643123D01*
X28271629Y-17468123D02*
X28096629Y-17643123D01*
X28370228Y-14742008D02*
X28545228Y-14917008D01*
X28545228Y-14742008D02*
X28370228Y-14917008D01*
X28447500Y-12371500D02*
X28622500Y-12546500D01*
X28622500Y-12371500D02*
X28447500Y-12546500D01*
X28753228Y-10237008D02*
X28928228Y-10412008D01*
X28928228Y-10237008D02*
X28753228Y-10412008D01*
X29097500Y-14156500D02*
X29272500Y-14331500D01*
X29272500Y-14156500D02*
X29097500Y-14331500D01*
X29402228Y-12024008D02*
X29577228Y-12199008D01*
X29577228Y-12024008D02*
X29402228Y-12199008D01*
X29686500Y-10217500D02*
X29861500Y-10392500D01*
X29861500Y-10217500D02*
X29686500Y-10392500D01*
X30052228Y-13809008D02*
X30227228Y-13984008D01*
X30227228Y-13809008D02*
X30052228Y-13984008D01*
X30336500Y-12002500D02*
X30511500Y-12177500D01*
X30511500Y-12002500D02*
X30336500Y-12177500D01*
X30641228Y-9870008D02*
X30816228Y-10045008D01*
X30816228Y-9870008D02*
X30641228Y-10045008D01*
X30985136Y-13788246D02*
X31160136Y-13963246D01*
X31160136Y-13788246D02*
X30985136Y-13963246D01*
X31291228Y-11655008D02*
X31466228Y-11830008D01*
X31466228Y-11655008D02*
X31291228Y-11830008D01*
X31711500Y-10225500D02*
X31886500Y-10400500D01*
X31886500Y-10225500D02*
X31711500Y-10400500D01*
X31939864Y-13440754D02*
X32114864Y-13615754D01*
X32114864Y-13440754D02*
X31939864Y-13615754D01*
X32360500Y-12011500D02*
X32535500Y-12186500D01*
X32535500Y-12011500D02*
X32360500Y-12186500D01*
X32666228Y-9878008D02*
X32841228Y-10053008D01*
X32841228Y-9878008D02*
X32666228Y-10053008D01*
X33011500Y-13796500D02*
X33186500Y-13971500D01*
X33186500Y-13796500D02*
X33011500Y-13971500D01*
X33315228Y-11664008D02*
X33490228Y-11839008D01*
X33490228Y-11664008D02*
X33315228Y-11839008D01*
X33966228Y-13449008D02*
X34141228Y-13624008D01*
X34141228Y-13449008D02*
X33966228Y-13624008D01*
D12*
X8624636Y-13711254D02*
G75*
G03*
X8624636Y-13711254I-200000J0D01*
G01*
X9273636Y-11925254D02*
G75*
G03*
X9273636Y-11925254I-200000J0D01*
G01*
X9923636Y-10140254D02*
G75*
G03*
X9923636Y-10140254I-200000J0D01*
G01*
X10648000Y-13703000D02*
G75*
G03*
X10648000Y-13703000I-200000J0D01*
G01*
X11298364Y-11916746D02*
G75*
G03*
X11298364Y-11916746I-200000J0D01*
G01*
X11949000Y-10131000D02*
G75*
G03*
X11949000Y-10131000I-200000J0D01*
G01*
X12536636Y-14070254D02*
G75*
G03*
X12536636Y-14070254I-200000J0D01*
G01*
X13186364Y-12285746D02*
G75*
G03*
X13186364Y-12285746I-200000J0D01*
G01*
X13836636Y-10500254D02*
G75*
G03*
X13836636Y-10500254I-200000J0D01*
G01*
X14219636Y-15002254D02*
G75*
G03*
X14219636Y-15002254I-200000J0D01*
G01*
X14432000Y-17847000D02*
G75*
G03*
X14432000Y-17847000I-200000J0D01*
G01*
X14869636Y-13216746D02*
G75*
G03*
X14869636Y-13216746I-200000J0D01*
G01*
X15519636Y-11432254D02*
G75*
G03*
X15519636Y-11432254I-200000J0D01*
G01*
X15903636Y-15934254D02*
G75*
G03*
X15903636Y-15934254I-200000J0D01*
G01*
X16433000Y-19040000D02*
G75*
G03*
X16433000Y-19040000I-200000J0D01*
G01*
X16551636Y-14149254D02*
G75*
G03*
X16551636Y-14149254I-200000J0D01*
G01*
X17201636Y-12363254D02*
G75*
G03*
X17201636Y-12363254I-200000J0D01*
G01*
X25197104Y-12363628D02*
G75*
G03*
X25197104Y-12363628I-200000J0D01*
G01*
X25848636Y-14148746D02*
G75*
G03*
X25848636Y-14148746I-200000J0D01*
G01*
X25967000Y-19040000D02*
G75*
G03*
X25967000Y-19040000I-200000J0D01*
G01*
X26497636Y-15934746D02*
G75*
G03*
X26497636Y-15934746I-200000J0D01*
G01*
X26881000Y-11431000D02*
G75*
G03*
X26881000Y-11431000I-200000J0D01*
G01*
X27530636Y-13216746D02*
G75*
G03*
X27530636Y-13216746I-200000J0D01*
G01*
X27968000Y-17847000D02*
G75*
G03*
X27968000Y-17847000I-200000J0D01*
G01*
X28180364Y-15003254D02*
G75*
G03*
X28180364Y-15003254I-200000J0D01*
G01*
X28563364Y-10498254D02*
G75*
G03*
X28563364Y-10498254I-200000J0D01*
G01*
X29212364Y-12285254D02*
G75*
G03*
X29212364Y-12285254I-200000J0D01*
G01*
X29862364Y-14070254D02*
G75*
G03*
X29862364Y-14070254I-200000J0D01*
G01*
X30451364Y-10131254D02*
G75*
G03*
X30451364Y-10131254I-200000J0D01*
G01*
X31101364Y-11916254D02*
G75*
G03*
X31101364Y-11916254I-200000J0D01*
G01*
X31750000Y-13702000D02*
G75*
G03*
X31750000Y-13702000I-200000J0D01*
G01*
X32476364Y-10139254D02*
G75*
G03*
X32476364Y-10139254I-200000J0D01*
G01*
X33125364Y-11925254D02*
G75*
G03*
X33125364Y-11925254I-200000J0D01*
G01*
X33776364Y-13710254D02*
G75*
G03*
X33776364Y-13710254I-200000J0D01*
G01*
D10*
X6470155Y-21540121D02*
X6470155Y-21340121D01*
X6470155Y-21340121D02*
X6517774Y-21340121D01*
X6517774Y-21340121D02*
X6546346Y-21349645D01*
X6546346Y-21349645D02*
X6565393Y-21368692D01*
X6565393Y-21368692D02*
X6574917Y-21387740D01*
X6574917Y-21387740D02*
X6584441Y-21425835D01*
X6584441Y-21425835D02*
X6584441Y-21454407D01*
X6584441Y-21454407D02*
X6574917Y-21492502D01*
X6574917Y-21492502D02*
X6565393Y-21511549D01*
X6565393Y-21511549D02*
X6546346Y-21530597D01*
X6546346Y-21530597D02*
X6517774Y-21540121D01*
X6517774Y-21540121D02*
X6470155Y-21540121D01*
X6670155Y-21540121D02*
X6670155Y-21406787D01*
X6670155Y-21444883D02*
X6679679Y-21425835D01*
X6679679Y-21425835D02*
X6689203Y-21416311D01*
X6689203Y-21416311D02*
X6708250Y-21406787D01*
X6708250Y-21406787D02*
X6727298Y-21406787D01*
X6793965Y-21540121D02*
X6793965Y-21406787D01*
X6793965Y-21340121D02*
X6784441Y-21349645D01*
X6784441Y-21349645D02*
X6793965Y-21359168D01*
X6793965Y-21359168D02*
X6803489Y-21349645D01*
X6803489Y-21349645D02*
X6793965Y-21340121D01*
X6793965Y-21340121D02*
X6793965Y-21359168D01*
X6917774Y-21540121D02*
X6898727Y-21530597D01*
X6898727Y-21530597D02*
X6889203Y-21511549D01*
X6889203Y-21511549D02*
X6889203Y-21340121D01*
X7022536Y-21540121D02*
X7003489Y-21530597D01*
X7003489Y-21530597D02*
X6993965Y-21511549D01*
X6993965Y-21511549D02*
X6993965Y-21340121D01*
X7251108Y-21540121D02*
X7251108Y-21340121D01*
X7251108Y-21340121D02*
X7317774Y-21482978D01*
X7317774Y-21482978D02*
X7384441Y-21340121D01*
X7384441Y-21340121D02*
X7384441Y-21540121D01*
X7565393Y-21540121D02*
X7565393Y-21435359D01*
X7565393Y-21435359D02*
X7555870Y-21416311D01*
X7555870Y-21416311D02*
X7536822Y-21406787D01*
X7536822Y-21406787D02*
X7498727Y-21406787D01*
X7498727Y-21406787D02*
X7479679Y-21416311D01*
X7565393Y-21530597D02*
X7546346Y-21540121D01*
X7546346Y-21540121D02*
X7498727Y-21540121D01*
X7498727Y-21540121D02*
X7479679Y-21530597D01*
X7479679Y-21530597D02*
X7470155Y-21511549D01*
X7470155Y-21511549D02*
X7470155Y-21492502D01*
X7470155Y-21492502D02*
X7479679Y-21473454D01*
X7479679Y-21473454D02*
X7498727Y-21463930D01*
X7498727Y-21463930D02*
X7546346Y-21463930D01*
X7546346Y-21463930D02*
X7565393Y-21454407D01*
X7660631Y-21406787D02*
X7660631Y-21606787D01*
X7660631Y-21416311D02*
X7679679Y-21406787D01*
X7679679Y-21406787D02*
X7717774Y-21406787D01*
X7717774Y-21406787D02*
X7736822Y-21416311D01*
X7736822Y-21416311D02*
X7746346Y-21425835D01*
X7746346Y-21425835D02*
X7755870Y-21444883D01*
X7755870Y-21444883D02*
X7755870Y-21502026D01*
X7755870Y-21502026D02*
X7746346Y-21521073D01*
X7746346Y-21521073D02*
X7736822Y-21530597D01*
X7736822Y-21530597D02*
X7717774Y-21540121D01*
X7717774Y-21540121D02*
X7679679Y-21540121D01*
X7679679Y-21540121D02*
X7660631Y-21530597D01*
X7841584Y-21521073D02*
X7851108Y-21530597D01*
X7851108Y-21530597D02*
X7841584Y-21540121D01*
X7841584Y-21540121D02*
X7832060Y-21530597D01*
X7832060Y-21530597D02*
X7841584Y-21521073D01*
X7841584Y-21521073D02*
X7841584Y-21540121D01*
X7841584Y-21416311D02*
X7851108Y-21425835D01*
X7851108Y-21425835D02*
X7841584Y-21435359D01*
X7841584Y-21435359D02*
X7832060Y-21425835D01*
X7832060Y-21425835D02*
X7841584Y-21416311D01*
X7841584Y-21416311D02*
X7841584Y-21435359D01*
D11*
X6047536Y-21780097D02*
X6222536Y-21955097D01*
X6222536Y-21780097D02*
X6047536Y-21955097D01*
D10*
X6574917Y-21960121D02*
X6460631Y-21960121D01*
X6517774Y-21960121D02*
X6517774Y-21760121D01*
X6517774Y-21760121D02*
X6498727Y-21788692D01*
X6498727Y-21788692D02*
X6479679Y-21807740D01*
X6479679Y-21807740D02*
X6460631Y-21817264D01*
X6660631Y-21941073D02*
X6670155Y-21950597D01*
X6670155Y-21950597D02*
X6660631Y-21960121D01*
X6660631Y-21960121D02*
X6651108Y-21950597D01*
X6651108Y-21950597D02*
X6660631Y-21941073D01*
X6660631Y-21941073D02*
X6660631Y-21960121D01*
X6736822Y-21760121D02*
X6870155Y-21760121D01*
X6870155Y-21760121D02*
X6784441Y-21960121D01*
X7041584Y-21760121D02*
X6946346Y-21760121D01*
X6946346Y-21760121D02*
X6936822Y-21855359D01*
X6936822Y-21855359D02*
X6946346Y-21845835D01*
X6946346Y-21845835D02*
X6965393Y-21836311D01*
X6965393Y-21836311D02*
X7013012Y-21836311D01*
X7013012Y-21836311D02*
X7032060Y-21845835D01*
X7032060Y-21845835D02*
X7041584Y-21855359D01*
X7041584Y-21855359D02*
X7051108Y-21874407D01*
X7051108Y-21874407D02*
X7051108Y-21922026D01*
X7051108Y-21922026D02*
X7041584Y-21941073D01*
X7041584Y-21941073D02*
X7032060Y-21950597D01*
X7032060Y-21950597D02*
X7013012Y-21960121D01*
X7013012Y-21960121D02*
X6965393Y-21960121D01*
X6965393Y-21960121D02*
X6946346Y-21950597D01*
X6946346Y-21950597D02*
X6936822Y-21941073D01*
X7174917Y-21760121D02*
X7193965Y-21760121D01*
X7193965Y-21760121D02*
X7213012Y-21769645D01*
X7213012Y-21769645D02*
X7222536Y-21779168D01*
X7222536Y-21779168D02*
X7232060Y-21798216D01*
X7232060Y-21798216D02*
X7241584Y-21836311D01*
X7241584Y-21836311D02*
X7241584Y-21883930D01*
X7241584Y-21883930D02*
X7232060Y-21922026D01*
X7232060Y-21922026D02*
X7222536Y-21941073D01*
X7222536Y-21941073D02*
X7213012Y-21950597D01*
X7213012Y-21950597D02*
X7193965Y-21960121D01*
X7193965Y-21960121D02*
X7174917Y-21960121D01*
X7174917Y-21960121D02*
X7155870Y-21950597D01*
X7155870Y-21950597D02*
X7146346Y-21941073D01*
X7146346Y-21941073D02*
X7136822Y-21922026D01*
X7136822Y-21922026D02*
X7127298Y-21883930D01*
X7127298Y-21883930D02*
X7127298Y-21836311D01*
X7127298Y-21836311D02*
X7136822Y-21798216D01*
X7136822Y-21798216D02*
X7146346Y-21779168D01*
X7146346Y-21779168D02*
X7155870Y-21769645D01*
X7155870Y-21769645D02*
X7174917Y-21760121D01*
X7327298Y-21960121D02*
X7327298Y-21826787D01*
X7327298Y-21845835D02*
X7336822Y-21836311D01*
X7336822Y-21836311D02*
X7355870Y-21826787D01*
X7355870Y-21826787D02*
X7384441Y-21826787D01*
X7384441Y-21826787D02*
X7403489Y-21836311D01*
X7403489Y-21836311D02*
X7413012Y-21855359D01*
X7413012Y-21855359D02*
X7413012Y-21960121D01*
X7413012Y-21855359D02*
X7422536Y-21836311D01*
X7422536Y-21836311D02*
X7441584Y-21826787D01*
X7441584Y-21826787D02*
X7470155Y-21826787D01*
X7470155Y-21826787D02*
X7489203Y-21836311D01*
X7489203Y-21836311D02*
X7498727Y-21855359D01*
X7498727Y-21855359D02*
X7498727Y-21960121D01*
X7593965Y-21960121D02*
X7593965Y-21826787D01*
X7593965Y-21845835D02*
X7603489Y-21836311D01*
X7603489Y-21836311D02*
X7622536Y-21826787D01*
X7622536Y-21826787D02*
X7651108Y-21826787D01*
X7651108Y-21826787D02*
X7670155Y-21836311D01*
X7670155Y-21836311D02*
X7679679Y-21855359D01*
X7679679Y-21855359D02*
X7679679Y-21960121D01*
X7679679Y-21855359D02*
X7689203Y-21836311D01*
X7689203Y-21836311D02*
X7708251Y-21826787D01*
X7708251Y-21826787D02*
X7736822Y-21826787D01*
X7736822Y-21826787D02*
X7755870Y-21836311D01*
X7755870Y-21836311D02*
X7765393Y-21855359D01*
X7765393Y-21855359D02*
X7765393Y-21960121D01*
X8155870Y-21750597D02*
X7984441Y-22007740D01*
X8413013Y-21760121D02*
X8432060Y-21760121D01*
X8432060Y-21760121D02*
X8451108Y-21769645D01*
X8451108Y-21769645D02*
X8460632Y-21779168D01*
X8460632Y-21779168D02*
X8470156Y-21798216D01*
X8470156Y-21798216D02*
X8479679Y-21836311D01*
X8479679Y-21836311D02*
X8479679Y-21883930D01*
X8479679Y-21883930D02*
X8470156Y-21922026D01*
X8470156Y-21922026D02*
X8460632Y-21941073D01*
X8460632Y-21941073D02*
X8451108Y-21950597D01*
X8451108Y-21950597D02*
X8432060Y-21960121D01*
X8432060Y-21960121D02*
X8413013Y-21960121D01*
X8413013Y-21960121D02*
X8393965Y-21950597D01*
X8393965Y-21950597D02*
X8384441Y-21941073D01*
X8384441Y-21941073D02*
X8374917Y-21922026D01*
X8374917Y-21922026D02*
X8365394Y-21883930D01*
X8365394Y-21883930D02*
X8365394Y-21836311D01*
X8365394Y-21836311D02*
X8374917Y-21798216D01*
X8374917Y-21798216D02*
X8384441Y-21779168D01*
X8384441Y-21779168D02*
X8393965Y-21769645D01*
X8393965Y-21769645D02*
X8413013Y-21760121D01*
X8565394Y-21941073D02*
X8574917Y-21950597D01*
X8574917Y-21950597D02*
X8565394Y-21960121D01*
X8565394Y-21960121D02*
X8555870Y-21950597D01*
X8555870Y-21950597D02*
X8565394Y-21941073D01*
X8565394Y-21941073D02*
X8565394Y-21960121D01*
X8698727Y-21760121D02*
X8717775Y-21760121D01*
X8717775Y-21760121D02*
X8736822Y-21769645D01*
X8736822Y-21769645D02*
X8746346Y-21779168D01*
X8746346Y-21779168D02*
X8755870Y-21798216D01*
X8755870Y-21798216D02*
X8765394Y-21836311D01*
X8765394Y-21836311D02*
X8765394Y-21883930D01*
X8765394Y-21883930D02*
X8755870Y-21922026D01*
X8755870Y-21922026D02*
X8746346Y-21941073D01*
X8746346Y-21941073D02*
X8736822Y-21950597D01*
X8736822Y-21950597D02*
X8717775Y-21960121D01*
X8717775Y-21960121D02*
X8698727Y-21960121D01*
X8698727Y-21960121D02*
X8679679Y-21950597D01*
X8679679Y-21950597D02*
X8670156Y-21941073D01*
X8670156Y-21941073D02*
X8660632Y-21922026D01*
X8660632Y-21922026D02*
X8651108Y-21883930D01*
X8651108Y-21883930D02*
X8651108Y-21836311D01*
X8651108Y-21836311D02*
X8660632Y-21798216D01*
X8660632Y-21798216D02*
X8670156Y-21779168D01*
X8670156Y-21779168D02*
X8679679Y-21769645D01*
X8679679Y-21769645D02*
X8698727Y-21760121D01*
X8936822Y-21760121D02*
X8898727Y-21760121D01*
X8898727Y-21760121D02*
X8879679Y-21769645D01*
X8879679Y-21769645D02*
X8870156Y-21779168D01*
X8870156Y-21779168D02*
X8851108Y-21807740D01*
X8851108Y-21807740D02*
X8841584Y-21845835D01*
X8841584Y-21845835D02*
X8841584Y-21922026D01*
X8841584Y-21922026D02*
X8851108Y-21941073D01*
X8851108Y-21941073D02*
X8860632Y-21950597D01*
X8860632Y-21950597D02*
X8879679Y-21960121D01*
X8879679Y-21960121D02*
X8917775Y-21960121D01*
X8917775Y-21960121D02*
X8936822Y-21950597D01*
X8936822Y-21950597D02*
X8946346Y-21941073D01*
X8946346Y-21941073D02*
X8955870Y-21922026D01*
X8955870Y-21922026D02*
X8955870Y-21874407D01*
X8955870Y-21874407D02*
X8946346Y-21855359D01*
X8946346Y-21855359D02*
X8936822Y-21845835D01*
X8936822Y-21845835D02*
X8917775Y-21836311D01*
X8917775Y-21836311D02*
X8879679Y-21836311D01*
X8879679Y-21836311D02*
X8860632Y-21845835D01*
X8860632Y-21845835D02*
X8851108Y-21855359D01*
X8851108Y-21855359D02*
X8841584Y-21874407D01*
X9070156Y-21845835D02*
X9051108Y-21836311D01*
X9051108Y-21836311D02*
X9041584Y-21826787D01*
X9041584Y-21826787D02*
X9032060Y-21807740D01*
X9032060Y-21807740D02*
X9032060Y-21798216D01*
X9032060Y-21798216D02*
X9041584Y-21779168D01*
X9041584Y-21779168D02*
X9051108Y-21769645D01*
X9051108Y-21769645D02*
X9070156Y-21760121D01*
X9070156Y-21760121D02*
X9108251Y-21760121D01*
X9108251Y-21760121D02*
X9127298Y-21769645D01*
X9127298Y-21769645D02*
X9136822Y-21779168D01*
X9136822Y-21779168D02*
X9146346Y-21798216D01*
X9146346Y-21798216D02*
X9146346Y-21807740D01*
X9146346Y-21807740D02*
X9136822Y-21826787D01*
X9136822Y-21826787D02*
X9127298Y-21836311D01*
X9127298Y-21836311D02*
X9108251Y-21845835D01*
X9108251Y-21845835D02*
X9070156Y-21845835D01*
X9070156Y-21845835D02*
X9051108Y-21855359D01*
X9051108Y-21855359D02*
X9041584Y-21864883D01*
X9041584Y-21864883D02*
X9032060Y-21883930D01*
X9032060Y-21883930D02*
X9032060Y-21922026D01*
X9032060Y-21922026D02*
X9041584Y-21941073D01*
X9041584Y-21941073D02*
X9051108Y-21950597D01*
X9051108Y-21950597D02*
X9070156Y-21960121D01*
X9070156Y-21960121D02*
X9108251Y-21960121D01*
X9108251Y-21960121D02*
X9127298Y-21950597D01*
X9127298Y-21950597D02*
X9136822Y-21941073D01*
X9136822Y-21941073D02*
X9146346Y-21922026D01*
X9146346Y-21922026D02*
X9146346Y-21883930D01*
X9146346Y-21883930D02*
X9136822Y-21864883D01*
X9136822Y-21864883D02*
X9127298Y-21855359D01*
X9127298Y-21855359D02*
X9108251Y-21845835D01*
X9241584Y-21960121D02*
X9279679Y-21960121D01*
X9279679Y-21960121D02*
X9298727Y-21950597D01*
X9298727Y-21950597D02*
X9308251Y-21941073D01*
X9308251Y-21941073D02*
X9327298Y-21912502D01*
X9327298Y-21912502D02*
X9336822Y-21874407D01*
X9336822Y-21874407D02*
X9336822Y-21798216D01*
X9336822Y-21798216D02*
X9327298Y-21779168D01*
X9327298Y-21779168D02*
X9317775Y-21769645D01*
X9317775Y-21769645D02*
X9298727Y-21760121D01*
X9298727Y-21760121D02*
X9260632Y-21760121D01*
X9260632Y-21760121D02*
X9241584Y-21769645D01*
X9241584Y-21769645D02*
X9232060Y-21779168D01*
X9232060Y-21779168D02*
X9222537Y-21798216D01*
X9222537Y-21798216D02*
X9222537Y-21845835D01*
X9222537Y-21845835D02*
X9232060Y-21864883D01*
X9232060Y-21864883D02*
X9241584Y-21874407D01*
X9241584Y-21874407D02*
X9260632Y-21883930D01*
X9260632Y-21883930D02*
X9298727Y-21883930D01*
X9298727Y-21883930D02*
X9317775Y-21874407D01*
X9317775Y-21874407D02*
X9327298Y-21864883D01*
X9327298Y-21864883D02*
X9336822Y-21845835D01*
X9413013Y-21760121D02*
X9413013Y-21798216D01*
X9489203Y-21760121D02*
X9489203Y-21798216D01*
X9784441Y-22036311D02*
X9774918Y-22026787D01*
X9774918Y-22026787D02*
X9755870Y-21998216D01*
X9755870Y-21998216D02*
X9746346Y-21979168D01*
X9746346Y-21979168D02*
X9736822Y-21950597D01*
X9736822Y-21950597D02*
X9727299Y-21902978D01*
X9727299Y-21902978D02*
X9727299Y-21864883D01*
X9727299Y-21864883D02*
X9736822Y-21817264D01*
X9736822Y-21817264D02*
X9746346Y-21788692D01*
X9746346Y-21788692D02*
X9755870Y-21769645D01*
X9755870Y-21769645D02*
X9774918Y-21741073D01*
X9774918Y-21741073D02*
X9784441Y-21731549D01*
X9946346Y-21760121D02*
X9908251Y-21760121D01*
X9908251Y-21760121D02*
X9889203Y-21769645D01*
X9889203Y-21769645D02*
X9879679Y-21779168D01*
X9879679Y-21779168D02*
X9860632Y-21807740D01*
X9860632Y-21807740D02*
X9851108Y-21845835D01*
X9851108Y-21845835D02*
X9851108Y-21922026D01*
X9851108Y-21922026D02*
X9860632Y-21941073D01*
X9860632Y-21941073D02*
X9870156Y-21950597D01*
X9870156Y-21950597D02*
X9889203Y-21960121D01*
X9889203Y-21960121D02*
X9927299Y-21960121D01*
X9927299Y-21960121D02*
X9946346Y-21950597D01*
X9946346Y-21950597D02*
X9955870Y-21941073D01*
X9955870Y-21941073D02*
X9965394Y-21922026D01*
X9965394Y-21922026D02*
X9965394Y-21874407D01*
X9965394Y-21874407D02*
X9955870Y-21855359D01*
X9955870Y-21855359D02*
X9946346Y-21845835D01*
X9946346Y-21845835D02*
X9927299Y-21836311D01*
X9927299Y-21836311D02*
X9889203Y-21836311D01*
X9889203Y-21836311D02*
X9870156Y-21845835D01*
X9870156Y-21845835D02*
X9860632Y-21855359D01*
X9860632Y-21855359D02*
X9851108Y-21874407D01*
X10079679Y-21845835D02*
X10060632Y-21836311D01*
X10060632Y-21836311D02*
X10051108Y-21826787D01*
X10051108Y-21826787D02*
X10041584Y-21807740D01*
X10041584Y-21807740D02*
X10041584Y-21798216D01*
X10041584Y-21798216D02*
X10051108Y-21779168D01*
X10051108Y-21779168D02*
X10060632Y-21769645D01*
X10060632Y-21769645D02*
X10079679Y-21760121D01*
X10079679Y-21760121D02*
X10117775Y-21760121D01*
X10117775Y-21760121D02*
X10136822Y-21769645D01*
X10136822Y-21769645D02*
X10146346Y-21779168D01*
X10146346Y-21779168D02*
X10155870Y-21798216D01*
X10155870Y-21798216D02*
X10155870Y-21807740D01*
X10155870Y-21807740D02*
X10146346Y-21826787D01*
X10146346Y-21826787D02*
X10136822Y-21836311D01*
X10136822Y-21836311D02*
X10117775Y-21845835D01*
X10117775Y-21845835D02*
X10079679Y-21845835D01*
X10079679Y-21845835D02*
X10060632Y-21855359D01*
X10060632Y-21855359D02*
X10051108Y-21864883D01*
X10051108Y-21864883D02*
X10041584Y-21883930D01*
X10041584Y-21883930D02*
X10041584Y-21922026D01*
X10041584Y-21922026D02*
X10051108Y-21941073D01*
X10051108Y-21941073D02*
X10060632Y-21950597D01*
X10060632Y-21950597D02*
X10079679Y-21960121D01*
X10079679Y-21960121D02*
X10117775Y-21960121D01*
X10117775Y-21960121D02*
X10136822Y-21950597D01*
X10136822Y-21950597D02*
X10146346Y-21941073D01*
X10146346Y-21941073D02*
X10155870Y-21922026D01*
X10155870Y-21922026D02*
X10155870Y-21883930D01*
X10155870Y-21883930D02*
X10146346Y-21864883D01*
X10146346Y-21864883D02*
X10136822Y-21855359D01*
X10136822Y-21855359D02*
X10117775Y-21845835D01*
X10393965Y-21960121D02*
X10393965Y-21760121D01*
X10479680Y-21960121D02*
X10479680Y-21855359D01*
X10479680Y-21855359D02*
X10470156Y-21836311D01*
X10470156Y-21836311D02*
X10451108Y-21826787D01*
X10451108Y-21826787D02*
X10422537Y-21826787D01*
X10422537Y-21826787D02*
X10403489Y-21836311D01*
X10403489Y-21836311D02*
X10393965Y-21845835D01*
X10603489Y-21960121D02*
X10584441Y-21950597D01*
X10584441Y-21950597D02*
X10574918Y-21941073D01*
X10574918Y-21941073D02*
X10565394Y-21922026D01*
X10565394Y-21922026D02*
X10565394Y-21864883D01*
X10565394Y-21864883D02*
X10574918Y-21845835D01*
X10574918Y-21845835D02*
X10584441Y-21836311D01*
X10584441Y-21836311D02*
X10603489Y-21826787D01*
X10603489Y-21826787D02*
X10632061Y-21826787D01*
X10632061Y-21826787D02*
X10651108Y-21836311D01*
X10651108Y-21836311D02*
X10660632Y-21845835D01*
X10660632Y-21845835D02*
X10670156Y-21864883D01*
X10670156Y-21864883D02*
X10670156Y-21922026D01*
X10670156Y-21922026D02*
X10660632Y-21941073D01*
X10660632Y-21941073D02*
X10651108Y-21950597D01*
X10651108Y-21950597D02*
X10632061Y-21960121D01*
X10632061Y-21960121D02*
X10603489Y-21960121D01*
X10784441Y-21960121D02*
X10765394Y-21950597D01*
X10765394Y-21950597D02*
X10755870Y-21931549D01*
X10755870Y-21931549D02*
X10755870Y-21760121D01*
X10936822Y-21950597D02*
X10917775Y-21960121D01*
X10917775Y-21960121D02*
X10879680Y-21960121D01*
X10879680Y-21960121D02*
X10860632Y-21950597D01*
X10860632Y-21950597D02*
X10851108Y-21931549D01*
X10851108Y-21931549D02*
X10851108Y-21855359D01*
X10851108Y-21855359D02*
X10860632Y-21836311D01*
X10860632Y-21836311D02*
X10879680Y-21826787D01*
X10879680Y-21826787D02*
X10917775Y-21826787D01*
X10917775Y-21826787D02*
X10936822Y-21836311D01*
X10936822Y-21836311D02*
X10946346Y-21855359D01*
X10946346Y-21855359D02*
X10946346Y-21874407D01*
X10946346Y-21874407D02*
X10851108Y-21893454D01*
X11022537Y-21950597D02*
X11041584Y-21960121D01*
X11041584Y-21960121D02*
X11079680Y-21960121D01*
X11079680Y-21960121D02*
X11098727Y-21950597D01*
X11098727Y-21950597D02*
X11108251Y-21931549D01*
X11108251Y-21931549D02*
X11108251Y-21922026D01*
X11108251Y-21922026D02*
X11098727Y-21902978D01*
X11098727Y-21902978D02*
X11079680Y-21893454D01*
X11079680Y-21893454D02*
X11051108Y-21893454D01*
X11051108Y-21893454D02*
X11032061Y-21883930D01*
X11032061Y-21883930D02*
X11022537Y-21864883D01*
X11022537Y-21864883D02*
X11022537Y-21855359D01*
X11022537Y-21855359D02*
X11032061Y-21836311D01*
X11032061Y-21836311D02*
X11051108Y-21826787D01*
X11051108Y-21826787D02*
X11079680Y-21826787D01*
X11079680Y-21826787D02*
X11098727Y-21836311D01*
X11174918Y-22036311D02*
X11184442Y-22026787D01*
X11184442Y-22026787D02*
X11203489Y-21998216D01*
X11203489Y-21998216D02*
X11213013Y-21979168D01*
X11213013Y-21979168D02*
X11222537Y-21950597D01*
X11222537Y-21950597D02*
X11232060Y-21902978D01*
X11232060Y-21902978D02*
X11232060Y-21864883D01*
X11232060Y-21864883D02*
X11222537Y-21817264D01*
X11222537Y-21817264D02*
X11213013Y-21788692D01*
X11213013Y-21788692D02*
X11203489Y-21769645D01*
X11203489Y-21769645D02*
X11184442Y-21741073D01*
X11184442Y-21741073D02*
X11174918Y-21731549D01*
X11536822Y-22036311D02*
X11527299Y-22026787D01*
X11527299Y-22026787D02*
X11508251Y-21998216D01*
X11508251Y-21998216D02*
X11498727Y-21979168D01*
X11498727Y-21979168D02*
X11489203Y-21950597D01*
X11489203Y-21950597D02*
X11479680Y-21902978D01*
X11479680Y-21902978D02*
X11479680Y-21864883D01*
X11479680Y-21864883D02*
X11489203Y-21817264D01*
X11489203Y-21817264D02*
X11498727Y-21788692D01*
X11498727Y-21788692D02*
X11508251Y-21769645D01*
X11508251Y-21769645D02*
X11527299Y-21741073D01*
X11527299Y-21741073D02*
X11536822Y-21731549D01*
X11613013Y-21826787D02*
X11613013Y-21960121D01*
X11613013Y-21845835D02*
X11622537Y-21836311D01*
X11622537Y-21836311D02*
X11641584Y-21826787D01*
X11641584Y-21826787D02*
X11670156Y-21826787D01*
X11670156Y-21826787D02*
X11689203Y-21836311D01*
X11689203Y-21836311D02*
X11698727Y-21855359D01*
X11698727Y-21855359D02*
X11698727Y-21960121D01*
X11822537Y-21960121D02*
X11803489Y-21950597D01*
X11803489Y-21950597D02*
X11793965Y-21941073D01*
X11793965Y-21941073D02*
X11784441Y-21922026D01*
X11784441Y-21922026D02*
X11784441Y-21864883D01*
X11784441Y-21864883D02*
X11793965Y-21845835D01*
X11793965Y-21845835D02*
X11803489Y-21836311D01*
X11803489Y-21836311D02*
X11822537Y-21826787D01*
X11822537Y-21826787D02*
X11851108Y-21826787D01*
X11851108Y-21826787D02*
X11870156Y-21836311D01*
X11870156Y-21836311D02*
X11879680Y-21845835D01*
X11879680Y-21845835D02*
X11889203Y-21864883D01*
X11889203Y-21864883D02*
X11889203Y-21922026D01*
X11889203Y-21922026D02*
X11879680Y-21941073D01*
X11879680Y-21941073D02*
X11870156Y-21950597D01*
X11870156Y-21950597D02*
X11851108Y-21960121D01*
X11851108Y-21960121D02*
X11822537Y-21960121D01*
X11946346Y-21826787D02*
X12022537Y-21826787D01*
X11974918Y-21760121D02*
X11974918Y-21931549D01*
X11974918Y-21931549D02*
X11984441Y-21950597D01*
X11984441Y-21950597D02*
X12003489Y-21960121D01*
X12003489Y-21960121D02*
X12022537Y-21960121D01*
X12241584Y-21826787D02*
X12241584Y-22026787D01*
X12241584Y-21836311D02*
X12260632Y-21826787D01*
X12260632Y-21826787D02*
X12298727Y-21826787D01*
X12298727Y-21826787D02*
X12317775Y-21836311D01*
X12317775Y-21836311D02*
X12327299Y-21845835D01*
X12327299Y-21845835D02*
X12336822Y-21864883D01*
X12336822Y-21864883D02*
X12336822Y-21922026D01*
X12336822Y-21922026D02*
X12327299Y-21941073D01*
X12327299Y-21941073D02*
X12317775Y-21950597D01*
X12317775Y-21950597D02*
X12298727Y-21960121D01*
X12298727Y-21960121D02*
X12260632Y-21960121D01*
X12260632Y-21960121D02*
X12241584Y-21950597D01*
X12451108Y-21960121D02*
X12432061Y-21950597D01*
X12432061Y-21950597D02*
X12422537Y-21931549D01*
X12422537Y-21931549D02*
X12422537Y-21760121D01*
X12613013Y-21960121D02*
X12613013Y-21855359D01*
X12613013Y-21855359D02*
X12603489Y-21836311D01*
X12603489Y-21836311D02*
X12584442Y-21826787D01*
X12584442Y-21826787D02*
X12546346Y-21826787D01*
X12546346Y-21826787D02*
X12527299Y-21836311D01*
X12613013Y-21950597D02*
X12593965Y-21960121D01*
X12593965Y-21960121D02*
X12546346Y-21960121D01*
X12546346Y-21960121D02*
X12527299Y-21950597D01*
X12527299Y-21950597D02*
X12517775Y-21931549D01*
X12517775Y-21931549D02*
X12517775Y-21912502D01*
X12517775Y-21912502D02*
X12527299Y-21893454D01*
X12527299Y-21893454D02*
X12546346Y-21883930D01*
X12546346Y-21883930D02*
X12593965Y-21883930D01*
X12593965Y-21883930D02*
X12613013Y-21874407D01*
X12679680Y-21826787D02*
X12755870Y-21826787D01*
X12708251Y-21760121D02*
X12708251Y-21931549D01*
X12708251Y-21931549D02*
X12717775Y-21950597D01*
X12717775Y-21950597D02*
X12736822Y-21960121D01*
X12736822Y-21960121D02*
X12755870Y-21960121D01*
X12898727Y-21950597D02*
X12879680Y-21960121D01*
X12879680Y-21960121D02*
X12841584Y-21960121D01*
X12841584Y-21960121D02*
X12822537Y-21950597D01*
X12822537Y-21950597D02*
X12813013Y-21931549D01*
X12813013Y-21931549D02*
X12813013Y-21855359D01*
X12813013Y-21855359D02*
X12822537Y-21836311D01*
X12822537Y-21836311D02*
X12841584Y-21826787D01*
X12841584Y-21826787D02*
X12879680Y-21826787D01*
X12879680Y-21826787D02*
X12898727Y-21836311D01*
X12898727Y-21836311D02*
X12908251Y-21855359D01*
X12908251Y-21855359D02*
X12908251Y-21874407D01*
X12908251Y-21874407D02*
X12813013Y-21893454D01*
X13079680Y-21960121D02*
X13079680Y-21760121D01*
X13079680Y-21950597D02*
X13060632Y-21960121D01*
X13060632Y-21960121D02*
X13022537Y-21960121D01*
X13022537Y-21960121D02*
X13003489Y-21950597D01*
X13003489Y-21950597D02*
X12993965Y-21941073D01*
X12993965Y-21941073D02*
X12984442Y-21922026D01*
X12984442Y-21922026D02*
X12984442Y-21864883D01*
X12984442Y-21864883D02*
X12993965Y-21845835D01*
X12993965Y-21845835D02*
X13003489Y-21836311D01*
X13003489Y-21836311D02*
X13022537Y-21826787D01*
X13022537Y-21826787D02*
X13060632Y-21826787D01*
X13060632Y-21826787D02*
X13079680Y-21836311D01*
X13155870Y-22036311D02*
X13165394Y-22026787D01*
X13165394Y-22026787D02*
X13184442Y-21998216D01*
X13184442Y-21998216D02*
X13193965Y-21979168D01*
X13193965Y-21979168D02*
X13203489Y-21950597D01*
X13203489Y-21950597D02*
X13213013Y-21902978D01*
X13213013Y-21902978D02*
X13213013Y-21864883D01*
X13213013Y-21864883D02*
X13203489Y-21817264D01*
X13203489Y-21817264D02*
X13193965Y-21788692D01*
X13193965Y-21788692D02*
X13184442Y-21769645D01*
X13184442Y-21769645D02*
X13165394Y-21741073D01*
X13165394Y-21741073D02*
X13155870Y-21731549D01*
X6222536Y-22162597D02*
G75*
G03*
X6222536Y-22162597I-100000J0D01*
G01*
X6555870Y-22121787D02*
X6555870Y-22255121D01*
X6508250Y-22045597D02*
X6460631Y-22188454D01*
X6460631Y-22188454D02*
X6584441Y-22188454D01*
X6660631Y-22236073D02*
X6670155Y-22245597D01*
X6670155Y-22245597D02*
X6660631Y-22255121D01*
X6660631Y-22255121D02*
X6651108Y-22245597D01*
X6651108Y-22245597D02*
X6660631Y-22236073D01*
X6660631Y-22236073D02*
X6660631Y-22255121D01*
X6793965Y-22055121D02*
X6813012Y-22055121D01*
X6813012Y-22055121D02*
X6832060Y-22064645D01*
X6832060Y-22064645D02*
X6841584Y-22074168D01*
X6841584Y-22074168D02*
X6851108Y-22093216D01*
X6851108Y-22093216D02*
X6860631Y-22131311D01*
X6860631Y-22131311D02*
X6860631Y-22178930D01*
X6860631Y-22178930D02*
X6851108Y-22217026D01*
X6851108Y-22217026D02*
X6841584Y-22236073D01*
X6841584Y-22236073D02*
X6832060Y-22245597D01*
X6832060Y-22245597D02*
X6813012Y-22255121D01*
X6813012Y-22255121D02*
X6793965Y-22255121D01*
X6793965Y-22255121D02*
X6774917Y-22245597D01*
X6774917Y-22245597D02*
X6765393Y-22236073D01*
X6765393Y-22236073D02*
X6755870Y-22217026D01*
X6755870Y-22217026D02*
X6746346Y-22178930D01*
X6746346Y-22178930D02*
X6746346Y-22131311D01*
X6746346Y-22131311D02*
X6755870Y-22093216D01*
X6755870Y-22093216D02*
X6765393Y-22074168D01*
X6765393Y-22074168D02*
X6774917Y-22064645D01*
X6774917Y-22064645D02*
X6793965Y-22055121D01*
X6984441Y-22055121D02*
X7003489Y-22055121D01*
X7003489Y-22055121D02*
X7022536Y-22064645D01*
X7022536Y-22064645D02*
X7032060Y-22074168D01*
X7032060Y-22074168D02*
X7041584Y-22093216D01*
X7041584Y-22093216D02*
X7051108Y-22131311D01*
X7051108Y-22131311D02*
X7051108Y-22178930D01*
X7051108Y-22178930D02*
X7041584Y-22217026D01*
X7041584Y-22217026D02*
X7032060Y-22236073D01*
X7032060Y-22236073D02*
X7022536Y-22245597D01*
X7022536Y-22245597D02*
X7003489Y-22255121D01*
X7003489Y-22255121D02*
X6984441Y-22255121D01*
X6984441Y-22255121D02*
X6965393Y-22245597D01*
X6965393Y-22245597D02*
X6955870Y-22236073D01*
X6955870Y-22236073D02*
X6946346Y-22217026D01*
X6946346Y-22217026D02*
X6936822Y-22178930D01*
X6936822Y-22178930D02*
X6936822Y-22131311D01*
X6936822Y-22131311D02*
X6946346Y-22093216D01*
X6946346Y-22093216D02*
X6955870Y-22074168D01*
X6955870Y-22074168D02*
X6965393Y-22064645D01*
X6965393Y-22064645D02*
X6984441Y-22055121D01*
X7174917Y-22055121D02*
X7193965Y-22055121D01*
X7193965Y-22055121D02*
X7213012Y-22064645D01*
X7213012Y-22064645D02*
X7222536Y-22074168D01*
X7222536Y-22074168D02*
X7232060Y-22093216D01*
X7232060Y-22093216D02*
X7241584Y-22131311D01*
X7241584Y-22131311D02*
X7241584Y-22178930D01*
X7241584Y-22178930D02*
X7232060Y-22217026D01*
X7232060Y-22217026D02*
X7222536Y-22236073D01*
X7222536Y-22236073D02*
X7213012Y-22245597D01*
X7213012Y-22245597D02*
X7193965Y-22255121D01*
X7193965Y-22255121D02*
X7174917Y-22255121D01*
X7174917Y-22255121D02*
X7155870Y-22245597D01*
X7155870Y-22245597D02*
X7146346Y-22236073D01*
X7146346Y-22236073D02*
X7136822Y-22217026D01*
X7136822Y-22217026D02*
X7127298Y-22178930D01*
X7127298Y-22178930D02*
X7127298Y-22131311D01*
X7127298Y-22131311D02*
X7136822Y-22093216D01*
X7136822Y-22093216D02*
X7146346Y-22074168D01*
X7146346Y-22074168D02*
X7155870Y-22064645D01*
X7155870Y-22064645D02*
X7174917Y-22055121D01*
X7327298Y-22255121D02*
X7327298Y-22121787D01*
X7327298Y-22140835D02*
X7336822Y-22131311D01*
X7336822Y-22131311D02*
X7355870Y-22121787D01*
X7355870Y-22121787D02*
X7384441Y-22121787D01*
X7384441Y-22121787D02*
X7403489Y-22131311D01*
X7403489Y-22131311D02*
X7413012Y-22150359D01*
X7413012Y-22150359D02*
X7413012Y-22255121D01*
X7413012Y-22150359D02*
X7422536Y-22131311D01*
X7422536Y-22131311D02*
X7441584Y-22121787D01*
X7441584Y-22121787D02*
X7470155Y-22121787D01*
X7470155Y-22121787D02*
X7489203Y-22131311D01*
X7489203Y-22131311D02*
X7498727Y-22150359D01*
X7498727Y-22150359D02*
X7498727Y-22255121D01*
X7593965Y-22255121D02*
X7593965Y-22121787D01*
X7593965Y-22140835D02*
X7603489Y-22131311D01*
X7603489Y-22131311D02*
X7622536Y-22121787D01*
X7622536Y-22121787D02*
X7651108Y-22121787D01*
X7651108Y-22121787D02*
X7670155Y-22131311D01*
X7670155Y-22131311D02*
X7679679Y-22150359D01*
X7679679Y-22150359D02*
X7679679Y-22255121D01*
X7679679Y-22150359D02*
X7689203Y-22131311D01*
X7689203Y-22131311D02*
X7708251Y-22121787D01*
X7708251Y-22121787D02*
X7736822Y-22121787D01*
X7736822Y-22121787D02*
X7755870Y-22131311D01*
X7755870Y-22131311D02*
X7765393Y-22150359D01*
X7765393Y-22150359D02*
X7765393Y-22255121D01*
X8155870Y-22045597D02*
X7984441Y-22302740D01*
X8413013Y-22055121D02*
X8432060Y-22055121D01*
X8432060Y-22055121D02*
X8451108Y-22064645D01*
X8451108Y-22064645D02*
X8460632Y-22074168D01*
X8460632Y-22074168D02*
X8470156Y-22093216D01*
X8470156Y-22093216D02*
X8479679Y-22131311D01*
X8479679Y-22131311D02*
X8479679Y-22178930D01*
X8479679Y-22178930D02*
X8470156Y-22217026D01*
X8470156Y-22217026D02*
X8460632Y-22236073D01*
X8460632Y-22236073D02*
X8451108Y-22245597D01*
X8451108Y-22245597D02*
X8432060Y-22255121D01*
X8432060Y-22255121D02*
X8413013Y-22255121D01*
X8413013Y-22255121D02*
X8393965Y-22245597D01*
X8393965Y-22245597D02*
X8384441Y-22236073D01*
X8384441Y-22236073D02*
X8374917Y-22217026D01*
X8374917Y-22217026D02*
X8365394Y-22178930D01*
X8365394Y-22178930D02*
X8365394Y-22131311D01*
X8365394Y-22131311D02*
X8374917Y-22093216D01*
X8374917Y-22093216D02*
X8384441Y-22074168D01*
X8384441Y-22074168D02*
X8393965Y-22064645D01*
X8393965Y-22064645D02*
X8413013Y-22055121D01*
X8565394Y-22236073D02*
X8574917Y-22245597D01*
X8574917Y-22245597D02*
X8565394Y-22255121D01*
X8565394Y-22255121D02*
X8555870Y-22245597D01*
X8555870Y-22245597D02*
X8565394Y-22236073D01*
X8565394Y-22236073D02*
X8565394Y-22255121D01*
X8765394Y-22255121D02*
X8651108Y-22255121D01*
X8708251Y-22255121D02*
X8708251Y-22055121D01*
X8708251Y-22055121D02*
X8689203Y-22083692D01*
X8689203Y-22083692D02*
X8670156Y-22102740D01*
X8670156Y-22102740D02*
X8651108Y-22112264D01*
X8946346Y-22055121D02*
X8851108Y-22055121D01*
X8851108Y-22055121D02*
X8841584Y-22150359D01*
X8841584Y-22150359D02*
X8851108Y-22140835D01*
X8851108Y-22140835D02*
X8870156Y-22131311D01*
X8870156Y-22131311D02*
X8917775Y-22131311D01*
X8917775Y-22131311D02*
X8936822Y-22140835D01*
X8936822Y-22140835D02*
X8946346Y-22150359D01*
X8946346Y-22150359D02*
X8955870Y-22169407D01*
X8955870Y-22169407D02*
X8955870Y-22217026D01*
X8955870Y-22217026D02*
X8946346Y-22236073D01*
X8946346Y-22236073D02*
X8936822Y-22245597D01*
X8936822Y-22245597D02*
X8917775Y-22255121D01*
X8917775Y-22255121D02*
X8870156Y-22255121D01*
X8870156Y-22255121D02*
X8851108Y-22245597D01*
X8851108Y-22245597D02*
X8841584Y-22236073D01*
X9022537Y-22055121D02*
X9155870Y-22055121D01*
X9155870Y-22055121D02*
X9070156Y-22255121D01*
X9327298Y-22055121D02*
X9232060Y-22055121D01*
X9232060Y-22055121D02*
X9222537Y-22150359D01*
X9222537Y-22150359D02*
X9232060Y-22140835D01*
X9232060Y-22140835D02*
X9251108Y-22131311D01*
X9251108Y-22131311D02*
X9298727Y-22131311D01*
X9298727Y-22131311D02*
X9317775Y-22140835D01*
X9317775Y-22140835D02*
X9327298Y-22150359D01*
X9327298Y-22150359D02*
X9336822Y-22169407D01*
X9336822Y-22169407D02*
X9336822Y-22217026D01*
X9336822Y-22217026D02*
X9327298Y-22236073D01*
X9327298Y-22236073D02*
X9317775Y-22245597D01*
X9317775Y-22245597D02*
X9298727Y-22255121D01*
X9298727Y-22255121D02*
X9251108Y-22255121D01*
X9251108Y-22255121D02*
X9232060Y-22245597D01*
X9232060Y-22245597D02*
X9222537Y-22236073D01*
X9413013Y-22055121D02*
X9413013Y-22093216D01*
X9489203Y-22055121D02*
X9489203Y-22093216D01*
X9784441Y-22331311D02*
X9774918Y-22321787D01*
X9774918Y-22321787D02*
X9755870Y-22293216D01*
X9755870Y-22293216D02*
X9746346Y-22274168D01*
X9746346Y-22274168D02*
X9736822Y-22245597D01*
X9736822Y-22245597D02*
X9727299Y-22197978D01*
X9727299Y-22197978D02*
X9727299Y-22159883D01*
X9727299Y-22159883D02*
X9736822Y-22112264D01*
X9736822Y-22112264D02*
X9746346Y-22083692D01*
X9746346Y-22083692D02*
X9755870Y-22064645D01*
X9755870Y-22064645D02*
X9774918Y-22036073D01*
X9774918Y-22036073D02*
X9784441Y-22026549D01*
X9841584Y-22055121D02*
X9965394Y-22055121D01*
X9965394Y-22055121D02*
X9898727Y-22131311D01*
X9898727Y-22131311D02*
X9927299Y-22131311D01*
X9927299Y-22131311D02*
X9946346Y-22140835D01*
X9946346Y-22140835D02*
X9955870Y-22150359D01*
X9955870Y-22150359D02*
X9965394Y-22169407D01*
X9965394Y-22169407D02*
X9965394Y-22217026D01*
X9965394Y-22217026D02*
X9955870Y-22236073D01*
X9955870Y-22236073D02*
X9946346Y-22245597D01*
X9946346Y-22245597D02*
X9927299Y-22255121D01*
X9927299Y-22255121D02*
X9870156Y-22255121D01*
X9870156Y-22255121D02*
X9851108Y-22245597D01*
X9851108Y-22245597D02*
X9841584Y-22236073D01*
X10136822Y-22121787D02*
X10136822Y-22255121D01*
X10089203Y-22045597D02*
X10041584Y-22188454D01*
X10041584Y-22188454D02*
X10165394Y-22188454D01*
X10393965Y-22255121D02*
X10393965Y-22055121D01*
X10479680Y-22255121D02*
X10479680Y-22150359D01*
X10479680Y-22150359D02*
X10470156Y-22131311D01*
X10470156Y-22131311D02*
X10451108Y-22121787D01*
X10451108Y-22121787D02*
X10422537Y-22121787D01*
X10422537Y-22121787D02*
X10403489Y-22131311D01*
X10403489Y-22131311D02*
X10393965Y-22140835D01*
X10603489Y-22255121D02*
X10584441Y-22245597D01*
X10584441Y-22245597D02*
X10574918Y-22236073D01*
X10574918Y-22236073D02*
X10565394Y-22217026D01*
X10565394Y-22217026D02*
X10565394Y-22159883D01*
X10565394Y-22159883D02*
X10574918Y-22140835D01*
X10574918Y-22140835D02*
X10584441Y-22131311D01*
X10584441Y-22131311D02*
X10603489Y-22121787D01*
X10603489Y-22121787D02*
X10632061Y-22121787D01*
X10632061Y-22121787D02*
X10651108Y-22131311D01*
X10651108Y-22131311D02*
X10660632Y-22140835D01*
X10660632Y-22140835D02*
X10670156Y-22159883D01*
X10670156Y-22159883D02*
X10670156Y-22217026D01*
X10670156Y-22217026D02*
X10660632Y-22236073D01*
X10660632Y-22236073D02*
X10651108Y-22245597D01*
X10651108Y-22245597D02*
X10632061Y-22255121D01*
X10632061Y-22255121D02*
X10603489Y-22255121D01*
X10784441Y-22255121D02*
X10765394Y-22245597D01*
X10765394Y-22245597D02*
X10755870Y-22226549D01*
X10755870Y-22226549D02*
X10755870Y-22055121D01*
X10936822Y-22245597D02*
X10917775Y-22255121D01*
X10917775Y-22255121D02*
X10879680Y-22255121D01*
X10879680Y-22255121D02*
X10860632Y-22245597D01*
X10860632Y-22245597D02*
X10851108Y-22226549D01*
X10851108Y-22226549D02*
X10851108Y-22150359D01*
X10851108Y-22150359D02*
X10860632Y-22131311D01*
X10860632Y-22131311D02*
X10879680Y-22121787D01*
X10879680Y-22121787D02*
X10917775Y-22121787D01*
X10917775Y-22121787D02*
X10936822Y-22131311D01*
X10936822Y-22131311D02*
X10946346Y-22150359D01*
X10946346Y-22150359D02*
X10946346Y-22169407D01*
X10946346Y-22169407D02*
X10851108Y-22188454D01*
X11022537Y-22245597D02*
X11041584Y-22255121D01*
X11041584Y-22255121D02*
X11079680Y-22255121D01*
X11079680Y-22255121D02*
X11098727Y-22245597D01*
X11098727Y-22245597D02*
X11108251Y-22226549D01*
X11108251Y-22226549D02*
X11108251Y-22217026D01*
X11108251Y-22217026D02*
X11098727Y-22197978D01*
X11098727Y-22197978D02*
X11079680Y-22188454D01*
X11079680Y-22188454D02*
X11051108Y-22188454D01*
X11051108Y-22188454D02*
X11032061Y-22178930D01*
X11032061Y-22178930D02*
X11022537Y-22159883D01*
X11022537Y-22159883D02*
X11022537Y-22150359D01*
X11022537Y-22150359D02*
X11032061Y-22131311D01*
X11032061Y-22131311D02*
X11051108Y-22121787D01*
X11051108Y-22121787D02*
X11079680Y-22121787D01*
X11079680Y-22121787D02*
X11098727Y-22131311D01*
X11174918Y-22331311D02*
X11184442Y-22321787D01*
X11184442Y-22321787D02*
X11203489Y-22293216D01*
X11203489Y-22293216D02*
X11213013Y-22274168D01*
X11213013Y-22274168D02*
X11222537Y-22245597D01*
X11222537Y-22245597D02*
X11232060Y-22197978D01*
X11232060Y-22197978D02*
X11232060Y-22159883D01*
X11232060Y-22159883D02*
X11222537Y-22112264D01*
X11222537Y-22112264D02*
X11213013Y-22083692D01*
X11213013Y-22083692D02*
X11203489Y-22064645D01*
X11203489Y-22064645D02*
X11184442Y-22036073D01*
X11184442Y-22036073D02*
X11174918Y-22026549D01*
X11536822Y-22331311D02*
X11527299Y-22321787D01*
X11527299Y-22321787D02*
X11508251Y-22293216D01*
X11508251Y-22293216D02*
X11498727Y-22274168D01*
X11498727Y-22274168D02*
X11489203Y-22245597D01*
X11489203Y-22245597D02*
X11479680Y-22197978D01*
X11479680Y-22197978D02*
X11479680Y-22159883D01*
X11479680Y-22159883D02*
X11489203Y-22112264D01*
X11489203Y-22112264D02*
X11498727Y-22083692D01*
X11498727Y-22083692D02*
X11508251Y-22064645D01*
X11508251Y-22064645D02*
X11527299Y-22036073D01*
X11527299Y-22036073D02*
X11536822Y-22026549D01*
X11613013Y-22121787D02*
X11613013Y-22255121D01*
X11613013Y-22140835D02*
X11622537Y-22131311D01*
X11622537Y-22131311D02*
X11641584Y-22121787D01*
X11641584Y-22121787D02*
X11670156Y-22121787D01*
X11670156Y-22121787D02*
X11689203Y-22131311D01*
X11689203Y-22131311D02*
X11698727Y-22150359D01*
X11698727Y-22150359D02*
X11698727Y-22255121D01*
X11822537Y-22255121D02*
X11803489Y-22245597D01*
X11803489Y-22245597D02*
X11793965Y-22236073D01*
X11793965Y-22236073D02*
X11784441Y-22217026D01*
X11784441Y-22217026D02*
X11784441Y-22159883D01*
X11784441Y-22159883D02*
X11793965Y-22140835D01*
X11793965Y-22140835D02*
X11803489Y-22131311D01*
X11803489Y-22131311D02*
X11822537Y-22121787D01*
X11822537Y-22121787D02*
X11851108Y-22121787D01*
X11851108Y-22121787D02*
X11870156Y-22131311D01*
X11870156Y-22131311D02*
X11879680Y-22140835D01*
X11879680Y-22140835D02*
X11889203Y-22159883D01*
X11889203Y-22159883D02*
X11889203Y-22217026D01*
X11889203Y-22217026D02*
X11879680Y-22236073D01*
X11879680Y-22236073D02*
X11870156Y-22245597D01*
X11870156Y-22245597D02*
X11851108Y-22255121D01*
X11851108Y-22255121D02*
X11822537Y-22255121D01*
X11946346Y-22121787D02*
X12022537Y-22121787D01*
X11974918Y-22055121D02*
X11974918Y-22226549D01*
X11974918Y-22226549D02*
X11984441Y-22245597D01*
X11984441Y-22245597D02*
X12003489Y-22255121D01*
X12003489Y-22255121D02*
X12022537Y-22255121D01*
X12241584Y-22121787D02*
X12241584Y-22321787D01*
X12241584Y-22131311D02*
X12260632Y-22121787D01*
X12260632Y-22121787D02*
X12298727Y-22121787D01*
X12298727Y-22121787D02*
X12317775Y-22131311D01*
X12317775Y-22131311D02*
X12327299Y-22140835D01*
X12327299Y-22140835D02*
X12336822Y-22159883D01*
X12336822Y-22159883D02*
X12336822Y-22217026D01*
X12336822Y-22217026D02*
X12327299Y-22236073D01*
X12327299Y-22236073D02*
X12317775Y-22245597D01*
X12317775Y-22245597D02*
X12298727Y-22255121D01*
X12298727Y-22255121D02*
X12260632Y-22255121D01*
X12260632Y-22255121D02*
X12241584Y-22245597D01*
X12451108Y-22255121D02*
X12432061Y-22245597D01*
X12432061Y-22245597D02*
X12422537Y-22226549D01*
X12422537Y-22226549D02*
X12422537Y-22055121D01*
X12613013Y-22255121D02*
X12613013Y-22150359D01*
X12613013Y-22150359D02*
X12603489Y-22131311D01*
X12603489Y-22131311D02*
X12584442Y-22121787D01*
X12584442Y-22121787D02*
X12546346Y-22121787D01*
X12546346Y-22121787D02*
X12527299Y-22131311D01*
X12613013Y-22245597D02*
X12593965Y-22255121D01*
X12593965Y-22255121D02*
X12546346Y-22255121D01*
X12546346Y-22255121D02*
X12527299Y-22245597D01*
X12527299Y-22245597D02*
X12517775Y-22226549D01*
X12517775Y-22226549D02*
X12517775Y-22207502D01*
X12517775Y-22207502D02*
X12527299Y-22188454D01*
X12527299Y-22188454D02*
X12546346Y-22178930D01*
X12546346Y-22178930D02*
X12593965Y-22178930D01*
X12593965Y-22178930D02*
X12613013Y-22169407D01*
X12679680Y-22121787D02*
X12755870Y-22121787D01*
X12708251Y-22055121D02*
X12708251Y-22226549D01*
X12708251Y-22226549D02*
X12717775Y-22245597D01*
X12717775Y-22245597D02*
X12736822Y-22255121D01*
X12736822Y-22255121D02*
X12755870Y-22255121D01*
X12898727Y-22245597D02*
X12879680Y-22255121D01*
X12879680Y-22255121D02*
X12841584Y-22255121D01*
X12841584Y-22255121D02*
X12822537Y-22245597D01*
X12822537Y-22245597D02*
X12813013Y-22226549D01*
X12813013Y-22226549D02*
X12813013Y-22150359D01*
X12813013Y-22150359D02*
X12822537Y-22131311D01*
X12822537Y-22131311D02*
X12841584Y-22121787D01*
X12841584Y-22121787D02*
X12879680Y-22121787D01*
X12879680Y-22121787D02*
X12898727Y-22131311D01*
X12898727Y-22131311D02*
X12908251Y-22150359D01*
X12908251Y-22150359D02*
X12908251Y-22169407D01*
X12908251Y-22169407D02*
X12813013Y-22188454D01*
X13079680Y-22255121D02*
X13079680Y-22055121D01*
X13079680Y-22245597D02*
X13060632Y-22255121D01*
X13060632Y-22255121D02*
X13022537Y-22255121D01*
X13022537Y-22255121D02*
X13003489Y-22245597D01*
X13003489Y-22245597D02*
X12993965Y-22236073D01*
X12993965Y-22236073D02*
X12984442Y-22217026D01*
X12984442Y-22217026D02*
X12984442Y-22159883D01*
X12984442Y-22159883D02*
X12993965Y-22140835D01*
X12993965Y-22140835D02*
X13003489Y-22131311D01*
X13003489Y-22131311D02*
X13022537Y-22121787D01*
X13022537Y-22121787D02*
X13060632Y-22121787D01*
X13060632Y-22121787D02*
X13079680Y-22131311D01*
X13155870Y-22331311D02*
X13165394Y-22321787D01*
X13165394Y-22321787D02*
X13184442Y-22293216D01*
X13184442Y-22293216D02*
X13193965Y-22274168D01*
X13193965Y-22274168D02*
X13203489Y-22245597D01*
X13203489Y-22245597D02*
X13213013Y-22197978D01*
X13213013Y-22197978D02*
X13213013Y-22159883D01*
X13213013Y-22159883D02*
X13203489Y-22112264D01*
X13203489Y-22112264D02*
X13193965Y-22083692D01*
X13193965Y-22083692D02*
X13184442Y-22064645D01*
X13184442Y-22064645D02*
X13165394Y-22036073D01*
X13165394Y-22036073D02*
X13155870Y-22026549D01*
M02*
