%TF.GenerationSoftware,KiCad,Pcbnew,7.0.1-0*%
%TF.CreationDate,2023-05-23T20:01:30-04:00*%
%TF.ProjectId,fidrildi4,66696472-696c-4646-9934-2e6b69636164,rev?*%
%TF.SameCoordinates,Original*%
%TF.FileFunction,Soldermask,Bot*%
%TF.FilePolarity,Negative*%
%FSLAX46Y46*%
G04 Gerber Fmt 4.6, Leading zero omitted, Abs format (unit mm)*
G04 Created by KiCad (PCBNEW 7.0.1-0) date 2023-05-23 20:01:30*
%MOMM*%
%LPD*%
G01*
G04 APERTURE LIST*
G04 Aperture macros list*
%AMRoundRect*
0 Rectangle with rounded corners*
0 $1 Rounding radius*
0 $2 $3 $4 $5 $6 $7 $8 $9 X,Y pos of 4 corners*
0 Add a 4 corners polygon primitive as box body*
4,1,4,$2,$3,$4,$5,$6,$7,$8,$9,$2,$3,0*
0 Add four circle primitives for the rounded corners*
1,1,$1+$1,$2,$3*
1,1,$1+$1,$4,$5*
1,1,$1+$1,$6,$7*
1,1,$1+$1,$8,$9*
0 Add four rect primitives between the rounded corners*
20,1,$1+$1,$2,$3,$4,$5,0*
20,1,$1+$1,$4,$5,$6,$7,0*
20,1,$1+$1,$6,$7,$8,$9,0*
20,1,$1+$1,$8,$9,$2,$3,0*%
%AMRotRect*
0 Rectangle, with rotation*
0 The origin of the aperture is its center*
0 $1 length*
0 $2 width*
0 $3 Rotation angle, in degrees counterclockwise*
0 Add horizontal line*
21,1,$1,$2,0,0,$3*%
G04 Aperture macros list end*
%ADD10RotRect,1.600000X0.820000X220.000000*%
%ADD11C,3.500000*%
%ADD12RotRect,1.600000X0.820000X353.000000*%
%ADD13RotRect,1.600000X0.820000X197.500000*%
%ADD14RoundRect,0.250000X1.305205X0.589122X-0.621165X1.290263X-1.305205X-0.589122X0.621165X-1.290263X0*%
%ADD15C,1.750000*%
%ADD16C,4.000000*%
%ADD17C,3.600000*%
%ADD18RoundRect,0.250000X-1.424902X0.142408X-0.107187X-1.427983X1.424902X-0.142408X0.107187X1.427983X0*%
%ADD19RotRect,1.600000X0.820000X18.000000*%
%ADD20RoundRect,0.250000X0.621165X1.290263X-1.305205X0.589122X-0.621165X-1.290263X1.305205X-0.589122X0*%
%ADD21RotRect,1.600000X0.820000X29.250000*%
%ADD22RotRect,1.600000X0.820000X111.000000*%
%ADD23RotRect,3.200000X2.000000X210.000000*%
%ADD24RotRect,2.000000X2.000000X210.000000*%
%ADD25C,2.000000*%
%ADD26RotRect,1.600000X0.820000X17.250000*%
%ADD27RotRect,1.600000X0.820000X257.250000*%
%ADD28RotRect,1.600000X0.820000X341.500000*%
%ADD29RotRect,1.600000X0.820000X335.500000*%
%ADD30RotRect,1.600000X0.820000X54.000000*%
%ADD31RotRect,1.600000X0.820000X306.250000*%
%ADD32RotRect,1.600000X0.820000X181.750000*%
%ADD33RotRect,1.600000X0.820000X178.000000*%
%ADD34RotRect,1.600000X0.820000X328.000000*%
%ADD35RotRect,1.600000X0.820000X329.000000*%
%ADD36RotRect,1.600000X0.820000X134.500000*%
%ADD37R,1.700000X1.700000*%
%ADD38O,1.700000X1.700000*%
%ADD39RoundRect,0.250000X-1.413207X-0.231236X0.266054X-1.407068X1.413207X0.231236X-0.266054X1.407068X0*%
%ADD40RotRect,1.600000X0.820000X8.750000*%
%ADD41RotRect,1.600000X0.820000X164.500000*%
%ADD42RotRect,1.600000X0.820000X250.500000*%
%ADD43RoundRect,0.250000X-0.266054X-1.407068X1.413207X-0.231236X0.266054X1.407068X-1.413207X0.231236X0*%
%ADD44RotRect,1.600000X0.820000X331.000000*%
%ADD45RotRect,1.600000X0.820000X182.500000*%
%ADD46RotRect,1.600000X0.820000X219.000000*%
%ADD47RotRect,1.600000X0.820000X347.000000*%
%ADD48RotRect,1.600000X0.820000X155.500000*%
%ADD49RoundRect,0.250000X0.107187X-1.427983X1.424902X0.142408X-0.107187X1.427983X-1.424902X-0.142408X0*%
%ADD50RotRect,1.600000X0.820000X32.500000*%
%ADD51C,1.600000*%
%ADD52RotRect,1.600000X0.820000X226.000000*%
%ADD53RotRect,1.600000X0.820000X140.250000*%
%ADD54R,1.600000X0.820000*%
%ADD55RotRect,1.600000X0.820000X202.250000*%
%ADD56RotRect,1.600000X0.820000X141.000000*%
%ADD57RotRect,1.600000X0.820000X101.000000*%
%ADD58RotRect,1.600000X0.820000X200.000000*%
%ADD59RotRect,1.600000X0.820000X260.000000*%
%ADD60RotRect,1.600000X0.820000X162.000000*%
%ADD61RotRect,1.600000X0.820000X102.000000*%
%ADD62RotRect,1.600000X0.820000X23.500000*%
%ADD63RotRect,1.600000X0.820000X76.500000*%
%ADD64RotRect,1.600000X0.820000X285.000000*%
%ADD65RotRect,1.600000X0.820000X183.000000*%
%ADD66RotRect,1.000000X1.200000X20.000000*%
%ADD67RotRect,1.000000X1.200000X160.000000*%
%ADD68RotRect,1.000000X1.200000X250.000000*%
%ADD69RotRect,1.000000X1.200000X290.000000*%
%ADD70RoundRect,0.250000X0.450000X-0.350000X0.450000X0.350000X-0.450000X0.350000X-0.450000X-0.350000X0*%
%ADD71RotRect,1.700000X1.000000X210.000000*%
G04 APERTURE END LIST*
D10*
X189277015Y-183234728D03*
X188312834Y-182085661D03*
X184022985Y-185685272D03*
X184987166Y-186834339D03*
D11*
X158110000Y-126300000D03*
D12*
X110022273Y-89374356D03*
X109839469Y-90863175D03*
X115397727Y-91545644D03*
X115580531Y-90056825D03*
D13*
X305420000Y-149660000D03*
X304968941Y-148229425D03*
X299628126Y-149913378D03*
X300079185Y-151343953D03*
D14*
X103025352Y-106212570D03*
D15*
X102010000Y-103140000D03*
D16*
X97236361Y-101402538D03*
D15*
X92462722Y-99665076D03*
D14*
X90009214Y-104178095D03*
D17*
X99947859Y-105092454D03*
X93112079Y-105307445D03*
D18*
X159721603Y-183339895D03*
D15*
X159064639Y-186508494D03*
D16*
X162330000Y-190400000D03*
D15*
X165595361Y-194291506D03*
D18*
X169976671Y-191609871D03*
D17*
X161826732Y-185848690D03*
X167854186Y-189080392D03*
D19*
X287165279Y-94821955D03*
X287628805Y-96248540D03*
X292954721Y-94518045D03*
X292491195Y-93091460D03*
D20*
X264012814Y-141451069D03*
D15*
X261260000Y-139750000D03*
D16*
X256486361Y-141487462D03*
D15*
X251712722Y-143224924D03*
D20*
X252734139Y-148259182D03*
D17*
X260935321Y-142571185D03*
X255837004Y-147129832D03*
D11*
X266220000Y-197210000D03*
D21*
X254600545Y-109843767D03*
X255333477Y-111152511D03*
X260219455Y-108416233D03*
X259486523Y-107107489D03*
D11*
X330710000Y-108620000D03*
D22*
X132643245Y-184602801D03*
X134043616Y-184065249D03*
X132036755Y-178837199D03*
X130636384Y-179374751D03*
D23*
X236810481Y-170089743D03*
X231210481Y-160390258D03*
D24*
X241755672Y-163655064D03*
D25*
X239255672Y-159324937D03*
X240505672Y-161490000D03*
X226698304Y-166574937D03*
X229198304Y-170905064D03*
D26*
X90933538Y-91264051D03*
X91378350Y-92696581D03*
X96726462Y-91035949D03*
X96281650Y-89603419D03*
D27*
X293239460Y-160674565D03*
X291776446Y-160343518D03*
X290540540Y-165805435D03*
X292003554Y-166136482D03*
D28*
X127622672Y-93110304D03*
X127146715Y-94532790D03*
X132457328Y-96309696D03*
X132933285Y-94887210D03*
D14*
X129155352Y-145512570D03*
D15*
X128140000Y-142440000D03*
D16*
X123366361Y-140702538D03*
D15*
X118592722Y-138965076D03*
D14*
X116139214Y-143478095D03*
D17*
X126077859Y-144392454D03*
X119242079Y-144607445D03*
D29*
X144443128Y-99386388D03*
X143821089Y-100751330D03*
X148916872Y-103073612D03*
X149538911Y-101708670D03*
D30*
X77604878Y-103368818D03*
X78818403Y-104250496D03*
X82110000Y-99720000D03*
X80896475Y-98838322D03*
D20*
X291160092Y-104946145D03*
D15*
X288407278Y-103245076D03*
D16*
X283633639Y-104982538D03*
D15*
X278860000Y-106720000D03*
D20*
X279881417Y-111754258D03*
D17*
X288082599Y-106066261D03*
X282984282Y-110624908D03*
D31*
X338409166Y-97928473D03*
X337199500Y-98815437D03*
X340510834Y-103331527D03*
X341720500Y-102444563D03*
D32*
X103521598Y-149744142D03*
X103475790Y-148244842D03*
X97878402Y-148415858D03*
X97924210Y-149915158D03*
D11*
X303990000Y-131090000D03*
D20*
X343290092Y-137066145D03*
D15*
X340537278Y-135365076D03*
D16*
X335763639Y-137102538D03*
D15*
X330990000Y-138840000D03*
D20*
X332011417Y-143874258D03*
D17*
X340212599Y-138186261D03*
X335114282Y-142744908D03*
D14*
X169305352Y-146302570D03*
D15*
X168290000Y-143230000D03*
D16*
X163516361Y-141492538D03*
D15*
X158742722Y-139755076D03*
D14*
X156289214Y-144268095D03*
D17*
X166227859Y-145182454D03*
X159392079Y-145397445D03*
D11*
X89290000Y-108620000D03*
D33*
X323192120Y-149977262D03*
X323244469Y-148478175D03*
X317647880Y-148282738D03*
X317595531Y-149781825D03*
D34*
X176002905Y-116150190D03*
X175208026Y-117422262D03*
X179957095Y-120389810D03*
X180751974Y-119117738D03*
D14*
X96525352Y-124062570D03*
D15*
X95510000Y-120990000D03*
D16*
X90736361Y-119252538D03*
D15*
X85962722Y-117515076D03*
D14*
X83509214Y-122028095D03*
D17*
X93447859Y-122942454D03*
X86612079Y-123157445D03*
D14*
X142155352Y-109812570D03*
D15*
X141140000Y-106740000D03*
D16*
X136366361Y-105002538D03*
D15*
X131592722Y-103265076D03*
D14*
X129139214Y-107778095D03*
D17*
X139077859Y-108692454D03*
X132242079Y-108907445D03*
D14*
X145985352Y-154832570D03*
D15*
X144970000Y-151760000D03*
D16*
X140196361Y-150022538D03*
D15*
X135422722Y-148285076D03*
D14*
X132969214Y-152798095D03*
D17*
X142907859Y-153712454D03*
X136072079Y-153927445D03*
D35*
X191206210Y-125735018D03*
X190433653Y-127020769D03*
X195233790Y-129904982D03*
X196006347Y-128619231D03*
D14*
X110268991Y-141840032D03*
D15*
X109253639Y-138767462D03*
D16*
X104480000Y-137030000D03*
D15*
X99706361Y-135292538D03*
D14*
X97252853Y-139805557D03*
D17*
X107191498Y-140719916D03*
X100355718Y-140934907D03*
D14*
X135652630Y-127667494D03*
D15*
X134637278Y-124594924D03*
D16*
X129863639Y-122857462D03*
D15*
X125090000Y-121120000D03*
D14*
X122636492Y-125633019D03*
D17*
X132575137Y-126547378D03*
X125739357Y-126762369D03*
D20*
X304150092Y-140666145D03*
D15*
X301397278Y-138965076D03*
D16*
X296623639Y-140702538D03*
D15*
X291850000Y-142440000D03*
D20*
X292871417Y-147474258D03*
D17*
X301072599Y-141786261D03*
X295974282Y-146344908D03*
D11*
X182610000Y-140350000D03*
X182610000Y-159050000D03*
X209110000Y-140350000D03*
X209110000Y-159050000D03*
D36*
X143387608Y-199082783D03*
X144457484Y-198031419D03*
X140532392Y-194037217D03*
X139462516Y-195088581D03*
D37*
X186960000Y-152380000D03*
D38*
X189500000Y-152380000D03*
X192040000Y-152380000D03*
X194580000Y-152380000D03*
X197120000Y-152380000D03*
X199660000Y-152380000D03*
X202200000Y-152380000D03*
X204740000Y-152380000D03*
X207280000Y-152380000D03*
X209820000Y-152380000D03*
D39*
X137973192Y-172325565D03*
D15*
X138158708Y-175556232D03*
D16*
X142320000Y-178470000D03*
D15*
X146481292Y-181383768D03*
D39*
X150019255Y-177659541D03*
D17*
X140655915Y-174204028D03*
X147314414Y-175765592D03*
D40*
X304508495Y-90144674D03*
X304736680Y-91627217D03*
X310271505Y-90775326D03*
X310043320Y-89292783D03*
D20*
X330290092Y-101356145D03*
D15*
X327537278Y-99655076D03*
D16*
X322763639Y-101392538D03*
D15*
X317990000Y-103130000D03*
D20*
X319011417Y-108164258D03*
D17*
X327212599Y-102476261D03*
X322114282Y-107034908D03*
D20*
X336780092Y-119216145D03*
D15*
X334027278Y-117515076D03*
D16*
X329253639Y-119252538D03*
D15*
X324480000Y-120990000D03*
D20*
X325501417Y-126024258D03*
D17*
X333702599Y-120336261D03*
X328604282Y-124894908D03*
D41*
X85487736Y-149430990D03*
X85888594Y-147985545D03*
X80492264Y-146489010D03*
X80091406Y-147934455D03*
D20*
X270502814Y-159311069D03*
D15*
X267750000Y-157610000D03*
D16*
X262976361Y-159347462D03*
D15*
X258202722Y-161084924D03*
D20*
X259224139Y-166119182D03*
D17*
X267425321Y-160431185D03*
X262327004Y-164989832D03*
D14*
X152485352Y-136977494D03*
D15*
X151470000Y-133904924D03*
D16*
X146696361Y-132167462D03*
D15*
X141922722Y-130430000D03*
D14*
X139469214Y-134943019D03*
D17*
X149407859Y-135857378D03*
X142572079Y-136072369D03*
D14*
X90035352Y-141922570D03*
D15*
X89020000Y-138850000D03*
D16*
X84246361Y-137112538D03*
D15*
X79472722Y-135375076D03*
D14*
X77019214Y-139888095D03*
D17*
X86957859Y-140802454D03*
X80122079Y-141017445D03*
D42*
X289681640Y-178280959D03*
X288267678Y-177780249D03*
X286398360Y-183059041D03*
X287812322Y-183559751D03*
D43*
X270419424Y-180453143D03*
D15*
X273518708Y-181383768D03*
D16*
X277680000Y-178470000D03*
D15*
X281841292Y-175556232D03*
D43*
X279551718Y-170957874D03*
D17*
X273102147Y-178574680D03*
X276846878Y-172851823D03*
D44*
X160594672Y-107156568D03*
X159867458Y-108468498D03*
X164765328Y-111183432D03*
X165492542Y-109871502D03*
D20*
X280832814Y-132131069D03*
D15*
X278080000Y-130430000D03*
D16*
X273306361Y-132167462D03*
D15*
X268532722Y-133904924D03*
D20*
X269554139Y-138939182D03*
D17*
X277755321Y-133251185D03*
X272657004Y-137809832D03*
D45*
X160300050Y-204607152D03*
X160234620Y-203108580D03*
X154639950Y-203352848D03*
X154705380Y-204851420D03*
D20*
X323026453Y-136983607D03*
D15*
X320273639Y-135282538D03*
D16*
X315500000Y-137020000D03*
D15*
X310726361Y-138757462D03*
D20*
X311747778Y-143791720D03*
D17*
X319948960Y-138103723D03*
X314850643Y-142662370D03*
D46*
X175697999Y-194920762D03*
X174754018Y-193755043D03*
X170402001Y-197279238D03*
X171345982Y-198444957D03*
D20*
X287330092Y-149996145D03*
D15*
X284577278Y-148295076D03*
D16*
X279803639Y-150032538D03*
D15*
X275030000Y-151770000D03*
D20*
X276051417Y-156804258D03*
D17*
X284252599Y-151116261D03*
X279154282Y-155674908D03*
D47*
X322523528Y-89500274D03*
X322186102Y-90961830D03*
X327642574Y-92221556D03*
X327980000Y-90760000D03*
D48*
X221576872Y-177123612D03*
X222198911Y-175758670D03*
X217103128Y-173436388D03*
X216481089Y-174801330D03*
D20*
X274336453Y-114273607D03*
D15*
X271583639Y-112572538D03*
D16*
X266810000Y-114310000D03*
D15*
X262036361Y-116047462D03*
D20*
X263057778Y-121081720D03*
D17*
X271258960Y-115393723D03*
X266160643Y-119952370D03*
D49*
X251170097Y-194194744D03*
D15*
X254404639Y-194291506D03*
D16*
X257670000Y-190400000D03*
D15*
X260935361Y-186508494D03*
D49*
X257533659Y-182659407D03*
D17*
X253275226Y-191685949D03*
X255411175Y-185188886D03*
D50*
X239235529Y-119091895D03*
X240041479Y-120356982D03*
X244764471Y-117348105D03*
X243958521Y-116083018D03*
D51*
X218140886Y-129691773D03*
X219410886Y-131891477D03*
X220680886Y-134091182D03*
X221950886Y-136290886D03*
X223220886Y-138490591D03*
X224490886Y-140690295D03*
X225760886Y-142890000D03*
X227030886Y-145089705D03*
X228300886Y-147289409D03*
X229570886Y-149489114D03*
X230840886Y-151688818D03*
X232110886Y-153888523D03*
X233380886Y-156088227D03*
X235580591Y-154818227D03*
X237780295Y-153548227D03*
X239980000Y-152278227D03*
X242179705Y-151008227D03*
X244379409Y-149738227D03*
X246579114Y-148468227D03*
X245309114Y-146268523D03*
X244039114Y-144068818D03*
X242769114Y-141869114D03*
X241499114Y-139669409D03*
X240229114Y-137469705D03*
X238959114Y-135270000D03*
X237689114Y-133070295D03*
X236419114Y-130870591D03*
X235149114Y-128670886D03*
X233879114Y-126471182D03*
X232609114Y-124271477D03*
X231339114Y-122071773D03*
X234310591Y-152618523D03*
D52*
X281324548Y-194246842D03*
X280245539Y-193204855D03*
X276355452Y-197233158D03*
X277434461Y-198275145D03*
D53*
X235903178Y-187567061D03*
X236862336Y-186413798D03*
X232556822Y-182832939D03*
X231597664Y-183986202D03*
D54*
X207250000Y-132880000D03*
X207250000Y-134380000D03*
X212850000Y-134380000D03*
X212850000Y-132880000D03*
D20*
X297650092Y-122816145D03*
D15*
X294897278Y-121115076D03*
D16*
X290123639Y-122852538D03*
D15*
X285350000Y-124590000D03*
D20*
X286371417Y-129624258D03*
D17*
X294572599Y-123936261D03*
X289474282Y-128494908D03*
D55*
X204605500Y-174483939D03*
X204037527Y-173095628D03*
X198854500Y-175216061D03*
X199422473Y-176604372D03*
D56*
X249564018Y-199144957D03*
X250507999Y-197979238D03*
X246155982Y-194455043D03*
X245212001Y-195620762D03*
D57*
X128148045Y-167231663D03*
X129620486Y-166945449D03*
X128551955Y-161448337D03*
X127079514Y-161734551D03*
D20*
X316540092Y-119126145D03*
D15*
X313787278Y-117425076D03*
D16*
X309013639Y-119162538D03*
D15*
X304240000Y-120900000D03*
D20*
X305261417Y-125934258D03*
D17*
X313462599Y-120246261D03*
X308364282Y-124804908D03*
D14*
X175805352Y-128442570D03*
D15*
X174790000Y-125370000D03*
D16*
X170016361Y-123632538D03*
D15*
X165242722Y-121895076D03*
D14*
X162789214Y-126408095D03*
D17*
X172727859Y-127322454D03*
X165892079Y-127537445D03*
D58*
X340967654Y-147397113D03*
X340454624Y-145987574D03*
X335192346Y-147902887D03*
X335705376Y-149312426D03*
D14*
X158985352Y-119132570D03*
D15*
X157970000Y-116060000D03*
D16*
X153196361Y-114322538D03*
D15*
X148422722Y-112585076D03*
D14*
X145969214Y-117098095D03*
D17*
X155907859Y-118012454D03*
X149072079Y-118227445D03*
D20*
X310040092Y-101276145D03*
D15*
X307287278Y-99575076D03*
D16*
X302513639Y-101312538D03*
D15*
X297740000Y-103050000D03*
D20*
X298761417Y-108084258D03*
D17*
X306962599Y-102396261D03*
X301864282Y-106954908D03*
D11*
X261890000Y-126300000D03*
D59*
X349227212Y-131690472D03*
X347750000Y-131430000D03*
X346777570Y-136944924D03*
X348254782Y-137205396D03*
D11*
X116010000Y-131090000D03*
D14*
X123278991Y-106120032D03*
D15*
X122263639Y-103047462D03*
D16*
X117490000Y-101310000D03*
D15*
X112716361Y-99572538D03*
D14*
X110262853Y-104085557D03*
D17*
X120201498Y-104999916D03*
X113365718Y-105214907D03*
D60*
X120991195Y-151758540D03*
X121454721Y-150331955D03*
X116128805Y-148601460D03*
X115665279Y-150028045D03*
D11*
X153780000Y-197210000D03*
D61*
X72047084Y-138319494D03*
X73514305Y-138007627D03*
X72350000Y-132530000D03*
X70882779Y-132841867D03*
D62*
X270553170Y-101598702D03*
X271151294Y-102974292D03*
X276286830Y-100741298D03*
X275688706Y-99365708D03*
D14*
X116772630Y-123977494D03*
D15*
X115757278Y-120904924D03*
D16*
X110983639Y-119167462D03*
D15*
X106210000Y-117430000D03*
D14*
X103756492Y-121943019D03*
D17*
X113695137Y-122857378D03*
X106859357Y-123072369D03*
D14*
X162825352Y-164152570D03*
D15*
X161810000Y-161080000D03*
D16*
X157036361Y-159342538D03*
D15*
X152262722Y-157605076D03*
D14*
X149809214Y-162118095D03*
D17*
X159747859Y-163032454D03*
X152912079Y-163247445D03*
D63*
X71447076Y-120317552D03*
X72905630Y-120667720D03*
X74212924Y-115222448D03*
X72754370Y-114872280D03*
D20*
X257497493Y-123599884D03*
D15*
X254744679Y-121898815D03*
D16*
X249971040Y-123636277D03*
D15*
X245197401Y-125373739D03*
D20*
X246218818Y-130407997D03*
D17*
X254420000Y-124720000D03*
X249321683Y-129278647D03*
D64*
X346939751Y-113751293D03*
X345490862Y-114139522D03*
X346940249Y-119548707D03*
X348389138Y-119160478D03*
D65*
X266465415Y-204562431D03*
X266386911Y-203064487D03*
X260794585Y-203357569D03*
X260873089Y-204855513D03*
D66*
X323392523Y-97181434D03*
X326587477Y-96018566D03*
D67*
X166510000Y-138120000D03*
X163315046Y-136957132D03*
X107517477Y-133641434D03*
X104322523Y-132478566D03*
X149687477Y-128771434D03*
X146492523Y-127608566D03*
D66*
X263792523Y-110921434D03*
X266987477Y-109758566D03*
D67*
X139367477Y-101731434D03*
X136172523Y-100568566D03*
X132897477Y-119471434D03*
X129702523Y-118308566D03*
X87257477Y-133721434D03*
X84062523Y-132558566D03*
D66*
X312452523Y-133671434D03*
X315647477Y-132508566D03*
X332732523Y-133751434D03*
X335927477Y-132588566D03*
D68*
X161211434Y-176422523D03*
X160048566Y-179617477D03*
D66*
X259892523Y-156021434D03*
X263087477Y-154858566D03*
X287072523Y-119471434D03*
X290267477Y-118308566D03*
D67*
X126377477Y-137311434D03*
X123182523Y-136148566D03*
X120517477Y-97931434D03*
X117322523Y-96768566D03*
D66*
X268252523Y-172991434D03*
X271447477Y-171828566D03*
X280602523Y-101601434D03*
X283797477Y-100438566D03*
D67*
X156217477Y-110941434D03*
X153022523Y-109778566D03*
X95997477Y-97501434D03*
X92802523Y-96338566D03*
D69*
X259018566Y-176342523D03*
X260181434Y-179537477D03*
D67*
X143237477Y-146641434D03*
X140042523Y-145478566D03*
X93767477Y-115861434D03*
X90572523Y-114698566D03*
D66*
X305982523Y-115781434D03*
X309177477Y-114618566D03*
X270272523Y-128771434D03*
X273467477Y-127608566D03*
X293562523Y-137321434D03*
X296757477Y-136158566D03*
X299472523Y-97931434D03*
X302667477Y-96768566D03*
D67*
X173010000Y-120290000D03*
X169815046Y-119127132D03*
D66*
X326212523Y-115881434D03*
X329407477Y-114718566D03*
X247012523Y-120241434D03*
X250207477Y-119078566D03*
X276762523Y-146651434D03*
X279957477Y-145488566D03*
D67*
X160027477Y-155981434D03*
X156832523Y-154818566D03*
D70*
X213010000Y-153380000D03*
X213010000Y-151380000D03*
D66*
X253442523Y-138141434D03*
X256637477Y-136978566D03*
D67*
X113997477Y-115791434D03*
X110802523Y-114628566D03*
D70*
X216670000Y-153380000D03*
X216670000Y-151380000D03*
D71*
X231240000Y-130869104D03*
X225784040Y-134019104D03*
X233140000Y-134160000D03*
X227684040Y-137310000D03*
D67*
X152927477Y-173381434D03*
X149732523Y-172218566D03*
M02*
