M48
; DRILL file {KiCad 7.0.1-0} date 2023 May 23, Tuesday 20:01:42
; FORMAT={-:-/ absolute / metric / decimal}
; #@! TF.CreationDate,2023-05-23T20:01:42-04:00
; #@! TF.GenerationSoftware,Kicad,Pcbnew,7.0.1-0
; #@! TF.FileFunction,Plated,1,2,PTH
FMAT,2
METRIC
; #@! TA.AperFunction,Plated,PTH,ViaDrill
T1C0.400
; #@! TA.AperFunction,Plated,PTH,ComponentDrill
T2C0.960
; #@! TA.AperFunction,Plated,PTH,ComponentDrill
T3C1.000
; #@! TA.AperFunction,Plated,PTH,ComponentDrill
T4C1.500
; #@! TA.AperFunction,Plated,PTH,ComponentDrill
T5C2.200
; #@! TA.AperFunction,Plated,PTH,ComponentDrill
T6C3.050
%
G90
G05
T1
X83.75Y-142.15
X90.15Y-124.23
X96.58Y-106.32
X103.9Y-142.26
X110.59Y-124.4
X115.53Y-97.25
X117.01Y-106.38
X119.15Y-98.57
X122.87Y-145.83
X129.51Y-128.13
X134.38Y-101.05
X135.78Y-109.99
X138.0Y-102.37
X139.7Y-155.26
X144.09Y-173.79
X146.23Y-137.39
X151.22Y-110.26
X152.52Y-119.25
X154.85Y-111.58
X156.48Y-164.25
X162.95Y-146.54
X166.28Y-185.06
X168.07Y-119.64
X169.58Y-128.89
X171.63Y-120.93
X173.27Y-123.68
X173.61Y-139.55
X175.342Y-138.742
X215.151Y-132.881
X230.027Y-133.097
X230.23Y-135.35
X230.471Y-125.31
X235.17Y-156.69
X235.28Y-143.73
X240.09Y-149.83
X252.77Y-188.36
X253.25Y-128.27
X259.51Y-145.92
X265.62Y-110.91
X268.13Y-163.68
X269.96Y-118.87
X273.36Y-175.27
X276.39Y-136.55
X281.969Y-102.241
X282.51Y-154.49
X285.72Y-100.87
X286.8Y-109.47
X293.13Y-127.12
X299.73Y-145.12
X300.84Y-98.57
X304.61Y-97.19
X305.58Y-105.77
X311.85Y-123.54
X318.47Y-141.35
X325.34Y-105.61
X329.51Y-104.52
X332.49Y-123.74
X338.75Y-141.47
T2
X218.141Y-129.692
X219.411Y-131.891
X220.681Y-134.091
X221.951Y-136.291
X223.221Y-138.491
X224.491Y-140.69
X225.761Y-142.89
X227.031Y-145.09
X228.301Y-147.289
X229.571Y-149.489
X230.841Y-151.689
X231.339Y-122.072
X232.111Y-153.889
X232.609Y-124.271
X233.381Y-156.088
X233.879Y-126.471
X234.311Y-152.619
X235.149Y-128.671
X235.581Y-154.818
X236.419Y-130.871
X237.689Y-133.07
X237.78Y-153.548
X238.959Y-135.27
X239.98Y-152.278
X240.229Y-137.47
X241.499Y-139.669
X242.18Y-151.008
X242.769Y-141.869
X244.039Y-144.069
X244.379Y-149.738
X245.309Y-146.269
X246.579Y-148.468
T3
X186.96Y-152.38
X189.5Y-152.38
X192.04Y-152.38
X194.58Y-152.38
X197.12Y-152.38
X199.66Y-152.38
X202.2Y-152.38
X204.74Y-152.38
X207.28Y-152.38
X209.82Y-152.38
X226.698Y-166.575
X229.198Y-170.905
X239.256Y-159.325
X240.506Y-161.49
X241.756Y-163.655
T5
X89.29Y-108.62
X116.01Y-131.09
X153.78Y-197.21
X158.11Y-126.3
X182.61Y-140.35
X182.61Y-159.05
X209.11Y-140.35
X209.11Y-159.05
X261.89Y-126.3
X266.22Y-197.21
X303.99Y-131.09
X330.71Y-108.62
T6
X80.122Y-141.017
X86.612Y-123.157
X86.958Y-140.802
X93.112Y-105.307
X93.448Y-122.942
X99.948Y-105.092
X100.356Y-140.935
X106.859Y-123.072
X107.191Y-140.72
X113.366Y-105.215
X113.695Y-122.857
X119.242Y-144.607
X120.201Y-105.0
X125.739Y-126.762
X126.078Y-144.392
X132.242Y-108.907
X132.575Y-126.547
X136.072Y-153.927
X139.078Y-108.692
X140.656Y-174.204
X142.572Y-136.072
X142.908Y-153.712
X147.314Y-175.766
X149.072Y-118.227
X149.408Y-135.857
X152.912Y-163.247
X155.908Y-118.012
X159.392Y-145.397
X159.748Y-163.032
X161.827Y-185.849
X165.892Y-127.537
X166.228Y-145.182
X167.854Y-189.08
X172.728Y-127.322
X249.322Y-129.279
X253.275Y-191.686
X254.42Y-124.72
X255.411Y-185.189
X255.837Y-147.13
X260.935Y-142.571
X262.327Y-164.99
X266.161Y-119.952
X267.425Y-160.431
X271.259Y-115.394
X272.657Y-137.81
X273.102Y-178.575
X276.847Y-172.852
X277.755Y-133.251
X279.154Y-155.675
X282.984Y-110.625
X284.253Y-151.116
X288.083Y-106.066
X289.474Y-128.495
X294.573Y-123.936
X295.974Y-146.345
X301.073Y-141.786
X301.864Y-106.955
X306.963Y-102.396
X308.364Y-124.805
X313.463Y-120.246
X314.851Y-142.662
X319.949Y-138.104
X322.114Y-107.035
X327.213Y-102.476
X328.604Y-124.895
X333.703Y-120.336
X335.114Y-142.745
X340.213Y-138.186
T4
X231.773Y-160.065G85X230.648Y-160.715
G05
X237.373Y-169.765G85X236.248Y-170.415
G05
T0
M30
