%TF.GenerationSoftware,KiCad,Pcbnew,7.0.1-0*%
%TF.CreationDate,2023-05-23T19:41:55-04:00*%
%TF.ProjectId,plate,706c6174-652e-46b6-9963-61645f706362,rev?*%
%TF.SameCoordinates,Original*%
%TF.FileFunction,Profile,NP*%
%FSLAX46Y46*%
G04 Gerber Fmt 4.6, Leading zero omitted, Abs format (unit mm)*
G04 Created by KiCad (PCBNEW 7.0.1-0) date 2023-05-23 19:41:55*
%MOMM*%
%LPD*%
G01*
G04 APERTURE LIST*
%ADD10C,0.200000*%
%TA.AperFunction,Profile*%
%ADD11C,0.120000*%
%TD*%
G04 APERTURE END LIST*
D10*
X209989920Y-177473930D02*
X211496905Y-177545688D01*
X213003702Y-177755440D01*
X214510129Y-178094939D01*
X216016003Y-178555936D01*
X217521141Y-179130184D01*
X219025362Y-179809435D01*
X220528484Y-180585441D01*
X222030323Y-181449954D01*
X223530697Y-182394727D01*
X225029425Y-183411512D01*
X226526324Y-184492061D01*
X228021211Y-185628127D01*
X229513905Y-186811461D01*
X231004223Y-188033816D01*
X232491983Y-189286945D01*
X233977002Y-190562598D01*
X235459098Y-191852530D01*
X236938090Y-193148491D01*
X238413793Y-194442234D01*
X239886027Y-195725512D01*
X241354609Y-196990076D01*
X242819357Y-198227679D01*
X244280088Y-199430073D01*
X245736620Y-200589011D01*
X247188771Y-201696244D01*
X248636358Y-202743525D01*
X250079200Y-203722605D01*
X251517113Y-204625239D01*
X252949916Y-205443176D01*
X254377426Y-206168171D01*
X255799462Y-206791975D01*
X257215840Y-207306340D01*
X331448260Y-88474984D02*
X329500091Y-87631970D01*
X327472086Y-86925412D01*
X325369114Y-86350540D01*
X323196047Y-85902583D01*
X320957754Y-85576771D01*
X318659105Y-85368333D01*
X316304971Y-85272499D01*
X313900220Y-85284498D01*
X311449724Y-85399561D01*
X308958352Y-85612917D01*
X306430974Y-85919796D01*
X303872461Y-86315426D01*
X301287683Y-86795039D01*
X298681509Y-87353863D01*
X296058809Y-87987128D01*
X293424455Y-88690064D01*
X290783314Y-89457900D01*
X288140259Y-90285867D01*
X285500159Y-91169193D01*
X282867883Y-92103108D01*
X280248303Y-93082843D01*
X277646287Y-94103626D01*
X275066707Y-95160687D01*
X272514431Y-96249256D01*
X269994331Y-97364563D01*
X267511276Y-98501837D01*
X265070137Y-99656307D01*
X262675782Y-100823204D01*
X260333083Y-101997757D01*
X258046910Y-103175196D01*
X255822132Y-104350750D01*
X253663620Y-105519650D01*
X115796300Y-153741730D02*
X116742094Y-154018774D01*
X117610549Y-154353039D01*
X118405810Y-154742917D01*
X119132024Y-155186803D01*
X119793336Y-155683089D01*
X120393892Y-156230168D01*
X120937837Y-156826433D01*
X121429319Y-157470278D01*
X121872481Y-158160096D01*
X122271472Y-158894281D01*
X122630435Y-159671224D01*
X122953518Y-160489320D01*
X123244865Y-161346961D01*
X123508623Y-162242542D01*
X123748937Y-163174454D01*
X123969955Y-164141092D01*
X124175820Y-165140848D01*
X124370679Y-166172116D01*
X124558678Y-167233288D01*
X124743963Y-168322759D01*
X124930680Y-169438920D01*
X125122974Y-170580167D01*
X125324991Y-171744890D01*
X125540878Y-172931485D01*
X125774779Y-174138343D01*
X126030842Y-175363858D01*
X126313211Y-176606424D01*
X126626032Y-177864433D01*
X126973452Y-179136279D01*
X127359616Y-180420355D01*
X127788670Y-181715054D01*
X128264760Y-183018770D01*
X128264760Y-183018770D02*
X128791102Y-184329507D01*
X129367205Y-185643741D01*
X129991654Y-186957561D01*
X130663030Y-188267058D01*
X131379919Y-189568323D01*
X132140904Y-190857446D01*
X132944568Y-192130518D01*
X133789495Y-193383631D01*
X134674268Y-194612874D01*
X135597472Y-195814338D01*
X136557690Y-196984114D01*
X137553506Y-198118292D01*
X138583502Y-199212964D01*
X139646264Y-200264220D01*
X140740374Y-201268151D01*
X141864417Y-202220847D01*
X143016975Y-203118399D01*
X144196633Y-203956898D01*
X145401975Y-204732434D01*
X146631583Y-205441099D01*
X147884041Y-206078982D01*
X149157934Y-206642175D01*
X150451844Y-207126768D01*
X151764356Y-207528852D01*
X153094053Y-207844518D01*
X154439518Y-208069855D01*
X155799336Y-208200956D01*
X157172090Y-208233911D01*
X158556364Y-208164810D01*
X159950741Y-207989744D01*
X161353805Y-207704803D01*
X162764140Y-207306080D01*
X257215840Y-207306340D02*
X258626165Y-207705042D01*
X260029220Y-207989962D01*
X261423588Y-208165009D01*
X262807853Y-208234093D01*
X264180599Y-208201123D01*
X265540408Y-208070007D01*
X266885866Y-207844656D01*
X268215555Y-207528979D01*
X269528058Y-207126884D01*
X270821960Y-206642281D01*
X272095844Y-206079080D01*
X273348295Y-205441190D01*
X274577894Y-204732519D01*
X275783226Y-203956977D01*
X276962875Y-203118474D01*
X278115425Y-202220918D01*
X279239458Y-201268220D01*
X280333558Y-200264287D01*
X281396310Y-199213030D01*
X282426296Y-198118358D01*
X283422100Y-196984179D01*
X284382307Y-195814404D01*
X285305498Y-194612942D01*
X286190260Y-193383701D01*
X287035173Y-192130591D01*
X287838823Y-190857522D01*
X288599793Y-189568402D01*
X289316667Y-188267141D01*
X289988028Y-186957647D01*
X290612459Y-185643832D01*
X291188545Y-184329603D01*
X291714870Y-183018870D01*
X162764140Y-207306080D02*
X164180526Y-206791693D01*
X165602567Y-206167870D01*
X167030082Y-205442859D01*
X168462888Y-204624907D01*
X169900803Y-203722263D01*
X171343644Y-202743173D01*
X172791230Y-201695886D01*
X174243378Y-200588649D01*
X175699906Y-199429710D01*
X177160632Y-198227316D01*
X178625374Y-196989715D01*
X180093949Y-195725155D01*
X181566175Y-194441884D01*
X183041871Y-193148149D01*
X184520853Y-191852197D01*
X186002941Y-190562277D01*
X187487951Y-189286636D01*
X188975701Y-188033522D01*
X190466009Y-186811182D01*
X191958694Y-185627864D01*
X193453572Y-184491817D01*
X194950462Y-183411286D01*
X196449181Y-182394521D01*
X197949548Y-181449769D01*
X199451380Y-180585277D01*
X200954494Y-179809293D01*
X202458710Y-179130065D01*
X203963843Y-178555840D01*
X205469713Y-178094867D01*
X206976138Y-177755392D01*
X208482934Y-177545664D01*
X209989920Y-177473930D01*
X304183110Y-153741460D02*
X305208820Y-153522033D01*
X306310685Y-153355821D01*
X307483385Y-153237212D01*
X308721600Y-153160592D01*
X310020010Y-153120346D01*
X311373295Y-153110861D01*
X312776135Y-153126523D01*
X314223210Y-153161720D01*
X315709201Y-153210836D01*
X317228787Y-153268259D01*
X318776649Y-153328375D01*
X320347466Y-153385570D01*
X321935919Y-153434231D01*
X323536688Y-153468743D01*
X325144453Y-153483494D01*
X326753895Y-153472870D01*
X328359692Y-153431256D01*
X329956525Y-153353039D01*
X331539075Y-153232607D01*
X333102021Y-153064344D01*
X334640044Y-152842637D01*
X336147824Y-152561873D01*
X337620040Y-152216439D01*
X339051374Y-151800719D01*
X340436504Y-151309102D01*
X341770111Y-150735972D01*
X343046876Y-150075717D01*
X344261477Y-149322722D01*
X345408597Y-148471375D01*
X346482913Y-147516061D01*
X347479108Y-146451167D01*
X348391860Y-145271080D01*
X88531403Y-88474847D02*
X86667133Y-89456922D01*
X84887712Y-90572038D01*
X83193264Y-91812007D01*
X81583918Y-93168639D01*
X80059799Y-94633746D01*
X78621034Y-96199138D01*
X77267750Y-97856626D01*
X76000073Y-99598023D01*
X74818129Y-101415138D01*
X73722045Y-103299783D01*
X72711948Y-105243769D01*
X71787964Y-107238908D01*
X70950220Y-109277010D01*
X70198842Y-111349886D01*
X69533957Y-113449348D01*
X68955691Y-115567207D01*
X68464171Y-117695273D01*
X68059523Y-119825358D01*
X67741874Y-121949273D01*
X67511351Y-124058830D01*
X67368079Y-126145838D01*
X67312186Y-128202110D01*
X67343798Y-130219457D01*
X67463041Y-132189689D01*
X67670042Y-134104618D01*
X67964928Y-135956054D01*
X68347825Y-137735809D01*
X68818860Y-139435695D01*
X69378159Y-141047522D01*
X70025849Y-142563100D01*
X70762056Y-143974243D01*
X71586907Y-145272760D01*
X348391860Y-145271080D02*
X349216752Y-143972492D01*
X349953000Y-142561298D01*
X350600728Y-141045687D01*
X351160065Y-139433846D01*
X351631137Y-137733962D01*
X352014069Y-135954224D01*
X352308989Y-134102819D01*
X352516023Y-132187935D01*
X352635299Y-130217759D01*
X352666941Y-128200480D01*
X352611078Y-126144284D01*
X352467836Y-124057360D01*
X352237340Y-121947895D01*
X351919719Y-119824077D01*
X351515097Y-117694094D01*
X351023603Y-115566134D01*
X350445363Y-113448383D01*
X349780502Y-111349031D01*
X349029148Y-109276263D01*
X348191428Y-107238270D01*
X347267467Y-105243237D01*
X346257393Y-103299353D01*
X345161332Y-101414805D01*
X343979411Y-99597781D01*
X342711756Y-97856469D01*
X341358494Y-96199057D01*
X339919751Y-94633732D01*
X338395655Y-93168681D01*
X336786330Y-91812094D01*
X335091905Y-90572156D01*
X333312506Y-89457057D01*
X331448260Y-88474984D01*
X166316540Y-105519810D02*
X164158026Y-104350899D01*
X161933246Y-103175334D01*
X159647069Y-101997885D01*
X157304366Y-100823321D01*
X154910005Y-99656413D01*
X152468858Y-98501932D01*
X149985795Y-97364647D01*
X147465685Y-96249330D01*
X144913399Y-95160750D01*
X142333806Y-94103679D01*
X139731778Y-93082886D01*
X137112184Y-92103141D01*
X134479893Y-91169216D01*
X131839777Y-90285879D01*
X129196706Y-89457903D01*
X126555549Y-88690057D01*
X123921176Y-87987112D01*
X121298458Y-87353837D01*
X118692265Y-86795004D01*
X116107467Y-86315382D01*
X113548933Y-85919743D01*
X111021535Y-85612856D01*
X108530142Y-85399491D01*
X106079624Y-85284420D01*
X103674851Y-85272412D01*
X101320694Y-85368238D01*
X99022023Y-85576668D01*
X96783707Y-85902473D01*
X94610617Y-86350423D01*
X92507623Y-86925289D01*
X90479595Y-87631839D01*
X88531403Y-88474847D01*
X253663620Y-105519650D02*
X251575070Y-106677654D01*
X249555448Y-107822666D01*
X247602532Y-108953126D01*
X245714098Y-110067477D01*
X243887922Y-111164158D01*
X242121780Y-112241612D01*
X240413449Y-113298279D01*
X238760706Y-114332602D01*
X237161327Y-115343020D01*
X235613088Y-116327975D01*
X234113767Y-117285909D01*
X232661138Y-118215263D01*
X231252980Y-119114478D01*
X229887069Y-119981995D01*
X228561180Y-120816255D01*
X227273091Y-121615701D01*
X226020577Y-122378772D01*
X224801417Y-123103910D01*
X223613385Y-123789557D01*
X222454258Y-124434154D01*
X221321813Y-125036141D01*
X220213827Y-125593961D01*
X219128075Y-126106054D01*
X218062335Y-126570862D01*
X217014383Y-126986825D01*
X215981994Y-127352386D01*
X214962947Y-127665985D01*
X213955017Y-127926064D01*
X212955981Y-128131063D01*
X211963615Y-128279425D01*
X210975696Y-128369590D01*
X209990000Y-128400000D01*
X209990000Y-128400000D02*
X209004304Y-128369614D01*
X208016386Y-128279471D01*
X207024022Y-128131130D01*
X206024989Y-127926150D01*
X205017063Y-127666089D01*
X203998020Y-127352507D01*
X202965637Y-126986962D01*
X201917690Y-126571012D01*
X200851956Y-126106217D01*
X199766211Y-125594136D01*
X198658232Y-125036326D01*
X197525794Y-124434348D01*
X196366675Y-123789759D01*
X195178651Y-123104119D01*
X193959498Y-122378986D01*
X192706992Y-121615920D01*
X191418910Y-120816478D01*
X190093029Y-119982220D01*
X188727125Y-119114704D01*
X187318974Y-118215489D01*
X185866353Y-117286135D01*
X184367038Y-116328199D01*
X182818806Y-115343241D01*
X181219432Y-114332820D01*
X179566694Y-113298493D01*
X177858368Y-112241820D01*
X176092230Y-111164361D01*
X174266057Y-110067672D01*
X172377625Y-108953314D01*
X170424710Y-107822845D01*
X168405090Y-106677824D01*
X166316540Y-105519810D01*
X71586907Y-145272760D02*
X72499621Y-146452766D01*
X73495786Y-147517581D01*
X74570083Y-148472819D01*
X75717191Y-149324092D01*
X76931789Y-150077016D01*
X78208557Y-150737202D01*
X79542174Y-151310265D01*
X80927320Y-151801819D01*
X82358675Y-152217477D01*
X83830917Y-152562853D01*
X85338727Y-152843560D01*
X86876785Y-153065212D01*
X88439768Y-153233423D01*
X90022358Y-153353806D01*
X91619234Y-153431976D01*
X93225075Y-153473545D01*
X94834560Y-153484127D01*
X96442370Y-153469336D01*
X98043183Y-153434786D01*
X99631681Y-153386090D01*
X101202540Y-153328861D01*
X102750443Y-153268715D01*
X104270067Y-153211263D01*
X105756093Y-153162120D01*
X107203200Y-153126900D01*
X108606068Y-153111215D01*
X109959375Y-153120681D01*
X111257803Y-153160909D01*
X112496029Y-153237515D01*
X113668734Y-153356111D01*
X114770598Y-153522311D01*
X115796300Y-153741730D01*
X291714870Y-183018870D02*
X292190941Y-181715159D01*
X292619976Y-180420462D01*
X293006122Y-179136386D01*
X293353524Y-177864538D01*
X293666329Y-176606525D01*
X293948681Y-175363953D01*
X294204727Y-174138430D01*
X294438613Y-172931563D01*
X294654484Y-171744959D01*
X294856487Y-170580223D01*
X295048767Y-169438965D01*
X295235471Y-168322789D01*
X295420744Y-167233304D01*
X295608732Y-166172116D01*
X295803581Y-165140832D01*
X296009437Y-164141060D01*
X296230446Y-163174405D01*
X296470753Y-162242475D01*
X296734505Y-161346877D01*
X297025847Y-160489218D01*
X297348925Y-159671105D01*
X297707886Y-158894144D01*
X298106875Y-158159943D01*
X298550038Y-157470108D01*
X299041520Y-156826247D01*
X299585469Y-156229967D01*
X300186029Y-155682873D01*
X300847346Y-155186574D01*
X301573567Y-154742676D01*
X302368837Y-154352787D01*
X303237303Y-154018512D01*
X304183110Y-153741460D01*
D11*
X287722096Y-136566176D02*
X300783824Y-131812096D01*
X292476176Y-149627904D02*
X287722096Y-136566176D01*
X300783824Y-131812096D02*
X305537904Y-144873824D01*
X305537904Y-144873824D02*
X292476176Y-149627904D01*
X254072096Y-155196176D02*
X267133824Y-150442096D01*
X258826176Y-168257904D02*
X254072096Y-155196176D01*
X267133824Y-150442096D02*
X271887904Y-163503824D01*
X271887904Y-163503824D02*
X258826176Y-168257904D01*
X306602096Y-132886176D02*
X319663824Y-128132096D01*
X311356176Y-145947904D02*
X306602096Y-132886176D01*
X319663824Y-128132096D02*
X324417904Y-141193824D01*
X324417904Y-141193824D02*
X311356176Y-145947904D01*
X152876176Y-150432096D02*
X165937904Y-155186176D01*
X148122096Y-163493824D02*
X152876176Y-150432096D01*
X165937904Y-155186176D02*
X161183824Y-168247904D01*
X161183824Y-168247904D02*
X148122096Y-163493824D01*
X293602096Y-97176176D02*
X306663824Y-92422096D01*
X298356176Y-110237904D02*
X293602096Y-97176176D01*
X306663824Y-92422096D02*
X311417904Y-105483824D01*
X311417904Y-105483824D02*
X298356176Y-110237904D01*
X100346176Y-128122096D02*
X113407904Y-132876176D01*
X95592096Y-141183824D02*
X100346176Y-128122096D01*
X113407904Y-132876176D02*
X108653824Y-145937904D01*
X108653824Y-145937904D02*
X95592096Y-141183824D01*
X268000537Y-176773250D02*
X279386750Y-168800537D01*
X275973250Y-188159463D02*
X268000537Y-176773250D01*
X279386750Y-168800537D02*
X287359463Y-180186750D01*
X287359463Y-180186750D02*
X275973250Y-188159463D01*
X224477726Y-162439617D02*
X236342274Y-155589617D01*
X231677726Y-174910383D02*
X224477726Y-162439617D01*
X236342274Y-155589617D02*
X243542274Y-168060383D01*
X243542274Y-168060383D02*
X231677726Y-174910383D01*
X93086176Y-92502096D02*
X106147904Y-97256176D01*
X88332096Y-105563824D02*
X93086176Y-92502096D01*
X106147904Y-97256176D02*
X101393824Y-110317904D01*
X101393824Y-110317904D02*
X88332096Y-105563824D01*
X247572096Y-137336176D02*
X260633824Y-132582096D01*
X252326176Y-150397904D02*
X247572096Y-137336176D01*
X260633824Y-132582096D02*
X265387904Y-145643824D01*
X265387904Y-145643824D02*
X252326176Y-150397904D01*
X140623250Y-168780537D02*
X152009463Y-176753250D01*
X132650537Y-180166750D02*
X140623250Y-168780537D01*
X152009463Y-176753250D02*
X144036750Y-188139463D01*
X144036750Y-188139463D02*
X132650537Y-180166750D01*
X264402096Y-128026176D02*
X277463824Y-123272096D01*
X269156176Y-141087904D02*
X264402096Y-128026176D01*
X277463824Y-123272096D02*
X282217904Y-136333824D01*
X282217904Y-136333824D02*
X269156176Y-141087904D01*
X241062096Y-119496176D02*
X254123824Y-114742096D01*
X245816176Y-132557904D02*
X241062096Y-119496176D01*
X254123824Y-114742096D02*
X258877904Y-127803824D01*
X258877904Y-127803824D02*
X245816176Y-132557904D01*
X270902096Y-145886176D02*
X283963824Y-141132096D01*
X275656176Y-158947904D02*
X270902096Y-145886176D01*
X283963824Y-141132096D02*
X288717904Y-154193824D01*
X288717904Y-154193824D02*
X275656176Y-158947904D01*
X159366176Y-132592096D02*
X172427904Y-137346176D01*
X154612096Y-145653824D02*
X159366176Y-132592096D01*
X172427904Y-137346176D02*
X167673824Y-150407904D01*
X167673824Y-150407904D02*
X154612096Y-145653824D01*
X149036176Y-105412096D02*
X162097904Y-110166176D01*
X144282096Y-118473824D02*
X149036176Y-105412096D01*
X162097904Y-110166176D02*
X157343824Y-123227904D01*
X157343824Y-123227904D02*
X144282096Y-118473824D01*
X106836176Y-110272096D02*
X119897904Y-115026176D01*
X102082096Y-123333824D02*
X106836176Y-110272096D01*
X119897904Y-115026176D02*
X115143824Y-128087904D01*
X115143824Y-128087904D02*
X102082096Y-123333824D01*
X181980000Y-161190000D02*
X209720000Y-161190000D01*
X209720000Y-161190000D02*
G75*
G03*
X181980000Y-161190000I-13870000J11480000D01*
G01*
X257902096Y-110176176D02*
X270963824Y-105422096D01*
X262656176Y-123237904D02*
X257902096Y-110176176D01*
X270963824Y-105422096D02*
X275717904Y-118483824D01*
X275717904Y-118483824D02*
X262656176Y-123237904D01*
X247888617Y-191276635D02*
X256823365Y-180628617D01*
X258536635Y-200211383D02*
X247888617Y-191276635D01*
X256823365Y-180628617D02*
X267471383Y-189563365D01*
X267471383Y-189563365D02*
X258536635Y-200211383D01*
X165866176Y-114732096D02*
X178927904Y-119486176D01*
X161112096Y-127793824D02*
X165866176Y-114732096D01*
X178927904Y-119486176D02*
X174173824Y-132547904D01*
X174173824Y-132547904D02*
X161112096Y-127793824D01*
X136046176Y-141112096D02*
X149107904Y-145866176D01*
X131292096Y-154173824D02*
X136046176Y-141112096D01*
X149107904Y-145866176D02*
X144353824Y-158927904D01*
X144353824Y-158927904D02*
X131292096Y-154173824D01*
X80086176Y-128202096D02*
X93147904Y-132956176D01*
X75332096Y-141263824D02*
X80086176Y-128202096D01*
X93147904Y-132956176D02*
X88393824Y-146017904D01*
X88393824Y-146017904D02*
X75332096Y-141263824D01*
X326852096Y-132956176D02*
X339913824Y-128202096D01*
X331606176Y-146017904D02*
X326852096Y-132956176D01*
X339913824Y-128202096D02*
X344667904Y-141263824D01*
X344667904Y-141263824D02*
X331606176Y-146017904D01*
X119216176Y-131792096D02*
X132277904Y-136546176D01*
X114462096Y-144853824D02*
X119216176Y-131792096D01*
X132277904Y-136546176D02*
X127523824Y-149607904D01*
X127523824Y-149607904D02*
X114462096Y-144853824D01*
X313852096Y-97256176D02*
X326913824Y-92502096D01*
X318606176Y-110317904D02*
X313852096Y-97256176D01*
X326913824Y-92502096D02*
X331667904Y-105563824D01*
X331667904Y-105563824D02*
X318606176Y-110317904D01*
X86576176Y-110352096D02*
X99637904Y-115106176D01*
X81822096Y-123413824D02*
X86576176Y-110352096D01*
X99637904Y-115106176D02*
X94883824Y-128167904D01*
X94883824Y-128167904D02*
X81822096Y-123413824D01*
X274732096Y-100846176D02*
X287793824Y-96092096D01*
X279486176Y-113907904D02*
X274732096Y-100846176D01*
X287793824Y-96092096D02*
X292547904Y-109153824D01*
X292547904Y-109153824D02*
X279486176Y-113907904D01*
X113346176Y-92412096D02*
X126407904Y-97166176D01*
X108592096Y-105473824D02*
X113346176Y-92412096D01*
X126407904Y-97166176D02*
X121653824Y-110227904D01*
X121653824Y-110227904D02*
X108592096Y-105473824D01*
X132206176Y-96092096D02*
X145267904Y-100846176D01*
X127452096Y-109153824D02*
X132206176Y-96092096D01*
X145267904Y-100846176D02*
X140513824Y-113907904D01*
X140513824Y-113907904D02*
X127452096Y-109153824D01*
X125716176Y-113962096D02*
X138777904Y-118716176D01*
X120962096Y-127023824D02*
X125716176Y-113962096D01*
X138777904Y-118716176D02*
X134023824Y-131777904D01*
X134023824Y-131777904D02*
X120962096Y-127023824D01*
X142536176Y-123272096D02*
X155597904Y-128026176D01*
X137782096Y-136333824D02*
X142536176Y-123272096D01*
X155597904Y-128026176D02*
X150843824Y-141087904D01*
X150843824Y-141087904D02*
X137782096Y-136333824D01*
X300112096Y-115026176D02*
X313173824Y-110272096D01*
X304866176Y-128087904D02*
X300112096Y-115026176D01*
X313173824Y-110272096D02*
X317927904Y-123333824D01*
X317927904Y-123333824D02*
X304866176Y-128087904D01*
X281232096Y-118706176D02*
X294293824Y-113952096D01*
X285986176Y-131767904D02*
X281232096Y-118706176D01*
X294293824Y-113952096D02*
X299047904Y-127013824D01*
X299047904Y-127013824D02*
X285986176Y-131767904D01*
X163176635Y-180628617D02*
X172111383Y-191276635D01*
X152528617Y-189563365D02*
X163176635Y-180628617D01*
X172111383Y-191276635D02*
X161463365Y-200211383D01*
X161463365Y-200211383D02*
X152528617Y-189563365D01*
X320352096Y-115106176D02*
X333413824Y-110352096D01*
X325106176Y-128167904D02*
X320352096Y-115106176D01*
X333413824Y-110352096D02*
X338167904Y-123413824D01*
X338167904Y-123413824D02*
X325106176Y-128167904D01*
M02*
