%TF.GenerationSoftware,KiCad,Pcbnew,7.0.1-0*%
%TF.CreationDate,2023-05-23T19:41:54-04:00*%
%TF.ProjectId,plate,706c6174-652e-46b6-9963-61645f706362,rev?*%
%TF.SameCoordinates,Original*%
%TF.FileFunction,Copper,L1,Top*%
%TF.FilePolarity,Positive*%
%FSLAX46Y46*%
G04 Gerber Fmt 4.6, Leading zero omitted, Abs format (unit mm)*
G04 Created by KiCad (PCBNEW 7.0.1-0) date 2023-05-23 19:41:54*
%MOMM*%
%LPD*%
G01*
G04 APERTURE LIST*
%TA.AperFunction,ComponentPad*%
%ADD10C,3.500000*%
%TD*%
G04 APERTURE END LIST*
D10*
X261890000Y-126300000D03*
X330710000Y-108620000D03*
X303990000Y-131090000D03*
X153780000Y-197210000D03*
X266220000Y-197210000D03*
X116010000Y-131090000D03*
X158110000Y-126300000D03*
X89290000Y-108620000D03*
%TA.AperFunction,NonConductor*%
G36*
X106077015Y-85284906D02*
G01*
X106082127Y-85285037D01*
X108527729Y-85399877D01*
X108532475Y-85400192D01*
X111019373Y-85613172D01*
X111023633Y-85613613D01*
X113399266Y-85902073D01*
X113546839Y-85919992D01*
X113550844Y-85920544D01*
X116105541Y-86315589D01*
X116109192Y-86316211D01*
X118283539Y-86719671D01*
X118690487Y-86795182D01*
X118693862Y-86795857D01*
X121296795Y-87353992D01*
X121299902Y-87354700D01*
X123919653Y-87987257D01*
X123922395Y-87987954D01*
X126554164Y-88690204D01*
X126556727Y-88690919D01*
X129195311Y-89458017D01*
X129197733Y-89458748D01*
X131838536Y-90286013D01*
X131840673Y-90286705D01*
X134478723Y-91169351D01*
X134480709Y-91170035D01*
X137111026Y-92103260D01*
X137112919Y-92103950D01*
X139730733Y-93083028D01*
X139732430Y-93083678D01*
X141895356Y-93932209D01*
X142332821Y-94103830D01*
X142334553Y-94104525D01*
X144912379Y-95160872D01*
X144914008Y-95161553D01*
X147463249Y-96248835D01*
X147464708Y-96249457D01*
X147466237Y-96250121D01*
X149984898Y-97364796D01*
X149986278Y-97365417D01*
X152468110Y-98502139D01*
X152469356Y-98502720D01*
X154909168Y-99656569D01*
X154910305Y-99657115D01*
X157303611Y-100823509D01*
X157304616Y-100824006D01*
X159031524Y-101689827D01*
X159646217Y-101998017D01*
X159647417Y-101998627D01*
X161145273Y-102770067D01*
X161931382Y-103174937D01*
X161932400Y-103175461D01*
X161933532Y-103176051D01*
X164157292Y-104351076D01*
X164158228Y-104351577D01*
X165736066Y-105206031D01*
X166315764Y-105519958D01*
X166316845Y-105520550D01*
X168404278Y-106677946D01*
X168405306Y-106678522D01*
X170424005Y-107823020D01*
X170424970Y-107823573D01*
X172377028Y-108953546D01*
X172377817Y-108954008D01*
X174265441Y-110067889D01*
X174266107Y-110068285D01*
X176090462Y-111163882D01*
X176091661Y-111164602D01*
X176092400Y-111165050D01*
X177857740Y-112242022D01*
X177858390Y-112242421D01*
X179565143Y-113298121D01*
X179566175Y-113298759D01*
X179566702Y-113299087D01*
X181218849Y-114333045D01*
X181218947Y-114333106D01*
X181219297Y-114333326D01*
X182818454Y-115343610D01*
X184366420Y-116328398D01*
X184366623Y-116328528D01*
X185864726Y-117285689D01*
X185864790Y-117285730D01*
X187316948Y-118214787D01*
X187318788Y-118215964D01*
X188725451Y-119114229D01*
X188741503Y-119124479D01*
X188741778Y-119124603D01*
X190092844Y-119982695D01*
X190092846Y-119982695D01*
X190107095Y-119991745D01*
X190107566Y-119991957D01*
X191396125Y-120802732D01*
X191396674Y-120803266D01*
X191418561Y-120816850D01*
X191418562Y-120816851D01*
X192694480Y-121608743D01*
X192695783Y-121609776D01*
X192705760Y-121615762D01*
X192707543Y-121616852D01*
X192720044Y-121624641D01*
X192721124Y-121625114D01*
X193255053Y-121950401D01*
X193935719Y-122365084D01*
X193936956Y-122366272D01*
X193958280Y-122378847D01*
X193960144Y-122379968D01*
X193971894Y-122387178D01*
X193973331Y-122387795D01*
X195164985Y-123096573D01*
X195166568Y-123097804D01*
X195176704Y-123103584D01*
X195180132Y-123105612D01*
X195189327Y-123111254D01*
X195191875Y-123112329D01*
X196344357Y-123777456D01*
X196345956Y-123778874D01*
X196365329Y-123789586D01*
X196367567Y-123790854D01*
X196377990Y-123796903D01*
X196379840Y-123797653D01*
X196962225Y-124121518D01*
X197367385Y-124346828D01*
X197504145Y-124422880D01*
X197505800Y-124424279D01*
X197524531Y-124434242D01*
X197526521Y-124435323D01*
X197536698Y-124440977D01*
X197538565Y-124441702D01*
X198635294Y-125024698D01*
X198637072Y-125026172D01*
X198657017Y-125036271D01*
X198658967Y-125037280D01*
X198668507Y-125042324D01*
X198670504Y-125043064D01*
X199742546Y-125582782D01*
X199748088Y-125585572D01*
X199750140Y-125587055D01*
X199764843Y-125594039D01*
X199767105Y-125595142D01*
X199775605Y-125599392D01*
X199777843Y-125600175D01*
X200832133Y-126097420D01*
X200834615Y-126099166D01*
X200850387Y-126106075D01*
X200853175Y-126107338D01*
X200872643Y-126116445D01*
X200875543Y-126117050D01*
X201401688Y-126346515D01*
X201895547Y-126561900D01*
X201895894Y-126562051D01*
X201899377Y-126564425D01*
X201914863Y-126570448D01*
X201920057Y-126572605D01*
X201935641Y-126579495D01*
X201939627Y-126580257D01*
X202946131Y-126979758D01*
X202949367Y-126981711D01*
X202963377Y-126986688D01*
X202967491Y-126988233D01*
X202974118Y-126990855D01*
X202977395Y-126991654D01*
X203978040Y-127345962D01*
X203982096Y-127348218D01*
X203994707Y-127352028D01*
X204000968Y-127354102D01*
X204004841Y-127355500D01*
X204008693Y-127356314D01*
X204998182Y-127660801D01*
X205002711Y-127663015D01*
X205013325Y-127665669D01*
X205020478Y-127667686D01*
X205023900Y-127668762D01*
X205028030Y-127669434D01*
X206001924Y-127920714D01*
X206007143Y-127923175D01*
X206020694Y-127925820D01*
X206028987Y-127927736D01*
X206041147Y-127930988D01*
X206046763Y-127931128D01*
X207000122Y-128126736D01*
X207005418Y-128128945D01*
X207020081Y-128131065D01*
X207027741Y-128132419D01*
X207041686Y-128135337D01*
X207047312Y-128135117D01*
X207114652Y-128145183D01*
X207993230Y-128276514D01*
X207998446Y-128278323D01*
X208012906Y-128279652D01*
X208019733Y-128280471D01*
X208035265Y-128282772D01*
X208040777Y-128282198D01*
X208982619Y-128368137D01*
X208988580Y-128369747D01*
X208999598Y-128370003D01*
X209008906Y-128370570D01*
X209021570Y-128371820D01*
X209027807Y-128370838D01*
X209968006Y-128399822D01*
X209974021Y-128401076D01*
X209985538Y-128400660D01*
X209994454Y-128400658D01*
X210007454Y-128401122D01*
X210013548Y-128399773D01*
X210953547Y-128370773D01*
X210959769Y-128371684D01*
X210970993Y-128370562D01*
X210980489Y-128369979D01*
X210993001Y-128369691D01*
X210999096Y-128367955D01*
X211940512Y-128282035D01*
X211946089Y-128282558D01*
X211960093Y-128280458D01*
X211967264Y-128279595D01*
X211970161Y-128279331D01*
X211974403Y-128278316D01*
X212934558Y-128134771D01*
X212939887Y-128134902D01*
X212952608Y-128132270D01*
X212959567Y-128131036D01*
X212973545Y-128128965D01*
X212978537Y-128126945D01*
X213933244Y-127931041D01*
X213939129Y-127930895D01*
X213950675Y-127927760D01*
X213959668Y-127925673D01*
X213961749Y-127925270D01*
X213966086Y-127923723D01*
X214952451Y-127669208D01*
X214956664Y-127668506D01*
X214959173Y-127667708D01*
X214967055Y-127665484D01*
X214980046Y-127662276D01*
X214984894Y-127659753D01*
X215958145Y-127360247D01*
X215963406Y-127359723D01*
X215978601Y-127354158D01*
X215985735Y-127351788D01*
X216000769Y-127347294D01*
X216005107Y-127344731D01*
X217002924Y-126991411D01*
X217006781Y-126990459D01*
X217011400Y-126988578D01*
X217017770Y-126986184D01*
X217021700Y-126984828D01*
X217025104Y-126983106D01*
X218040398Y-126580106D01*
X218044263Y-126579367D01*
X218060221Y-126572338D01*
X218064877Y-126570399D01*
X218080897Y-126564106D01*
X218084130Y-126561901D01*
X219037932Y-126145914D01*
X219104485Y-126116888D01*
X219108565Y-126116036D01*
X219125782Y-126107715D01*
X219130781Y-126105434D01*
X219136495Y-126102977D01*
X219139254Y-126101333D01*
X220202519Y-125599846D01*
X220205556Y-125598775D01*
X220211791Y-125595569D01*
X220216318Y-125593355D01*
X220234380Y-125584975D01*
X220237139Y-125582783D01*
X221309673Y-125042811D01*
X221312059Y-125041924D01*
X221320532Y-125037392D01*
X221323578Y-125035816D01*
X221334210Y-125030500D01*
X221336360Y-125028973D01*
X221344402Y-125024698D01*
X222441645Y-124441423D01*
X222444006Y-124440501D01*
X222452939Y-124435469D01*
X222456060Y-124433770D01*
X222466219Y-124428423D01*
X222468198Y-124426972D01*
X223600313Y-123797396D01*
X223602463Y-123796523D01*
X223611916Y-123790994D01*
X223615410Y-123789025D01*
X223630456Y-123780865D01*
X223632681Y-123778996D01*
X224788020Y-123112217D01*
X224790088Y-123111349D01*
X224800197Y-123105231D01*
X224803155Y-123103496D01*
X224811475Y-123098768D01*
X224813151Y-123097512D01*
X226006812Y-122387539D01*
X226008492Y-122386816D01*
X226018952Y-122380362D01*
X226022870Y-122378043D01*
X226045277Y-122365325D01*
X226047749Y-122362803D01*
X227259178Y-121624762D01*
X227260988Y-121623965D01*
X227272184Y-121616866D01*
X227274417Y-121615483D01*
X227290563Y-121605716D01*
X227291579Y-121604815D01*
X227781947Y-121300469D01*
X228561528Y-120816628D01*
X228561528Y-120816626D01*
X228579016Y-120805773D01*
X228579575Y-120805269D01*
X229872723Y-119991610D01*
X229873922Y-119991069D01*
X229886283Y-119983096D01*
X229888434Y-119981739D01*
X229912789Y-119966725D01*
X229913910Y-119965539D01*
X230652632Y-119496362D01*
X241061588Y-119496362D01*
X241069891Y-119519198D01*
X241070021Y-119519414D01*
X243750409Y-126883719D01*
X245803618Y-132524865D01*
X245807374Y-132535183D01*
X245807435Y-132535572D01*
X245815669Y-132558091D01*
X245815945Y-132558394D01*
X245815946Y-132558394D01*
X245815947Y-132558395D01*
X245816361Y-132558413D01*
X245816364Y-132558409D01*
X245833789Y-132552025D01*
X258854671Y-127812811D01*
X258854865Y-127812783D01*
X258854854Y-127812751D01*
X258878086Y-127804332D01*
X258878089Y-127804333D01*
X258878395Y-127804053D01*
X258878408Y-127803746D01*
X258878413Y-127803639D01*
X258878412Y-127803638D01*
X258878413Y-127803637D01*
X258870227Y-127780966D01*
X258869949Y-127780506D01*
X258866615Y-127771347D01*
X258331089Y-126300000D01*
X259634671Y-126300000D01*
X259653966Y-126594386D01*
X259711518Y-126883719D01*
X259806347Y-127163077D01*
X259936827Y-127427664D01*
X260100726Y-127672957D01*
X260186678Y-127770965D01*
X260295242Y-127894758D01*
X260413410Y-127998389D01*
X260517042Y-128089273D01*
X260762335Y-128253172D01*
X261026922Y-128383652D01*
X261120041Y-128415261D01*
X261306278Y-128478481D01*
X261451944Y-128507455D01*
X261595613Y-128536033D01*
X261595615Y-128536033D01*
X261595620Y-128536034D01*
X261890000Y-128555329D01*
X262184380Y-128536034D01*
X262184384Y-128536033D01*
X262184386Y-128536033D01*
X262255222Y-128521942D01*
X262473722Y-128478481D01*
X262753077Y-128383652D01*
X263017665Y-128253172D01*
X263262957Y-128089273D01*
X263334693Y-128026362D01*
X264401588Y-128026362D01*
X264409891Y-128049198D01*
X264410021Y-128049414D01*
X266613336Y-134102971D01*
X269140371Y-141045944D01*
X269147374Y-141065183D01*
X269147435Y-141065572D01*
X269155669Y-141088091D01*
X269155945Y-141088394D01*
X269155946Y-141088394D01*
X269155947Y-141088395D01*
X269156361Y-141088413D01*
X269156364Y-141088409D01*
X269173789Y-141082025D01*
X281580470Y-136566362D01*
X287721588Y-136566362D01*
X287729891Y-136589198D01*
X287730021Y-136589414D01*
X289646243Y-141854189D01*
X292459907Y-149584669D01*
X292467374Y-149605183D01*
X292467435Y-149605572D01*
X292475669Y-149628091D01*
X292475945Y-149628394D01*
X292475946Y-149628394D01*
X292475947Y-149628395D01*
X292476361Y-149628413D01*
X292476364Y-149628409D01*
X292493789Y-149622025D01*
X305514671Y-144882811D01*
X305514865Y-144882783D01*
X305514854Y-144882751D01*
X305538086Y-144874332D01*
X305538089Y-144874333D01*
X305538395Y-144874053D01*
X305538408Y-144873746D01*
X305538413Y-144873639D01*
X305538412Y-144873638D01*
X305538413Y-144873637D01*
X305530227Y-144850966D01*
X305529949Y-144850506D01*
X305436694Y-144594291D01*
X302795024Y-137336361D01*
X300792822Y-131835355D01*
X300792752Y-131835161D01*
X300784333Y-131811911D01*
X300784053Y-131811605D01*
X300784054Y-131811605D01*
X300783884Y-131811597D01*
X300783745Y-131811592D01*
X300783638Y-131811588D01*
X300783636Y-131811588D01*
X300761347Y-131819653D01*
X300760965Y-131819882D01*
X293539671Y-134448219D01*
X287742104Y-136558361D01*
X287721911Y-136565667D01*
X287721607Y-136565940D01*
X287721605Y-136565945D01*
X287721588Y-136566362D01*
X281580470Y-136566362D01*
X282194671Y-136342811D01*
X282194865Y-136342783D01*
X282194854Y-136342751D01*
X282218086Y-136334332D01*
X282218089Y-136334333D01*
X282218395Y-136334053D01*
X282218408Y-136333746D01*
X282218413Y-136333639D01*
X282218412Y-136333638D01*
X282218413Y-136333637D01*
X282210227Y-136310965D01*
X282209949Y-136310506D01*
X282082091Y-135959220D01*
X279380273Y-128536034D01*
X277472822Y-123295355D01*
X277472752Y-123295161D01*
X277464333Y-123271911D01*
X277464053Y-123271605D01*
X277464054Y-123271605D01*
X277463885Y-123271597D01*
X277463745Y-123271592D01*
X277463638Y-123271588D01*
X277463636Y-123271588D01*
X277441347Y-123279653D01*
X277440965Y-123279882D01*
X269559653Y-126148446D01*
X264422104Y-128018361D01*
X264401911Y-128025667D01*
X264401607Y-128025940D01*
X264401605Y-128025945D01*
X264401588Y-128026362D01*
X263334693Y-128026362D01*
X263484758Y-127894758D01*
X263679273Y-127672957D01*
X263843172Y-127427665D01*
X263973652Y-127163077D01*
X264068481Y-126883722D01*
X264126034Y-126594380D01*
X264145329Y-126300000D01*
X264126034Y-126005620D01*
X264068481Y-125716278D01*
X263973652Y-125436923D01*
X263843172Y-125172336D01*
X263679273Y-124927043D01*
X263484758Y-124705242D01*
X263381125Y-124614358D01*
X263262957Y-124510726D01*
X263017664Y-124346827D01*
X262753077Y-124216347D01*
X262473719Y-124121518D01*
X262184386Y-124063966D01*
X261890000Y-124044671D01*
X261595613Y-124063966D01*
X261306280Y-124121518D01*
X261026922Y-124216347D01*
X260762336Y-124346827D01*
X260517043Y-124510726D01*
X260295242Y-124705242D01*
X260100726Y-124927043D01*
X259936827Y-125172336D01*
X259806347Y-125436922D01*
X259711518Y-125716280D01*
X259653966Y-126005613D01*
X259634671Y-126300000D01*
X258331089Y-126300000D01*
X256031696Y-119982470D01*
X254132822Y-114765355D01*
X254132752Y-114765161D01*
X254124333Y-114741911D01*
X254124053Y-114741605D01*
X254124054Y-114741605D01*
X254123885Y-114741597D01*
X254123745Y-114741592D01*
X254123638Y-114741588D01*
X254123636Y-114741588D01*
X254101347Y-114749653D01*
X254100965Y-114749882D01*
X246011828Y-117694088D01*
X241082104Y-119488361D01*
X241061911Y-119495667D01*
X241061607Y-119495940D01*
X241061605Y-119495945D01*
X241061588Y-119496362D01*
X230652632Y-119496362D01*
X231238324Y-119124377D01*
X231238604Y-119124251D01*
X231253164Y-119114953D01*
X231253166Y-119114953D01*
X232646398Y-118225267D01*
X232646500Y-118225222D01*
X232662810Y-118214787D01*
X234114120Y-117286277D01*
X234115039Y-117285689D01*
X235613441Y-116328343D01*
X235613440Y-116328343D01*
X237161679Y-115343389D01*
X237161678Y-115343389D01*
X238761056Y-114332972D01*
X238761184Y-114332891D01*
X240413681Y-113298722D01*
X242121966Y-112242082D01*
X242122143Y-112241974D01*
X243887976Y-111164710D01*
X243888208Y-111164570D01*
X245533753Y-110176362D01*
X257901588Y-110176362D01*
X257909891Y-110199198D01*
X257910021Y-110199414D01*
X260489121Y-117285433D01*
X262643618Y-123204865D01*
X262647374Y-123215183D01*
X262647435Y-123215572D01*
X262655669Y-123238091D01*
X262655945Y-123238394D01*
X262655946Y-123238394D01*
X262655947Y-123238395D01*
X262656361Y-123238413D01*
X262656364Y-123238409D01*
X262673789Y-123232025D01*
X275107945Y-118706362D01*
X281231588Y-118706362D01*
X281239891Y-118729198D01*
X281240021Y-118729414D01*
X283738343Y-125593497D01*
X285846054Y-131384386D01*
X285977374Y-131745183D01*
X285977435Y-131745572D01*
X285985669Y-131768091D01*
X285985945Y-131768394D01*
X285985946Y-131768394D01*
X285985947Y-131768395D01*
X285986361Y-131768413D01*
X285986364Y-131768409D01*
X286003789Y-131762025D01*
X287850165Y-131089999D01*
X301734671Y-131089999D01*
X301753966Y-131384386D01*
X301811518Y-131673719D01*
X301906347Y-131953077D01*
X302036827Y-132217664D01*
X302200726Y-132462957D01*
X302284224Y-132558167D01*
X302395242Y-132684758D01*
X302513410Y-132788389D01*
X302617042Y-132879273D01*
X302862335Y-133043172D01*
X303126922Y-133173652D01*
X303220041Y-133205261D01*
X303406278Y-133268481D01*
X303551944Y-133297455D01*
X303695613Y-133326033D01*
X303695615Y-133326033D01*
X303695620Y-133326034D01*
X303990000Y-133345329D01*
X304284380Y-133326034D01*
X304284384Y-133326033D01*
X304284386Y-133326033D01*
X304355222Y-133311942D01*
X304573722Y-133268481D01*
X304853077Y-133173652D01*
X305117665Y-133043172D01*
X305352348Y-132886362D01*
X306601588Y-132886362D01*
X306609891Y-132909198D01*
X306610021Y-132909414D01*
X308366027Y-137734000D01*
X311343618Y-145914865D01*
X311347374Y-145925183D01*
X311347435Y-145925572D01*
X311355669Y-145948091D01*
X311355945Y-145948394D01*
X311355946Y-145948394D01*
X311355947Y-145948395D01*
X311356361Y-145948413D01*
X311356364Y-145948409D01*
X311373789Y-145942025D01*
X324394671Y-141202811D01*
X324394865Y-141202783D01*
X324394854Y-141202751D01*
X324418086Y-141194332D01*
X324418089Y-141194333D01*
X324418395Y-141194053D01*
X324418408Y-141193746D01*
X324418413Y-141193639D01*
X324418412Y-141193638D01*
X324418413Y-141193637D01*
X324410227Y-141170966D01*
X324409949Y-141170506D01*
X324406615Y-141161347D01*
X321838232Y-134104770D01*
X321420246Y-132956362D01*
X326851588Y-132956362D01*
X326859891Y-132979198D01*
X326860021Y-132979414D01*
X328688461Y-138003012D01*
X331580344Y-145948395D01*
X331597374Y-145995183D01*
X331597435Y-145995572D01*
X331605669Y-146018091D01*
X331605945Y-146018394D01*
X331605946Y-146018394D01*
X331605947Y-146018395D01*
X331606361Y-146018413D01*
X331606364Y-146018409D01*
X331623789Y-146012025D01*
X344644671Y-141272811D01*
X344644865Y-141272783D01*
X344644854Y-141272751D01*
X344668086Y-141264332D01*
X344668089Y-141264333D01*
X344668395Y-141264053D01*
X344668408Y-141263746D01*
X344668413Y-141263639D01*
X344668412Y-141263638D01*
X344668413Y-141263637D01*
X344660227Y-141240965D01*
X344659949Y-141240506D01*
X344646207Y-141202751D01*
X341887706Y-133623831D01*
X339922822Y-128225355D01*
X339922752Y-128225161D01*
X339914333Y-128201911D01*
X339914053Y-128201605D01*
X339914054Y-128201605D01*
X339913884Y-128201597D01*
X339913745Y-128201592D01*
X339913638Y-128201588D01*
X339913636Y-128201588D01*
X339891347Y-128209653D01*
X339890965Y-128209882D01*
X331169106Y-131384380D01*
X326872104Y-132948361D01*
X326851911Y-132955667D01*
X326851607Y-132955940D01*
X326851605Y-132955945D01*
X326851588Y-132956362D01*
X321420246Y-132956362D01*
X319672822Y-128155355D01*
X319672752Y-128155161D01*
X319664333Y-128131911D01*
X319664053Y-128131605D01*
X319664054Y-128131605D01*
X319663885Y-128131597D01*
X319663745Y-128131592D01*
X319663638Y-128131588D01*
X319663636Y-128131588D01*
X319641347Y-128139653D01*
X319640965Y-128139882D01*
X311535588Y-131089999D01*
X306622104Y-132878361D01*
X306601911Y-132885667D01*
X306601607Y-132885940D01*
X306601605Y-132885945D01*
X306601588Y-132886362D01*
X305352348Y-132886362D01*
X305362957Y-132879273D01*
X305584758Y-132684758D01*
X305779273Y-132462957D01*
X305943172Y-132217665D01*
X306073652Y-131953077D01*
X306168481Y-131673722D01*
X306226034Y-131384380D01*
X306245329Y-131090000D01*
X306226034Y-130795620D01*
X306168481Y-130506278D01*
X306073652Y-130226923D01*
X306071320Y-130222195D01*
X305943172Y-129962336D01*
X305779273Y-129717043D01*
X305779272Y-129717042D01*
X305584758Y-129495242D01*
X305481125Y-129404358D01*
X305362957Y-129300726D01*
X305117664Y-129136827D01*
X304853077Y-129006347D01*
X304573719Y-128911518D01*
X304284386Y-128853966D01*
X304032054Y-128837427D01*
X303990000Y-128834671D01*
X303989999Y-128834671D01*
X303695613Y-128853966D01*
X303406280Y-128911518D01*
X303126922Y-129006347D01*
X302862336Y-129136827D01*
X302617043Y-129300726D01*
X302395242Y-129495242D01*
X302200726Y-129717043D01*
X302036827Y-129962336D01*
X301906347Y-130226922D01*
X301811518Y-130506280D01*
X301753966Y-130795613D01*
X301734671Y-131089999D01*
X287850165Y-131089999D01*
X299024671Y-127022811D01*
X299024865Y-127022783D01*
X299024854Y-127022751D01*
X299048086Y-127014332D01*
X299048089Y-127014333D01*
X299048395Y-127014053D01*
X299048408Y-127013746D01*
X299048413Y-127013639D01*
X299048412Y-127013638D01*
X299048413Y-127013637D01*
X299040227Y-126990966D01*
X299039949Y-126990506D01*
X299039247Y-126988578D01*
X296028154Y-118715667D01*
X294685357Y-115026362D01*
X300111588Y-115026362D01*
X300119891Y-115049198D01*
X300120021Y-115049414D01*
X302510090Y-121616074D01*
X304851634Y-128049414D01*
X304857374Y-128065183D01*
X304857435Y-128065572D01*
X304865669Y-128088091D01*
X304865945Y-128088394D01*
X304865946Y-128088394D01*
X304865947Y-128088395D01*
X304866361Y-128088413D01*
X304866364Y-128088409D01*
X304883789Y-128082025D01*
X317904671Y-123342811D01*
X317904865Y-123342783D01*
X317904854Y-123342751D01*
X317928086Y-123334332D01*
X317928089Y-123334333D01*
X317928395Y-123334053D01*
X317928408Y-123333746D01*
X317928413Y-123333639D01*
X317928412Y-123333638D01*
X317928413Y-123333637D01*
X317920227Y-123310965D01*
X317919949Y-123310506D01*
X317914434Y-123295355D01*
X314933926Y-115106475D01*
X314933885Y-115106362D01*
X320351588Y-115106362D01*
X320359891Y-115129198D01*
X320360021Y-115129414D01*
X322721090Y-121616397D01*
X325097095Y-128144418D01*
X325097374Y-128145183D01*
X325097435Y-128145572D01*
X325105669Y-128168091D01*
X325105945Y-128168394D01*
X325105946Y-128168394D01*
X325105947Y-128168395D01*
X325106361Y-128168413D01*
X325106364Y-128168409D01*
X325123789Y-128162025D01*
X338144671Y-123422811D01*
X338144865Y-123422783D01*
X338144854Y-123422751D01*
X338168086Y-123414332D01*
X338168089Y-123414333D01*
X338168395Y-123414053D01*
X338168408Y-123413746D01*
X338168413Y-123413639D01*
X338168412Y-123413638D01*
X338168413Y-123413637D01*
X338160227Y-123390965D01*
X338159949Y-123390506D01*
X338142579Y-123342783D01*
X335589613Y-116328566D01*
X333422822Y-110375355D01*
X333422752Y-110375161D01*
X333414333Y-110351911D01*
X333414053Y-110351605D01*
X333414054Y-110351605D01*
X333413884Y-110351597D01*
X333413745Y-110351592D01*
X333413638Y-110351588D01*
X333413636Y-110351588D01*
X333391347Y-110359653D01*
X333390965Y-110359882D01*
X324904958Y-113448537D01*
X320372104Y-115098361D01*
X320351911Y-115105667D01*
X320351607Y-115105940D01*
X320351605Y-115105945D01*
X320351588Y-115106362D01*
X314933885Y-115106362D01*
X313182822Y-110295355D01*
X313182752Y-110295161D01*
X313174333Y-110271911D01*
X313174053Y-110271605D01*
X313174054Y-110271605D01*
X313173885Y-110271597D01*
X313173745Y-110271592D01*
X313173638Y-110271588D01*
X313173636Y-110271588D01*
X313151347Y-110279653D01*
X313150965Y-110279882D01*
X304438582Y-113450931D01*
X300132104Y-115018361D01*
X300111911Y-115025667D01*
X300111607Y-115025940D01*
X300111605Y-115025945D01*
X300111588Y-115026362D01*
X294685357Y-115026362D01*
X294302822Y-113975355D01*
X294302752Y-113975161D01*
X294294333Y-113951911D01*
X294294053Y-113951605D01*
X294294054Y-113951605D01*
X294293884Y-113951597D01*
X294293745Y-113951592D01*
X294293638Y-113951588D01*
X294293636Y-113951588D01*
X294271347Y-113959653D01*
X294270965Y-113959882D01*
X285342530Y-117209567D01*
X281252104Y-118698361D01*
X281231911Y-118705667D01*
X281231607Y-118705940D01*
X281231605Y-118705945D01*
X281231588Y-118706362D01*
X275107945Y-118706362D01*
X275694671Y-118492811D01*
X275694865Y-118492783D01*
X275694854Y-118492751D01*
X275718086Y-118484332D01*
X275718089Y-118484333D01*
X275718395Y-118484053D01*
X275718408Y-118483746D01*
X275718413Y-118483639D01*
X275718412Y-118483638D01*
X275718413Y-118483637D01*
X275710227Y-118460966D01*
X275709949Y-118460506D01*
X275706615Y-118451347D01*
X273054523Y-111164781D01*
X270972822Y-105445355D01*
X270972752Y-105445161D01*
X270964333Y-105421911D01*
X270964053Y-105421605D01*
X270964054Y-105421605D01*
X270963884Y-105421597D01*
X270963745Y-105421592D01*
X270963638Y-105421588D01*
X270963636Y-105421588D01*
X270941347Y-105429653D01*
X270940965Y-105429882D01*
X263779948Y-108036280D01*
X257922104Y-110168361D01*
X257901911Y-110175667D01*
X257901607Y-110175940D01*
X257901605Y-110175945D01*
X257901588Y-110176362D01*
X245533753Y-110176362D01*
X245714167Y-110068017D01*
X245714516Y-110067810D01*
X247602465Y-108953745D01*
X247603082Y-108953384D01*
X249555376Y-107823284D01*
X249555969Y-107822944D01*
X251574930Y-106678306D01*
X251575692Y-106677879D01*
X253663532Y-105520270D01*
X253664252Y-105519875D01*
X255821938Y-104351422D01*
X255822711Y-104351008D01*
X258046695Y-103175874D01*
X258047643Y-103175380D01*
X260332725Y-101998503D01*
X260333896Y-101997908D01*
X260334746Y-101997482D01*
X262630706Y-100846362D01*
X274731588Y-100846362D01*
X274739891Y-100869198D01*
X274740021Y-100869414D01*
X276854264Y-106678249D01*
X279318726Y-113449303D01*
X279477374Y-113885183D01*
X279477435Y-113885572D01*
X279485669Y-113908091D01*
X279485945Y-113908394D01*
X279485946Y-113908394D01*
X279485947Y-113908395D01*
X279486361Y-113908413D01*
X279486364Y-113908409D01*
X279503789Y-113902025D01*
X292524671Y-109162811D01*
X292524865Y-109162783D01*
X292524854Y-109162751D01*
X292548086Y-109154332D01*
X292548089Y-109154333D01*
X292548395Y-109154053D01*
X292548408Y-109153746D01*
X292548413Y-109153639D01*
X292548412Y-109153638D01*
X292548413Y-109153637D01*
X292540227Y-109130965D01*
X292539949Y-109130506D01*
X292475530Y-108953517D01*
X289731880Y-101415399D01*
X288188997Y-97176362D01*
X293601588Y-97176362D01*
X293609891Y-97199198D01*
X293610021Y-97199414D01*
X295785191Y-103175643D01*
X298343618Y-110204865D01*
X298347374Y-110215183D01*
X298347435Y-110215572D01*
X298355669Y-110238091D01*
X298355945Y-110238394D01*
X298355946Y-110238394D01*
X298355947Y-110238395D01*
X298356361Y-110238413D01*
X298356364Y-110238409D01*
X298373789Y-110232025D01*
X311394671Y-105492811D01*
X311394865Y-105492783D01*
X311394854Y-105492751D01*
X311418086Y-105484332D01*
X311418089Y-105484333D01*
X311418395Y-105484053D01*
X311418408Y-105483746D01*
X311418413Y-105483639D01*
X311418412Y-105483638D01*
X311418413Y-105483637D01*
X311410227Y-105460966D01*
X311409949Y-105460506D01*
X311406615Y-105451347D01*
X308642219Y-97856230D01*
X308423885Y-97256362D01*
X313851588Y-97256362D01*
X313859891Y-97279198D01*
X313860021Y-97279414D01*
X315577258Y-101997484D01*
X318597095Y-110294418D01*
X318597374Y-110295183D01*
X318597435Y-110295572D01*
X318605669Y-110318091D01*
X318605945Y-110318394D01*
X318605946Y-110318394D01*
X318605947Y-110318395D01*
X318606361Y-110318413D01*
X318606364Y-110318409D01*
X318623789Y-110312025D01*
X323272589Y-108620000D01*
X328454671Y-108620000D01*
X328473966Y-108914386D01*
X328531518Y-109203719D01*
X328626347Y-109483077D01*
X328756827Y-109747664D01*
X328920726Y-109992957D01*
X329024358Y-110111125D01*
X329115242Y-110214758D01*
X329223801Y-110309962D01*
X329337042Y-110409273D01*
X329582335Y-110573172D01*
X329846922Y-110703652D01*
X329940041Y-110735261D01*
X330126278Y-110798481D01*
X330271944Y-110827455D01*
X330415613Y-110856033D01*
X330415615Y-110856033D01*
X330415620Y-110856034D01*
X330710000Y-110875329D01*
X331004380Y-110856034D01*
X331004384Y-110856033D01*
X331004386Y-110856033D01*
X331075222Y-110841942D01*
X331293722Y-110798481D01*
X331573077Y-110703652D01*
X331837665Y-110573172D01*
X332082957Y-110409273D01*
X332304758Y-110214758D01*
X332499273Y-109992957D01*
X332663172Y-109747665D01*
X332793652Y-109483077D01*
X332888481Y-109203722D01*
X332946034Y-108914380D01*
X332965329Y-108620000D01*
X332946034Y-108325620D01*
X332888481Y-108036278D01*
X332793652Y-107756923D01*
X332663172Y-107492336D01*
X332499273Y-107247043D01*
X332304758Y-107025242D01*
X332201125Y-106934358D01*
X332082957Y-106830726D01*
X331837664Y-106666827D01*
X331573077Y-106536347D01*
X331293719Y-106441518D01*
X331004386Y-106383966D01*
X330710000Y-106364671D01*
X330415613Y-106383966D01*
X330126280Y-106441518D01*
X329846922Y-106536347D01*
X329582336Y-106666827D01*
X329337043Y-106830726D01*
X329115242Y-107025242D01*
X328920726Y-107247043D01*
X328756827Y-107492336D01*
X328626347Y-107756922D01*
X328531518Y-108036280D01*
X328473966Y-108325613D01*
X328454671Y-108620000D01*
X323272589Y-108620000D01*
X331644671Y-105572811D01*
X331644865Y-105572783D01*
X331644854Y-105572751D01*
X331668086Y-105564332D01*
X331668089Y-105564333D01*
X331668395Y-105564053D01*
X331668408Y-105563746D01*
X331668413Y-105563639D01*
X331668412Y-105563638D01*
X331668413Y-105563637D01*
X331660227Y-105540965D01*
X331659949Y-105540506D01*
X331652509Y-105520066D01*
X328863052Y-97856095D01*
X326922822Y-92525355D01*
X326922752Y-92525161D01*
X326914333Y-92501911D01*
X326914053Y-92501605D01*
X326914054Y-92501605D01*
X326913884Y-92501597D01*
X326913745Y-92501592D01*
X326913638Y-92501588D01*
X326913636Y-92501588D01*
X326891347Y-92509653D01*
X326890965Y-92509882D01*
X317962530Y-95759567D01*
X313872104Y-97248361D01*
X313851911Y-97255667D01*
X313851607Y-97255940D01*
X313851605Y-97255945D01*
X313851588Y-97256362D01*
X308423885Y-97256362D01*
X306672822Y-92445355D01*
X306672752Y-92445161D01*
X306664333Y-92421911D01*
X306664053Y-92421605D01*
X306664054Y-92421605D01*
X306663884Y-92421597D01*
X306663745Y-92421592D01*
X306663638Y-92421588D01*
X306663636Y-92421588D01*
X306641347Y-92429653D01*
X306640965Y-92429882D01*
X299135936Y-95161490D01*
X293622104Y-97168361D01*
X293601911Y-97175667D01*
X293601607Y-97175940D01*
X293601605Y-97175945D01*
X293601588Y-97176362D01*
X288188997Y-97176362D01*
X287802822Y-96115355D01*
X287802752Y-96115161D01*
X287794333Y-96091911D01*
X287794053Y-96091605D01*
X287794054Y-96091605D01*
X287793885Y-96091597D01*
X287793745Y-96091592D01*
X287793638Y-96091588D01*
X287793636Y-96091588D01*
X287771347Y-96099653D01*
X287770965Y-96099882D01*
X278842530Y-99349567D01*
X274752104Y-100838361D01*
X274731911Y-100845667D01*
X274731607Y-100845940D01*
X274731605Y-100845945D01*
X274731588Y-100846362D01*
X262630706Y-100846362D01*
X262675422Y-100823943D01*
X262676571Y-100823374D01*
X265069791Y-99657031D01*
X265070897Y-99656499D01*
X267510969Y-98502534D01*
X267512060Y-98502027D01*
X269993944Y-97365288D01*
X269995134Y-97364752D01*
X272513982Y-96250000D01*
X272515285Y-96249434D01*
X275066185Y-95161452D01*
X275067633Y-95160846D01*
X277645594Y-94104449D01*
X277647260Y-94103780D01*
X280247678Y-93083623D01*
X280249241Y-93083024D01*
X282867183Y-92103902D01*
X282869001Y-92103240D01*
X285499330Y-91170017D01*
X285501247Y-91169356D01*
X288139391Y-90286683D01*
X288141467Y-90286011D01*
X290782259Y-89458753D01*
X290784622Y-89458039D01*
X293423328Y-88690911D01*
X293425843Y-88690210D01*
X296057607Y-87987965D01*
X296060309Y-87987278D01*
X298680080Y-87354722D01*
X298683154Y-87354021D01*
X301286136Y-86795880D01*
X301289392Y-86795229D01*
X303870739Y-86316254D01*
X303874368Y-86315636D01*
X306429102Y-85920591D01*
X306433018Y-85920050D01*
X308956246Y-85613675D01*
X308960523Y-85613232D01*
X311447399Y-85400261D01*
X311452121Y-85399948D01*
X313897717Y-85285115D01*
X313902824Y-85284984D01*
X316302112Y-85273012D01*
X316307763Y-85273112D01*
X318656015Y-85368707D01*
X318662131Y-85369108D01*
X320954342Y-85576963D01*
X320960997Y-85577748D01*
X323192370Y-85902552D01*
X323199518Y-85903808D01*
X325365145Y-86350232D01*
X325372805Y-86352066D01*
X327467847Y-86924771D01*
X327475918Y-86927276D01*
X329495653Y-87630953D01*
X329504059Y-87634231D01*
X331303917Y-88413069D01*
X331443689Y-88473551D01*
X331452238Y-88477645D01*
X331855711Y-88690192D01*
X333307887Y-89455189D01*
X333308142Y-89455323D01*
X333316194Y-89459958D01*
X335087838Y-90570197D01*
X335095220Y-90575201D01*
X336782602Y-91809985D01*
X336789278Y-91815233D01*
X338293241Y-93083005D01*
X338392225Y-93166444D01*
X338398237Y-93171857D01*
X339367131Y-94103215D01*
X339916627Y-94631422D01*
X339921986Y-94636902D01*
X340404153Y-95161490D01*
X341355654Y-96196705D01*
X341360409Y-96202193D01*
X342709193Y-97854121D01*
X342713392Y-97859565D01*
X343977071Y-99595416D01*
X343980767Y-99600783D01*
X345159215Y-101412467D01*
X345162459Y-101417738D01*
X345499590Y-101997395D01*
X346184453Y-103174937D01*
X346255468Y-103297038D01*
X346258311Y-103302205D01*
X347265716Y-105240952D01*
X347268203Y-105246016D01*
X348189830Y-107236010D01*
X348192000Y-107240978D01*
X349027690Y-109274033D01*
X349029578Y-109278918D01*
X349439318Y-110409273D01*
X349712892Y-111163985D01*
X349779155Y-111346784D01*
X349780791Y-111351604D01*
X350444132Y-113446155D01*
X350445540Y-113450931D01*
X351022474Y-115563900D01*
X351023672Y-115568656D01*
X351514059Y-117691826D01*
X351515061Y-117696590D01*
X351918771Y-119821771D01*
X351919586Y-119826573D01*
X352236480Y-121945530D01*
X352237110Y-121950401D01*
X352467063Y-124054892D01*
X352467506Y-124059870D01*
X352610401Y-126141742D01*
X352610646Y-126146865D01*
X352666368Y-128197820D01*
X352666399Y-128203133D01*
X352634842Y-130214969D01*
X352634630Y-130220517D01*
X352515703Y-132184947D01*
X352515212Y-132190783D01*
X352308826Y-134099669D01*
X352308000Y-134105847D01*
X352014105Y-135950815D01*
X352012875Y-135957391D01*
X351631407Y-137730323D01*
X351629677Y-137737355D01*
X351160646Y-139429875D01*
X351158297Y-139437412D01*
X350601679Y-141041416D01*
X350598556Y-141049492D01*
X350254650Y-141854197D01*
X349954424Y-142556692D01*
X349950337Y-142565319D01*
X349218756Y-143967565D01*
X349213487Y-143976696D01*
X348394520Y-145265956D01*
X348387937Y-145275333D01*
X347813195Y-146018412D01*
X347482291Y-146446234D01*
X347474759Y-146455081D01*
X346486449Y-147511546D01*
X346478295Y-147519497D01*
X345412370Y-148467349D01*
X345403870Y-148474259D01*
X344265356Y-149319219D01*
X344256794Y-149325036D01*
X343050719Y-150072744D01*
X343042341Y-150077498D01*
X341773812Y-150733493D01*
X341765813Y-150737274D01*
X340440016Y-151307047D01*
X340432532Y-151309980D01*
X339054634Y-151799030D01*
X339047744Y-151801251D01*
X337622990Y-152215059D01*
X337616730Y-152216701D01*
X336150549Y-152560719D01*
X336144923Y-152561903D01*
X334642448Y-152841680D01*
X334637440Y-152842506D01*
X333104186Y-153063526D01*
X333099767Y-153064083D01*
X331540910Y-153231905D01*
X331537046Y-153232259D01*
X329958193Y-153352410D01*
X329954851Y-153352620D01*
X328361024Y-153430689D01*
X328358169Y-153430795D01*
X326755120Y-153472337D01*
X326752727Y-153472376D01*
X325145481Y-153482987D01*
X325143524Y-153482985D01*
X323537440Y-153468249D01*
X323535905Y-153468225D01*
X321936559Y-153433743D01*
X321935435Y-153433714D01*
X320347789Y-153385078D01*
X320347074Y-153385054D01*
X318777035Y-153327888D01*
X318776735Y-153327877D01*
X317450563Y-153276371D01*
X317228906Y-153267763D01*
X317228905Y-153267763D01*
X317228821Y-153267759D01*
X317228774Y-153267758D01*
X317228680Y-153267729D01*
X317228680Y-153267754D01*
X317228401Y-153267742D01*
X317226698Y-153267677D01*
X317226576Y-153267675D01*
X316417626Y-153237106D01*
X315709316Y-153210340D01*
X315709316Y-153210338D01*
X315707219Y-153210267D01*
X315707062Y-153210265D01*
X314224090Y-153161248D01*
X314223653Y-153161231D01*
X314206647Y-153160774D01*
X314206331Y-153160809D01*
X312789977Y-153126359D01*
X312788995Y-153126226D01*
X312776117Y-153126022D01*
X312776048Y-153126021D01*
X312775987Y-153126020D01*
X312776014Y-153126020D01*
X312775946Y-153126019D01*
X312775597Y-153126014D01*
X312775328Y-153126013D01*
X311396557Y-153110620D01*
X311395245Y-153110360D01*
X311373390Y-153110360D01*
X311373274Y-153110360D01*
X311373202Y-153110360D01*
X311359202Y-153110360D01*
X311358374Y-153110464D01*
X310037910Y-153119720D01*
X310035760Y-153119426D01*
X310020835Y-153119823D01*
X310019228Y-153119856D01*
X310011356Y-153119962D01*
X310009564Y-153120168D01*
X308743763Y-153159404D01*
X308741417Y-153159060D01*
X308722432Y-153160046D01*
X308720732Y-153160123D01*
X308707781Y-153160617D01*
X308705298Y-153161099D01*
X307502576Y-153235522D01*
X307499520Y-153235242D01*
X307484657Y-153236593D01*
X307482005Y-153236805D01*
X307466206Y-153237899D01*
X307462965Y-153238775D01*
X306331112Y-153353252D01*
X306326957Y-153352990D01*
X306312614Y-153355039D01*
X306308615Y-153355544D01*
X306297222Y-153356794D01*
X306293441Y-153357916D01*
X305226247Y-153518897D01*
X305221586Y-153518937D01*
X305211081Y-153521063D01*
X305206378Y-153521921D01*
X305197460Y-153523370D01*
X305193216Y-153524858D01*
X304202060Y-153736894D01*
X304196106Y-153737225D01*
X304186536Y-153739960D01*
X304179366Y-153741780D01*
X304172645Y-153743273D01*
X304167611Y-153745477D01*
X303254305Y-154013010D01*
X303248392Y-154013858D01*
X303240670Y-154016726D01*
X303233547Y-154019129D01*
X303225282Y-154021640D01*
X303219935Y-154024660D01*
X302385290Y-154345917D01*
X302379269Y-154347297D01*
X302371919Y-154350774D01*
X302365248Y-154353693D01*
X302358740Y-154356315D01*
X302353819Y-154359591D01*
X301589312Y-154734399D01*
X301582938Y-154736469D01*
X301577409Y-154739787D01*
X301569068Y-154744366D01*
X301562734Y-154747532D01*
X301557495Y-154751914D01*
X300860615Y-155177876D01*
X300854472Y-155180634D01*
X300851496Y-155182854D01*
X300842361Y-155189053D01*
X300837829Y-155191841D01*
X300832833Y-155196840D01*
X300198919Y-155672573D01*
X300193036Y-155675880D01*
X300189584Y-155678993D01*
X300181544Y-155685650D01*
X300177606Y-155688639D01*
X300173251Y-155693835D01*
X299596998Y-156218785D01*
X299591767Y-156222446D01*
X299588268Y-156226215D01*
X299581722Y-156232757D01*
X299577916Y-156236285D01*
X299574248Y-156241523D01*
X299053094Y-156812816D01*
X299048123Y-156816918D01*
X299043904Y-156822356D01*
X299038106Y-156829291D01*
X299034243Y-156833582D01*
X299031097Y-156839076D01*
X298559246Y-157457217D01*
X298555172Y-157461348D01*
X298551877Y-157466383D01*
X298547170Y-157473081D01*
X298542849Y-157478816D01*
X298540279Y-157484372D01*
X298116135Y-158144602D01*
X298112667Y-158148604D01*
X298107783Y-158157301D01*
X298105005Y-158162002D01*
X298100273Y-158169620D01*
X298098453Y-158174390D01*
X297714624Y-158880692D01*
X297711752Y-158884734D01*
X297708849Y-158890916D01*
X297705878Y-158896827D01*
X297700428Y-158906983D01*
X297698947Y-158912299D01*
X297356610Y-159653276D01*
X297353869Y-159657393D01*
X297349522Y-159668262D01*
X297347277Y-159673520D01*
X297342788Y-159683394D01*
X297341709Y-159688013D01*
X297031538Y-160473441D01*
X297029679Y-160476765D01*
X297025879Y-160487608D01*
X297024822Y-160490508D01*
X297019346Y-160504964D01*
X297018757Y-160508533D01*
X296739746Y-161329892D01*
X296738074Y-161333189D01*
X296734578Y-161344883D01*
X296733415Y-161348560D01*
X296729459Y-161360429D01*
X296728949Y-161363970D01*
X296475621Y-162224172D01*
X296474003Y-162227634D01*
X296470883Y-162239932D01*
X296469584Y-162244659D01*
X296465025Y-162260044D01*
X296464738Y-162263795D01*
X296234474Y-163156775D01*
X296233489Y-163159129D01*
X296230248Y-163173048D01*
X296229643Y-163175529D01*
X296225201Y-163192967D01*
X296225063Y-163195702D01*
X296013068Y-164122931D01*
X296012327Y-164124832D01*
X296009060Y-164140413D01*
X296008796Y-164141643D01*
X296006534Y-164151908D01*
X296006380Y-164153423D01*
X295804595Y-165133419D01*
X295804360Y-165134293D01*
X295803156Y-165140400D01*
X295803093Y-165140718D01*
X295801026Y-165151048D01*
X295800915Y-165152243D01*
X295606432Y-166181584D01*
X295606321Y-166182855D01*
X295418545Y-167242843D01*
X295418479Y-167243637D01*
X295233289Y-168332633D01*
X295233261Y-168332961D01*
X295048298Y-169438739D01*
X295048290Y-169438785D01*
X294856045Y-170579832D01*
X294855944Y-170580420D01*
X294654084Y-171744332D01*
X294653906Y-171745337D01*
X294438240Y-172930815D01*
X294437977Y-172932213D01*
X294204400Y-174137481D01*
X294204044Y-174139249D01*
X293948418Y-175362761D01*
X293947957Y-175364877D01*
X293666110Y-176605225D01*
X293665528Y-176607670D01*
X293353380Y-177863042D01*
X293352662Y-177865794D01*
X293006059Y-179134716D01*
X293005188Y-179137752D01*
X292620009Y-180418613D01*
X292618968Y-180421909D01*
X292191051Y-181713235D01*
X292189822Y-181716763D01*
X291715084Y-183016824D01*
X291713677Y-183020497D01*
X291188798Y-184327632D01*
X291187296Y-184331208D01*
X290612764Y-185641890D01*
X290611190Y-185645337D01*
X289988382Y-186955735D01*
X289986731Y-186959078D01*
X289317069Y-188265257D01*
X289315335Y-188268519D01*
X288600231Y-189566566D01*
X288598405Y-189569766D01*
X287839332Y-190855672D01*
X287837404Y-190858830D01*
X287035755Y-192128730D01*
X287033713Y-192131860D01*
X286190922Y-193381823D01*
X286188751Y-193384939D01*
X285306205Y-194611101D01*
X285303888Y-194614215D01*
X284383132Y-195812507D01*
X284380652Y-195815629D01*
X283423045Y-196982237D01*
X283420381Y-196985375D01*
X282427332Y-198116418D01*
X282424460Y-198119578D01*
X281397469Y-199211066D01*
X281394363Y-199214251D01*
X280334858Y-200262295D01*
X280331491Y-200265503D01*
X279240944Y-201266177D01*
X279237283Y-201269406D01*
X278117058Y-202218878D01*
X278113071Y-202222117D01*
X276964726Y-203116397D01*
X276960379Y-203119633D01*
X275785277Y-203954905D01*
X275780532Y-203958115D01*
X274580189Y-204730446D01*
X274575012Y-204733601D01*
X273350826Y-205439153D01*
X273345183Y-205442213D01*
X272098660Y-206077083D01*
X272092524Y-206080000D01*
X270825051Y-206640367D01*
X270818402Y-206643079D01*
X269531435Y-207125083D01*
X269524266Y-207127521D01*
X268219229Y-207527329D01*
X268211549Y-207529415D01*
X266889804Y-207843205D01*
X266881645Y-207844854D01*
X265544620Y-208068793D01*
X265536038Y-208069925D01*
X264185009Y-208200194D01*
X264176085Y-208200730D01*
X262812446Y-208233482D01*
X262803288Y-208233364D01*
X261428281Y-208164742D01*
X261419016Y-208163930D01*
X260033951Y-207990051D01*
X260024720Y-207988537D01*
X258630836Y-207705480D01*
X258621780Y-207703283D01*
X257220341Y-207307092D01*
X257211747Y-207304321D01*
X255803443Y-206792887D01*
X255795957Y-206789890D01*
X254380851Y-206169127D01*
X254374514Y-206166131D01*
X252952827Y-205444093D01*
X252947502Y-205441222D01*
X251519642Y-204626107D01*
X251515190Y-204623441D01*
X250081359Y-203723370D01*
X250077659Y-203720955D01*
X248638178Y-202744155D01*
X248635122Y-202742013D01*
X247190330Y-201696755D01*
X247187828Y-201694896D01*
X247187358Y-201694538D01*
X246628717Y-201268586D01*
X245737962Y-200589405D01*
X245735940Y-200587831D01*
X244281142Y-199430272D01*
X244279543Y-199428977D01*
X242953759Y-198337664D01*
X242820238Y-198227756D01*
X242819037Y-198226755D01*
X242818632Y-198226413D01*
X241355761Y-196990394D01*
X241355355Y-196990051D01*
X241354473Y-196989299D01*
X239886605Y-195725350D01*
X239886039Y-195724859D01*
X239349093Y-195256828D01*
X238414111Y-194441848D01*
X237208551Y-193384939D01*
X236958630Y-193165834D01*
X236958609Y-193165806D01*
X236938104Y-193147839D01*
X235479573Y-191869807D01*
X235479321Y-191869469D01*
X235459501Y-191852219D01*
X235459501Y-191852218D01*
X234798216Y-191276673D01*
X247888075Y-191276673D01*
X247888076Y-191276681D01*
X247888268Y-191277049D01*
X247906710Y-191292563D01*
X247907036Y-191292743D01*
X258517354Y-200195856D01*
X258517479Y-200196015D01*
X258517504Y-200195986D01*
X258536287Y-200211797D01*
X258536682Y-200211923D01*
X258536922Y-200211797D01*
X258537049Y-200211731D01*
X258537049Y-200211730D01*
X258537050Y-200211730D01*
X258545545Y-200201542D01*
X258545793Y-200201244D01*
X258550465Y-200195676D01*
X261055745Y-197209999D01*
X263964671Y-197209999D01*
X263983966Y-197504386D01*
X264041518Y-197793719D01*
X264136347Y-198073077D01*
X264266827Y-198337664D01*
X264430726Y-198582957D01*
X264534358Y-198701125D01*
X264625242Y-198804758D01*
X264743410Y-198908389D01*
X264847042Y-198999273D01*
X265092335Y-199163172D01*
X265356922Y-199293652D01*
X265450041Y-199325261D01*
X265636278Y-199388481D01*
X265781944Y-199417455D01*
X265925613Y-199446033D01*
X265925615Y-199446033D01*
X265925620Y-199446034D01*
X266220000Y-199465329D01*
X266514380Y-199446034D01*
X266514384Y-199446033D01*
X266514386Y-199446033D01*
X266594818Y-199430034D01*
X266803722Y-199388481D01*
X267083077Y-199293652D01*
X267347665Y-199163172D01*
X267592957Y-198999273D01*
X267814758Y-198804758D01*
X268009273Y-198582957D01*
X268173172Y-198337665D01*
X268303652Y-198073077D01*
X268398481Y-197793722D01*
X268456034Y-197504380D01*
X268475329Y-197210000D01*
X268456034Y-196915620D01*
X268398481Y-196626278D01*
X268303652Y-196346923D01*
X268173172Y-196082336D01*
X268009273Y-195837043D01*
X267814758Y-195615242D01*
X267711125Y-195524358D01*
X267592957Y-195420726D01*
X267347664Y-195256827D01*
X267083077Y-195126347D01*
X266803719Y-195031518D01*
X266514386Y-194973966D01*
X266220000Y-194954671D01*
X265925613Y-194973966D01*
X265636280Y-195031518D01*
X265356922Y-195126347D01*
X265092336Y-195256827D01*
X264847043Y-195420726D01*
X264625242Y-195615242D01*
X264430726Y-195837043D01*
X264266827Y-196082336D01*
X264136347Y-196346922D01*
X264041518Y-196626280D01*
X263983966Y-196915613D01*
X263964671Y-197209999D01*
X261055745Y-197209999D01*
X267465788Y-189570807D01*
X267466037Y-189570514D01*
X267471793Y-189563714D01*
X267471797Y-189563713D01*
X267471922Y-189563318D01*
X267471921Y-189563316D01*
X267471921Y-189563315D01*
X267471780Y-189563044D01*
X267471732Y-189562951D01*
X267453878Y-189547802D01*
X267453103Y-189547373D01*
X267145635Y-189289377D01*
X256836190Y-180638725D01*
X256835995Y-180638561D01*
X256827290Y-180631220D01*
X256824159Y-180628343D01*
X256823318Y-180628076D01*
X256822951Y-180628268D01*
X256807842Y-180646123D01*
X256807493Y-180646752D01*
X247903598Y-191258000D01*
X247903291Y-191258249D01*
X247888202Y-191276286D01*
X247888075Y-191276673D01*
X234798216Y-191276673D01*
X233977256Y-190562156D01*
X233977254Y-190562155D01*
X233966269Y-190552594D01*
X233965622Y-190552164D01*
X232492234Y-189286501D01*
X232492232Y-189286500D01*
X232481910Y-189277633D01*
X232480967Y-189277012D01*
X231017393Y-188044256D01*
X231016344Y-188043100D01*
X231005244Y-188034007D01*
X231003860Y-188032856D01*
X230988196Y-188019640D01*
X230986762Y-188018848D01*
X229534739Y-186827902D01*
X229533531Y-186826389D01*
X229515040Y-186811723D01*
X229513457Y-186810446D01*
X229498727Y-186798364D01*
X229497030Y-186797446D01*
X228031759Y-185635851D01*
X228030247Y-185634372D01*
X228022482Y-185628466D01*
X228020544Y-185626961D01*
X228007103Y-185616312D01*
X228005094Y-185615251D01*
X226537552Y-184499966D01*
X226536022Y-184498514D01*
X226527301Y-184492153D01*
X226525978Y-184491175D01*
X226512998Y-184481441D01*
X226511169Y-184480504D01*
X226301860Y-184329413D01*
X225047957Y-183424273D01*
X225046016Y-183422258D01*
X225030805Y-183411850D01*
X225028627Y-183410325D01*
X225013998Y-183399848D01*
X225011426Y-183398697D01*
X223548202Y-182405998D01*
X223545641Y-182403556D01*
X223532706Y-182395401D01*
X223529257Y-182393146D01*
X223519047Y-182386224D01*
X223515906Y-182384821D01*
X222050048Y-181461783D01*
X222047228Y-181459184D01*
X222032351Y-181450552D01*
X222028864Y-181448451D01*
X222016396Y-181440659D01*
X222012881Y-181439336D01*
X220547244Y-180595662D01*
X220544001Y-180592973D01*
X220530819Y-180586095D01*
X220526660Y-180583822D01*
X220514121Y-180576657D01*
X220510022Y-180575347D01*
X219042816Y-179817882D01*
X219039311Y-179815321D01*
X219027620Y-179809925D01*
X219023561Y-179807961D01*
X219013548Y-179802889D01*
X219009434Y-179801693D01*
X218341103Y-179499900D01*
X217539533Y-179137940D01*
X217535056Y-179134987D01*
X217524553Y-179130957D01*
X217518161Y-179128297D01*
X217508994Y-179124178D01*
X217503854Y-179123053D01*
X216036012Y-178563035D01*
X216030684Y-178559889D01*
X216020330Y-178556732D01*
X216012099Y-178553902D01*
X216004233Y-178550885D01*
X215998328Y-178550002D01*
X214527720Y-178099800D01*
X214522459Y-178097307D01*
X214513916Y-178095310D01*
X214506658Y-178093379D01*
X214499366Y-178091201D01*
X214493630Y-178090707D01*
X213021268Y-177758885D01*
X213015137Y-177756546D01*
X213008702Y-177755639D01*
X212998959Y-177753865D01*
X212993241Y-177752586D01*
X212986770Y-177752577D01*
X211513516Y-177547494D01*
X211507138Y-177545718D01*
X211502055Y-177545454D01*
X211491882Y-177544504D01*
X211487120Y-177543860D01*
X211480558Y-177544408D01*
X210007922Y-177474286D01*
X210001190Y-177472983D01*
X209994859Y-177473233D01*
X209984960Y-177473227D01*
X209979401Y-177473001D01*
X209972734Y-177474247D01*
X208499872Y-177544356D01*
X208493217Y-177543769D01*
X208487994Y-177544475D01*
X208477738Y-177545429D01*
X208471555Y-177545746D01*
X208464959Y-177547660D01*
X206993464Y-177752474D01*
X206987083Y-177752462D01*
X206980615Y-177753891D01*
X206971424Y-177755559D01*
X206965841Y-177756356D01*
X206959961Y-177758523D01*
X205486372Y-178090599D01*
X205480816Y-178091069D01*
X205472802Y-178093433D01*
X205466320Y-178095155D01*
X205458856Y-178096923D01*
X205453898Y-178099184D01*
X203981515Y-178549907D01*
X203975884Y-178550749D01*
X203967304Y-178553996D01*
X203959993Y-178556505D01*
X203950991Y-178559283D01*
X203945989Y-178562115D01*
X202475389Y-179123165D01*
X202470657Y-179124226D01*
X202461168Y-179128429D01*
X202455837Y-179130643D01*
X202446750Y-179134170D01*
X202442608Y-179136786D01*
X200969799Y-179801831D01*
X200966100Y-179802928D01*
X200955732Y-179808113D01*
X200952796Y-179809533D01*
X200943104Y-179814063D01*
X200939989Y-179816216D01*
X199469232Y-180575497D01*
X199465567Y-180576690D01*
X199452619Y-180584002D01*
X199449668Y-180585615D01*
X199439627Y-180590930D01*
X199436835Y-180593070D01*
X197967960Y-181438593D01*
X197964748Y-181439769D01*
X197950458Y-181448615D01*
X197948069Y-181450057D01*
X197935742Y-181457308D01*
X197933336Y-181459385D01*
X196464623Y-182384206D01*
X196461686Y-182385496D01*
X196450087Y-182393306D01*
X196447685Y-182394883D01*
X196441102Y-182399096D01*
X196439084Y-182400764D01*
X194966699Y-183399665D01*
X194964745Y-183400578D01*
X194950597Y-183410575D01*
X194949706Y-183411199D01*
X194938938Y-183418666D01*
X194937418Y-183420083D01*
X193470973Y-184478638D01*
X193469252Y-184479473D01*
X193453464Y-184491271D01*
X193453097Y-184491545D01*
X193440383Y-184500971D01*
X193439412Y-184501949D01*
X191971840Y-185617244D01*
X191970467Y-185618022D01*
X191958768Y-185627171D01*
X191958126Y-185627670D01*
X191946809Y-185636401D01*
X191945756Y-185637481D01*
X190479950Y-186799491D01*
X190478815Y-186800149D01*
X190465703Y-186810784D01*
X190465481Y-186810964D01*
X190461526Y-186814156D01*
X190460892Y-186814730D01*
X188986204Y-188024259D01*
X188985578Y-188024665D01*
X188975389Y-188033130D01*
X188975305Y-188033200D01*
X188962414Y-188043889D01*
X188961804Y-188044572D01*
X187498962Y-189276706D01*
X187498792Y-189276817D01*
X187487706Y-189286186D01*
X187484165Y-189289215D01*
X187483990Y-189289377D01*
X186003074Y-190561502D01*
X186002441Y-190562043D01*
X186002403Y-190562075D01*
X186002062Y-190562371D01*
X185999942Y-190564192D01*
X185999454Y-190564647D01*
X184517662Y-191854310D01*
X184517370Y-191854583D01*
X183038437Y-193150492D01*
X183038400Y-193150526D01*
X181565873Y-194441482D01*
X181565606Y-194441715D01*
X180093994Y-195724451D01*
X180093428Y-195724942D01*
X178625508Y-196988938D01*
X178624626Y-196989690D01*
X177160925Y-198226413D01*
X177159702Y-198227433D01*
X175700435Y-199428625D01*
X175698836Y-199429920D01*
X174244048Y-200587474D01*
X174242026Y-200589048D01*
X172792170Y-201694538D01*
X172789668Y-201696397D01*
X171344856Y-202741678D01*
X171341800Y-202743819D01*
X169902362Y-203720600D01*
X169898662Y-203723016D01*
X168464818Y-204623103D01*
X168460367Y-204625769D01*
X167032477Y-205440914D01*
X167027152Y-205443784D01*
X165605476Y-206165831D01*
X165599139Y-206168827D01*
X164184036Y-206789605D01*
X164176550Y-206792603D01*
X162768229Y-207304062D01*
X162759635Y-207306833D01*
X161358179Y-207703046D01*
X161349124Y-207705242D01*
X159955246Y-207988318D01*
X159946014Y-207989833D01*
X158560933Y-208163731D01*
X158551668Y-208164543D01*
X157176652Y-208233182D01*
X157167494Y-208233300D01*
X155803845Y-208200563D01*
X155794921Y-208200027D01*
X154443898Y-208069774D01*
X154435316Y-208068643D01*
X153098268Y-207844717D01*
X153090109Y-207843067D01*
X151768359Y-207529288D01*
X151760679Y-207527202D01*
X150455619Y-207127400D01*
X150448450Y-207124962D01*
X149161484Y-206642969D01*
X149154835Y-206640257D01*
X147887373Y-206079908D01*
X147881237Y-206076992D01*
X146634687Y-205442119D01*
X146629044Y-205439058D01*
X145404870Y-204733524D01*
X145399693Y-204730370D01*
X144199320Y-203958032D01*
X144194575Y-203954821D01*
X143019495Y-203119576D01*
X143015147Y-203116341D01*
X142534037Y-202741678D01*
X141866722Y-202222008D01*
X141862780Y-202218804D01*
X140742575Y-201269361D01*
X140738914Y-201266133D01*
X139648327Y-200265435D01*
X139644959Y-200262226D01*
X138804025Y-199430397D01*
X138585444Y-199214182D01*
X138582341Y-199211000D01*
X137555337Y-198119508D01*
X137552464Y-198116348D01*
X136756683Y-197209999D01*
X151524671Y-197209999D01*
X151543966Y-197504386D01*
X151601518Y-197793719D01*
X151696347Y-198073077D01*
X151826827Y-198337664D01*
X151990726Y-198582957D01*
X152094358Y-198701125D01*
X152185242Y-198804758D01*
X152303410Y-198908389D01*
X152407042Y-198999273D01*
X152652335Y-199163172D01*
X152916922Y-199293652D01*
X153010041Y-199325261D01*
X153196278Y-199388481D01*
X153341944Y-199417455D01*
X153485613Y-199446033D01*
X153485615Y-199446033D01*
X153485620Y-199446034D01*
X153780000Y-199465329D01*
X154074380Y-199446034D01*
X154074384Y-199446033D01*
X154074386Y-199446033D01*
X154154818Y-199430034D01*
X154363722Y-199388481D01*
X154643077Y-199293652D01*
X154907665Y-199163172D01*
X155152957Y-198999273D01*
X155374758Y-198804758D01*
X155569273Y-198582957D01*
X155733172Y-198337665D01*
X155863652Y-198073077D01*
X155958481Y-197793722D01*
X156016034Y-197504380D01*
X156035329Y-197210000D01*
X156016034Y-196915620D01*
X155958481Y-196626278D01*
X155863652Y-196346923D01*
X155733172Y-196082336D01*
X155569273Y-195837043D01*
X155374758Y-195615242D01*
X155271125Y-195524358D01*
X155152957Y-195420726D01*
X154907664Y-195256827D01*
X154643077Y-195126347D01*
X154363719Y-195031518D01*
X154074386Y-194973966D01*
X153780000Y-194954671D01*
X153485613Y-194973966D01*
X153196280Y-195031518D01*
X152916922Y-195126347D01*
X152652336Y-195256827D01*
X152407043Y-195420726D01*
X152185242Y-195615242D01*
X151990726Y-195837043D01*
X151826827Y-196082336D01*
X151696347Y-196346922D01*
X151601518Y-196626280D01*
X151543966Y-196915613D01*
X151524671Y-197209999D01*
X136756683Y-197209999D01*
X136559433Y-196985342D01*
X136556769Y-196982204D01*
X135599125Y-195815563D01*
X135596645Y-195812441D01*
X135530188Y-195725954D01*
X135069451Y-195126348D01*
X134675860Y-194614126D01*
X134673544Y-194611012D01*
X133791013Y-193384884D01*
X133788842Y-193381768D01*
X132946041Y-192131809D01*
X132943998Y-192128679D01*
X132142306Y-190858729D01*
X132140378Y-190855571D01*
X131930033Y-190499243D01*
X131381289Y-189569661D01*
X131379470Y-189566472D01*
X131377949Y-189563712D01*
X131377732Y-189563319D01*
X152528077Y-189563319D01*
X152528111Y-189563427D01*
X152528203Y-189563713D01*
X152528204Y-189563713D01*
X152543706Y-189582219D01*
X152543944Y-189582411D01*
X158220044Y-196346923D01*
X160820507Y-199446034D01*
X161447373Y-200193103D01*
X161447641Y-200193586D01*
X161462948Y-200211729D01*
X161462950Y-200211730D01*
X161462951Y-200211731D01*
X161463318Y-200211923D01*
X161463705Y-200211802D01*
X161463709Y-200211797D01*
X161463713Y-200211797D01*
X161463714Y-200211794D01*
X161482920Y-200195676D01*
X161483038Y-200195526D01*
X172101165Y-191285860D01*
X172101337Y-191285718D01*
X172111727Y-191277050D01*
X172111731Y-191277049D01*
X172111781Y-191276954D01*
X172111922Y-191276682D01*
X172111921Y-191276680D01*
X172111922Y-191276680D01*
X172111797Y-191276288D01*
X172111797Y-191276287D01*
X172111795Y-191276286D01*
X172095979Y-191257453D01*
X172095856Y-191257354D01*
X171760590Y-190857800D01*
X163188579Y-180642074D01*
X163188403Y-180641863D01*
X163177050Y-180628270D01*
X163177049Y-180628269D01*
X163176859Y-180628170D01*
X163176682Y-180628077D01*
X163176681Y-180628077D01*
X163176287Y-180628202D01*
X163157742Y-180643745D01*
X163157566Y-180643964D01*
X152546604Y-189547618D01*
X152545873Y-189548025D01*
X152528267Y-189562952D01*
X152528077Y-189563317D01*
X152528077Y-189563319D01*
X131377732Y-189563319D01*
X130664361Y-188268437D01*
X130662627Y-188265176D01*
X129992949Y-186958991D01*
X129991298Y-186955648D01*
X129922940Y-186811825D01*
X129368464Y-185645228D01*
X129366900Y-185641802D01*
X129364532Y-185636401D01*
X128792332Y-184331070D01*
X128790835Y-184327502D01*
X128427323Y-183422258D01*
X128265961Y-183020421D01*
X128264555Y-183016754D01*
X127789775Y-181716620D01*
X127788547Y-181713092D01*
X127360635Y-180421842D01*
X127359594Y-180418546D01*
X127283981Y-180167117D01*
X132649938Y-180167117D01*
X132652216Y-180170306D01*
X132655583Y-180175575D01*
X132657064Y-180176969D01*
X132681395Y-180188968D01*
X142350115Y-186959078D01*
X144016188Y-188125675D01*
X144016299Y-188125791D01*
X144036438Y-188139905D01*
X144036439Y-188139905D01*
X144036440Y-188139906D01*
X144036844Y-188139996D01*
X144037103Y-188139831D01*
X144037103Y-188139830D01*
X144037193Y-188139773D01*
X144037193Y-188139772D01*
X144037471Y-188139597D01*
X144037873Y-188139341D01*
X144040855Y-188134553D01*
X144051244Y-188119750D01*
X144051379Y-188119441D01*
X151996138Y-176773150D01*
X268000003Y-176773150D01*
X268000094Y-176773562D01*
X268012926Y-176791816D01*
X268013056Y-176792001D01*
X275958954Y-188139920D01*
X275959197Y-188140464D01*
X275972807Y-188159773D01*
X275972896Y-188159830D01*
X275972897Y-188159831D01*
X275973156Y-188159996D01*
X275973560Y-188159906D01*
X275973561Y-188159902D01*
X275981241Y-188154477D01*
X275981380Y-188154379D01*
X287339442Y-180201378D01*
X287339585Y-180201317D01*
X287339577Y-180201306D01*
X287359771Y-180187193D01*
X287359773Y-180187193D01*
X287359996Y-180186844D01*
X287359929Y-180186544D01*
X287359906Y-180186440D01*
X287359903Y-180186438D01*
X287345858Y-180166364D01*
X287345675Y-180166188D01*
X287096086Y-179809738D01*
X279399549Y-168817943D01*
X279387194Y-168800229D01*
X279387193Y-168800228D01*
X279387193Y-168800227D01*
X279387103Y-168800169D01*
X279386843Y-168800004D01*
X279386841Y-168800004D01*
X279386440Y-168800093D01*
X279366779Y-168813798D01*
X279366452Y-168814138D01*
X268019967Y-176759032D01*
X268019752Y-176759128D01*
X268000227Y-176772806D01*
X268000003Y-176773150D01*
X151996138Y-176773150D01*
X152004477Y-176761241D01*
X152009902Y-176753561D01*
X152009906Y-176753560D01*
X152009996Y-176753156D01*
X152009831Y-176752897D01*
X152009830Y-176752896D01*
X152009773Y-176752807D01*
X151990464Y-176739197D01*
X151989920Y-176738954D01*
X140642001Y-168793056D01*
X140641816Y-168792926D01*
X140623562Y-168780094D01*
X140623327Y-168780042D01*
X140623155Y-168780004D01*
X140623150Y-168780003D01*
X140622806Y-168780227D01*
X140609128Y-168799752D01*
X140609032Y-168799967D01*
X132663901Y-180146791D01*
X132663780Y-180146963D01*
X132650094Y-180166437D01*
X132649938Y-180167117D01*
X127283981Y-180167117D01*
X127176505Y-179809738D01*
X126974374Y-179137611D01*
X126973512Y-179134605D01*
X126973393Y-179134170D01*
X126626886Y-177865666D01*
X126626175Y-177862941D01*
X126599671Y-177756356D01*
X126314008Y-176607561D01*
X126313429Y-176605126D01*
X126031574Y-175364820D01*
X126031112Y-175362703D01*
X125775460Y-174139160D01*
X125775104Y-174137392D01*
X125541481Y-172931971D01*
X125541264Y-172930815D01*
X125325566Y-171745258D01*
X125325408Y-171744372D01*
X125123460Y-170580040D01*
X124931181Y-169438881D01*
X124931188Y-169438733D01*
X124931157Y-169438739D01*
X124744440Y-168322579D01*
X124744439Y-168322578D01*
X124741328Y-168303979D01*
X124741220Y-168303656D01*
X124561710Y-167248140D01*
X124561672Y-167247322D01*
X124559187Y-167233299D01*
X124559188Y-167233298D01*
X124373805Y-166186900D01*
X124373712Y-166185199D01*
X124371414Y-166173284D01*
X124370945Y-166170704D01*
X124367236Y-166149029D01*
X124366470Y-166147151D01*
X124178710Y-165153454D01*
X124178540Y-165151420D01*
X124176611Y-165142193D01*
X124176037Y-165139274D01*
X124172338Y-165119193D01*
X124171417Y-165116987D01*
X123973586Y-164156251D01*
X123973359Y-164153376D01*
X123970950Y-164143136D01*
X123970004Y-164138764D01*
X123967203Y-164124583D01*
X123966023Y-164121653D01*
X123822430Y-163493639D01*
X148121587Y-163493639D01*
X148121605Y-163494053D01*
X148121912Y-163494333D01*
X148134658Y-163498929D01*
X148135007Y-163499055D01*
X148172724Y-163512783D01*
X161160545Y-168239963D01*
X161161054Y-168240271D01*
X161183639Y-168248412D01*
X161183745Y-168248407D01*
X161183746Y-168248408D01*
X161184053Y-168248395D01*
X161184333Y-168248089D01*
X161184332Y-168248086D01*
X161192751Y-168224854D01*
X161192783Y-168224865D01*
X161192811Y-168224671D01*
X163298449Y-162439478D01*
X224477202Y-162439478D01*
X224477256Y-162439887D01*
X224489636Y-162461295D01*
X224489632Y-162461297D01*
X224489727Y-162461405D01*
X226042808Y-165151420D01*
X231664884Y-174889141D01*
X231664954Y-174889345D01*
X231677256Y-174910653D01*
X231677257Y-174910654D01*
X231677586Y-174910906D01*
X231677723Y-174910888D01*
X231678615Y-174910773D01*
X231682810Y-174908084D01*
X231699256Y-174898636D01*
X231699609Y-174898325D01*
X243521102Y-168073183D01*
X243521262Y-168073129D01*
X243521253Y-168073113D01*
X243542541Y-168060851D01*
X243542544Y-168060851D01*
X243542797Y-168060523D01*
X243542796Y-168060522D01*
X243542795Y-168060521D01*
X243542543Y-168056580D01*
X243535080Y-168046861D01*
X243530294Y-168038584D01*
X243530296Y-168038582D01*
X243530200Y-168038472D01*
X241279979Y-164140975D01*
X236347830Y-155598240D01*
X236342742Y-155589345D01*
X236342413Y-155589093D01*
X236342003Y-155589147D01*
X236321903Y-155600599D01*
X236321216Y-155601195D01*
X224498830Y-162426854D01*
X224498661Y-162426912D01*
X224498673Y-162426933D01*
X224477453Y-162439150D01*
X224477203Y-162439476D01*
X224477202Y-162439478D01*
X163298449Y-162439478D01*
X165932025Y-155203789D01*
X165938409Y-155186364D01*
X165938413Y-155186361D01*
X165938395Y-155185947D01*
X165938357Y-155185912D01*
X165938336Y-155185893D01*
X165938186Y-155185755D01*
X165938185Y-155185755D01*
X165938088Y-155185665D01*
X165915793Y-155177477D01*
X165915222Y-155177387D01*
X152899454Y-150440035D01*
X152899271Y-150439924D01*
X152876362Y-150431587D01*
X152876361Y-150431587D01*
X152876154Y-150431595D01*
X152875946Y-150431604D01*
X152871071Y-150436683D01*
X152868395Y-150451787D01*
X152867432Y-150454418D01*
X152867366Y-150454837D01*
X152378120Y-151799030D01*
X148129882Y-163470965D01*
X148129653Y-163471347D01*
X148121587Y-163493639D01*
X123822430Y-163493639D01*
X123752473Y-163187680D01*
X123752100Y-163184471D01*
X123750092Y-163176869D01*
X123748856Y-163171753D01*
X123747540Y-163165752D01*
X123746400Y-163162617D01*
X123565549Y-162461297D01*
X123512307Y-162254830D01*
X123511758Y-162251198D01*
X123510023Y-162245450D01*
X123508333Y-162239283D01*
X123507270Y-162234972D01*
X123505883Y-162231470D01*
X123503734Y-162224172D01*
X123252415Y-161370829D01*
X123251986Y-161365949D01*
X123246426Y-161349935D01*
X123244430Y-161343653D01*
X123240545Y-161330197D01*
X123238312Y-161326119D01*
X123193225Y-161193397D01*
X122957621Y-160499844D01*
X122956658Y-160495867D01*
X122955198Y-160492193D01*
X122952933Y-160486021D01*
X122948386Y-160472539D01*
X122945741Y-160468267D01*
X122639597Y-159693064D01*
X122638475Y-159687169D01*
X122632701Y-159674875D01*
X122629364Y-159667092D01*
X122625775Y-159657862D01*
X122622655Y-159653193D01*
X122281591Y-158914991D01*
X122280092Y-158909113D01*
X122273842Y-158897600D01*
X122270230Y-158890399D01*
X122265723Y-158880634D01*
X122262085Y-158875961D01*
X121882607Y-158177682D01*
X121880587Y-158171903D01*
X121875089Y-158163262D01*
X121870960Y-158156278D01*
X121866226Y-158147639D01*
X121862131Y-158143061D01*
X121440380Y-157486571D01*
X121437613Y-157480276D01*
X121432995Y-157474252D01*
X121426849Y-157465475D01*
X121422646Y-157458884D01*
X121417573Y-157454068D01*
X120949775Y-156841248D01*
X120946345Y-156834974D01*
X120942116Y-156830361D01*
X120934734Y-156821516D01*
X120930864Y-156816414D01*
X120925249Y-156811892D01*
X120406734Y-156243503D01*
X120402716Y-156237528D01*
X120398531Y-156233716D01*
X120390342Y-156225528D01*
X120387271Y-156222156D01*
X120381480Y-156218184D01*
X119808182Y-155695935D01*
X119803568Y-155690178D01*
X119798151Y-155686093D01*
X119789482Y-155678916D01*
X119786155Y-155675897D01*
X119780063Y-155672502D01*
X119147717Y-155197955D01*
X119142727Y-155192846D01*
X119136663Y-155189088D01*
X119128173Y-155183328D01*
X119123516Y-155179878D01*
X119117183Y-155177145D01*
X118421883Y-154752155D01*
X118416420Y-154747587D01*
X118411023Y-154744928D01*
X118401310Y-154739589D01*
X118396431Y-154736616D01*
X118389666Y-154734445D01*
X117627383Y-154360734D01*
X117622075Y-154357076D01*
X117614731Y-154354160D01*
X117606891Y-154350729D01*
X117600389Y-154347611D01*
X117594095Y-154346169D01*
X117145842Y-154173639D01*
X131291587Y-154173639D01*
X131291605Y-154174053D01*
X131291912Y-154174333D01*
X131304658Y-154178929D01*
X131305007Y-154179055D01*
X131784821Y-154353693D01*
X144330545Y-158919963D01*
X144331054Y-158920271D01*
X144353639Y-158928412D01*
X144353745Y-158928407D01*
X144353746Y-158928408D01*
X144354053Y-158928395D01*
X144354333Y-158928089D01*
X144354332Y-158928086D01*
X144362751Y-158904854D01*
X144362783Y-158904865D01*
X144362811Y-158904671D01*
X149102025Y-145883789D01*
X149108409Y-145866364D01*
X149108413Y-145866361D01*
X149108395Y-145865947D01*
X149108357Y-145865912D01*
X149108336Y-145865893D01*
X149108186Y-145865755D01*
X149108185Y-145865755D01*
X149108088Y-145865665D01*
X149085793Y-145857477D01*
X149085222Y-145857387D01*
X148525429Y-145653639D01*
X154611587Y-145653639D01*
X154611605Y-145654053D01*
X154611912Y-145654333D01*
X154624658Y-145658929D01*
X154625007Y-145659055D01*
X167650545Y-150399963D01*
X167651054Y-150400271D01*
X167673639Y-150408412D01*
X167673745Y-150408407D01*
X167673746Y-150408408D01*
X167674053Y-150408395D01*
X167674333Y-150408089D01*
X167674332Y-150408086D01*
X167682751Y-150384854D01*
X167682783Y-150384865D01*
X167682811Y-150384671D01*
X167829588Y-149981404D01*
X177842022Y-149981404D01*
X177874263Y-150820763D01*
X177945603Y-151657681D01*
X178055890Y-152490389D01*
X178204884Y-153317048D01*
X178392253Y-154135832D01*
X178617602Y-154945014D01*
X178748917Y-155343600D01*
X178880433Y-155742800D01*
X179066451Y-156229758D01*
X179180173Y-156527461D01*
X179516182Y-157297312D01*
X179887705Y-158050627D01*
X180090575Y-158417757D01*
X180293963Y-158785825D01*
X180734053Y-159501274D01*
X181207023Y-160195424D01*
X181428151Y-160489494D01*
X181711850Y-160866773D01*
X181967731Y-161175959D01*
X181971726Y-161182582D01*
X181975498Y-161186311D01*
X181979479Y-161190661D01*
X181979933Y-161190703D01*
X181979934Y-161190704D01*
X181979934Y-161190703D01*
X182008439Y-161193378D01*
X182024906Y-161190500D01*
X209675094Y-161190500D01*
X209691668Y-161193397D01*
X209720064Y-161190702D01*
X209720066Y-161190704D01*
X209720067Y-161190702D01*
X209720528Y-161190659D01*
X209724533Y-161186270D01*
X209728561Y-161182278D01*
X209732541Y-161175628D01*
X209988155Y-160866767D01*
X210492977Y-160195424D01*
X210965947Y-159501274D01*
X211406037Y-158785825D01*
X211812290Y-158050635D01*
X212183822Y-157297302D01*
X212519825Y-156527466D01*
X212819567Y-155742800D01*
X212999591Y-155196362D01*
X254071588Y-155196362D01*
X254079891Y-155219198D01*
X254080021Y-155219414D01*
X256707909Y-162439476D01*
X258813618Y-168224865D01*
X258817374Y-168235183D01*
X258817435Y-168235572D01*
X258825669Y-168258091D01*
X258825945Y-168258394D01*
X258825946Y-168258394D01*
X258825947Y-168258395D01*
X258826361Y-168258413D01*
X258826364Y-168258409D01*
X258843789Y-168252025D01*
X271864671Y-163512811D01*
X271864865Y-163512783D01*
X271864854Y-163512751D01*
X271888086Y-163504332D01*
X271888089Y-163504333D01*
X271888395Y-163504053D01*
X271888408Y-163503746D01*
X271888413Y-163503639D01*
X271888412Y-163503638D01*
X271888413Y-163503637D01*
X271880227Y-163480966D01*
X271879949Y-163480506D01*
X271876615Y-163471347D01*
X269239353Y-156225528D01*
X267142822Y-150465355D01*
X267142752Y-150465161D01*
X267134333Y-150441911D01*
X267134053Y-150441605D01*
X267134054Y-150441605D01*
X267133885Y-150441597D01*
X267133745Y-150441592D01*
X267133638Y-150441588D01*
X267133636Y-150441588D01*
X267111347Y-150449653D01*
X267110965Y-150449882D01*
X258182530Y-153699567D01*
X254092104Y-155188361D01*
X254071911Y-155195667D01*
X254071607Y-155195940D01*
X254071605Y-155195945D01*
X254071588Y-155196362D01*
X212999591Y-155196362D01*
X213082398Y-154945012D01*
X213307745Y-154135837D01*
X213448411Y-153521139D01*
X213495115Y-153317048D01*
X213503738Y-153269210D01*
X213644110Y-152490386D01*
X213754396Y-151657690D01*
X213825737Y-150820757D01*
X213857977Y-149981408D01*
X213851046Y-149141469D01*
X213804960Y-148302767D01*
X213719818Y-147467125D01*
X213595806Y-146636362D01*
X213433194Y-145812285D01*
X213232335Y-144996686D01*
X212993666Y-144191339D01*
X212717706Y-143397997D01*
X212405056Y-142618384D01*
X212056396Y-141854197D01*
X212056392Y-141854189D01*
X211672488Y-141107107D01*
X211661091Y-141087263D01*
X211254154Y-140378712D01*
X210802318Y-139670623D01*
X210317957Y-138984372D01*
X209802126Y-138321450D01*
X209255947Y-137683302D01*
X208929784Y-137336362D01*
X247571588Y-137336362D01*
X247579891Y-137359198D01*
X247580021Y-137359414D01*
X249987052Y-143972677D01*
X252209025Y-150077498D01*
X252317374Y-150375183D01*
X252317435Y-150375572D01*
X252325669Y-150398091D01*
X252325945Y-150398394D01*
X252325946Y-150398394D01*
X252325947Y-150398395D01*
X252326361Y-150398413D01*
X252326364Y-150398409D01*
X252343789Y-150392025D01*
X264722995Y-145886362D01*
X270901588Y-145886362D01*
X270909891Y-145909198D01*
X270910021Y-145909414D01*
X273549416Y-153161091D01*
X275642684Y-158912299D01*
X275647374Y-158925183D01*
X275647435Y-158925572D01*
X275655669Y-158948091D01*
X275655945Y-158948394D01*
X275655946Y-158948394D01*
X275655947Y-158948395D01*
X275656361Y-158948413D01*
X275656364Y-158948409D01*
X275673789Y-158942025D01*
X288694671Y-154202811D01*
X288694865Y-154202783D01*
X288694854Y-154202751D01*
X288718086Y-154194332D01*
X288718089Y-154194333D01*
X288718395Y-154194053D01*
X288718408Y-154193746D01*
X288718413Y-154193639D01*
X288718412Y-154193638D01*
X288718413Y-154193637D01*
X288710227Y-154170966D01*
X288709949Y-154170506D01*
X288656865Y-154024660D01*
X286118984Y-147051888D01*
X283972822Y-141155355D01*
X283972752Y-141155161D01*
X283964333Y-141131911D01*
X283964053Y-141131605D01*
X283964054Y-141131605D01*
X283963884Y-141131597D01*
X283963745Y-141131592D01*
X283963638Y-141131588D01*
X283963636Y-141131588D01*
X283941347Y-141139653D01*
X283940965Y-141139882D01*
X275557156Y-144191340D01*
X270922104Y-145878361D01*
X270901911Y-145885667D01*
X270901607Y-145885940D01*
X270901605Y-145885945D01*
X270901588Y-145886362D01*
X264722995Y-145886362D01*
X265364671Y-145652811D01*
X265364865Y-145652783D01*
X265364854Y-145652751D01*
X265388086Y-145644332D01*
X265388089Y-145644333D01*
X265388395Y-145644053D01*
X265388408Y-145643746D01*
X265388413Y-145643639D01*
X265388412Y-145643638D01*
X265388413Y-145643637D01*
X265380227Y-145620966D01*
X265379949Y-145620506D01*
X265254316Y-145275333D01*
X262510717Y-137737355D01*
X260642822Y-132605355D01*
X260642752Y-132605161D01*
X260634333Y-132581911D01*
X260634053Y-132581605D01*
X260634054Y-132581605D01*
X260633884Y-132581597D01*
X260633745Y-132581592D01*
X260633638Y-132581588D01*
X260633636Y-132581588D01*
X260611347Y-132589653D01*
X260610965Y-132589882D01*
X252875618Y-135405319D01*
X247592104Y-137328361D01*
X247571911Y-137335667D01*
X247571607Y-137335940D01*
X247571605Y-137335945D01*
X247571588Y-137336362D01*
X208929784Y-137336362D01*
X208680607Y-137071313D01*
X208159573Y-136566475D01*
X208077367Y-136486824D01*
X207904539Y-136334332D01*
X207447513Y-135931082D01*
X206792440Y-135405319D01*
X206113566Y-134910672D01*
X205412367Y-134448217D01*
X204690367Y-134018958D01*
X204690366Y-134018957D01*
X203949129Y-133623826D01*
X203190310Y-133263700D01*
X202805042Y-133102414D01*
X202415480Y-132939330D01*
X201626386Y-132651446D01*
X200824728Y-132400668D01*
X200739075Y-132378199D01*
X200012256Y-132187542D01*
X199563716Y-132091989D01*
X199190716Y-132012528D01*
X199190707Y-132012526D01*
X199190700Y-132012525D01*
X198361926Y-131876012D01*
X198117794Y-131847414D01*
X197527652Y-131778286D01*
X196689739Y-131719566D01*
X196689737Y-131719565D01*
X196689724Y-131719565D01*
X195850000Y-131699977D01*
X195010275Y-131719565D01*
X195010260Y-131719566D01*
X195010261Y-131719566D01*
X194172348Y-131778286D01*
X193819204Y-131819653D01*
X193338073Y-131876012D01*
X192509299Y-132012525D01*
X192509288Y-132012527D01*
X192509284Y-132012528D01*
X192330802Y-132050550D01*
X191687743Y-132187542D01*
X190875279Y-132400666D01*
X190875275Y-132400667D01*
X190875272Y-132400668D01*
X190676154Y-132462957D01*
X190073613Y-132651446D01*
X189284522Y-132939329D01*
X188509689Y-133263700D01*
X187750870Y-133623826D01*
X187009632Y-134018958D01*
X186287629Y-134448219D01*
X185586442Y-134910666D01*
X184907562Y-135405317D01*
X184252482Y-135931086D01*
X183622632Y-136486824D01*
X183019400Y-137071305D01*
X182444061Y-137683292D01*
X181897867Y-138321458D01*
X181382048Y-138984364D01*
X180897680Y-139670625D01*
X180445845Y-140378713D01*
X180027511Y-141107107D01*
X179643607Y-141854189D01*
X179294942Y-142618388D01*
X178982293Y-143397998D01*
X178706333Y-144191340D01*
X178467668Y-144996672D01*
X178266803Y-145812297D01*
X178104193Y-146636363D01*
X177980181Y-147467128D01*
X177895039Y-148302764D01*
X177848954Y-149141459D01*
X177842022Y-149981404D01*
X167829588Y-149981404D01*
X172422025Y-137363789D01*
X172428409Y-137346364D01*
X172428413Y-137346361D01*
X172428395Y-137345947D01*
X172428357Y-137345912D01*
X172428336Y-137345893D01*
X172428186Y-137345755D01*
X172428185Y-137345755D01*
X172428088Y-137345665D01*
X172405793Y-137337477D01*
X172405222Y-137337387D01*
X159389454Y-132600035D01*
X159389150Y-132599851D01*
X159366361Y-132591587D01*
X159361450Y-132591800D01*
X159357919Y-132613085D01*
X159357432Y-132614415D01*
X159357366Y-132614837D01*
X158990124Y-133623826D01*
X154619882Y-145630965D01*
X154619653Y-145631347D01*
X154611587Y-145653639D01*
X148525429Y-145653639D01*
X136069454Y-141120035D01*
X136069271Y-141119924D01*
X136046362Y-141111587D01*
X136046361Y-141111587D01*
X136046154Y-141111595D01*
X136045946Y-141111604D01*
X136041071Y-141116683D01*
X136038395Y-141131787D01*
X136037432Y-141134418D01*
X136037366Y-141134837D01*
X135775541Y-141854197D01*
X131299882Y-154150965D01*
X131299653Y-154151347D01*
X131291587Y-154173639D01*
X117145842Y-154173639D01*
X116760716Y-154025406D01*
X116755220Y-154022223D01*
X116746106Y-154019465D01*
X116738486Y-154016886D01*
X116731176Y-154014145D01*
X116725090Y-154013272D01*
X115813673Y-153746296D01*
X115808311Y-153743849D01*
X115800403Y-153742116D01*
X115792508Y-153740112D01*
X115783760Y-153737582D01*
X115777646Y-153737228D01*
X114791654Y-153526303D01*
X114786614Y-153524283D01*
X114773955Y-153522324D01*
X114767453Y-153521139D01*
X114758771Y-153519317D01*
X114753683Y-153519252D01*
X113688299Y-153358556D01*
X113684636Y-153357396D01*
X113670519Y-153355807D01*
X113667044Y-153355366D01*
X113653291Y-153353423D01*
X113649301Y-153353643D01*
X112513535Y-153238782D01*
X112510431Y-153238020D01*
X112497365Y-153237106D01*
X112494799Y-153236900D01*
X112481511Y-153235692D01*
X112478501Y-153235929D01*
X111276441Y-153161560D01*
X111273882Y-153161014D01*
X111258742Y-153160443D01*
X111256902Y-153160360D01*
X111240785Y-153159512D01*
X111238408Y-153159807D01*
X109972791Y-153120595D01*
X109970944Y-153120338D01*
X109960268Y-153120192D01*
X109958665Y-153120160D01*
X109945718Y-153119814D01*
X109943581Y-153120070D01*
X108625841Y-153110852D01*
X108625007Y-153110714D01*
X108606162Y-153110714D01*
X108606088Y-153110714D01*
X108605972Y-153110714D01*
X108587859Y-153110714D01*
X108586554Y-153110933D01*
X107416009Y-153124019D01*
X107206778Y-153126359D01*
X107204005Y-153126390D01*
X107203738Y-153126391D01*
X107203390Y-153126396D01*
X107203289Y-153126398D01*
X107203287Y-153126398D01*
X107203222Y-153126399D01*
X107203185Y-153126399D01*
X107193307Y-153126555D01*
X107192334Y-153126663D01*
X105777846Y-153161090D01*
X105777554Y-153161046D01*
X105757609Y-153161579D01*
X105757111Y-153161585D01*
X105756462Y-153161607D01*
X105755721Y-153161629D01*
X105755593Y-153161632D01*
X105755164Y-153161649D01*
X104338542Y-153208498D01*
X104271991Y-153210699D01*
X104271537Y-153210706D01*
X102752679Y-153268130D01*
X102752527Y-153268132D01*
X101202785Y-153328350D01*
X101202484Y-153328362D01*
X99632074Y-153385574D01*
X99631359Y-153385598D01*
X98043663Y-153434269D01*
X98042540Y-153434298D01*
X96443147Y-153468818D01*
X96441612Y-153468842D01*
X94835483Y-153483618D01*
X94833527Y-153483620D01*
X93226239Y-153473051D01*
X93223845Y-153473012D01*
X91620749Y-153431514D01*
X91617895Y-153431408D01*
X90024063Y-153353388D01*
X90020721Y-153353179D01*
X88441727Y-153233070D01*
X88437863Y-153232715D01*
X86879056Y-153064952D01*
X86874638Y-153064396D01*
X85341304Y-152843425D01*
X85336296Y-152842598D01*
X83833853Y-152562889D01*
X83828228Y-152561707D01*
X82361964Y-152217735D01*
X82355704Y-152216093D01*
X80930952Y-151802352D01*
X80924061Y-151800131D01*
X79546140Y-151311141D01*
X79538656Y-151308208D01*
X78212842Y-150738499D01*
X78204843Y-150734718D01*
X76936319Y-150078794D01*
X76927941Y-150074041D01*
X75721878Y-149326409D01*
X75713314Y-149320592D01*
X74574802Y-148475698D01*
X74566302Y-148468788D01*
X73500400Y-147521015D01*
X73492244Y-147513063D01*
X72503972Y-146456685D01*
X72496441Y-146447837D01*
X72110130Y-145948394D01*
X71590822Y-145277004D01*
X71584241Y-145267632D01*
X71583176Y-145265956D01*
X70765319Y-143978447D01*
X70760049Y-143969315D01*
X70028509Y-142567116D01*
X70024423Y-142558489D01*
X69471062Y-141263639D01*
X75331587Y-141263639D01*
X75331605Y-141264053D01*
X75331912Y-141264333D01*
X75344658Y-141268929D01*
X75345007Y-141269055D01*
X88370545Y-146009963D01*
X88371054Y-146010271D01*
X88393639Y-146018412D01*
X88393745Y-146018407D01*
X88393746Y-146018408D01*
X88394053Y-146018395D01*
X88394333Y-146018089D01*
X88394332Y-146018086D01*
X88402751Y-145994854D01*
X88402783Y-145994865D01*
X88402811Y-145994671D01*
X90153884Y-141183639D01*
X95591587Y-141183639D01*
X95591605Y-141184053D01*
X95591912Y-141184333D01*
X95604658Y-141188929D01*
X95605007Y-141189055D01*
X96265068Y-141429297D01*
X108630545Y-145929963D01*
X108631054Y-145930271D01*
X108653639Y-145938412D01*
X108653745Y-145938407D01*
X108653746Y-145938408D01*
X108654053Y-145938395D01*
X108654333Y-145938089D01*
X108654332Y-145938086D01*
X108662751Y-145914854D01*
X108662783Y-145914865D01*
X108662811Y-145914671D01*
X109048995Y-144853639D01*
X114461587Y-144853639D01*
X114461605Y-144854053D01*
X114461912Y-144854333D01*
X114474658Y-144858929D01*
X114475007Y-144859055D01*
X127500545Y-149599963D01*
X127501054Y-149600271D01*
X127523639Y-149608412D01*
X127523745Y-149608407D01*
X127523746Y-149608408D01*
X127524053Y-149608395D01*
X127524333Y-149608089D01*
X127524332Y-149608086D01*
X127532751Y-149584854D01*
X127532783Y-149584865D01*
X127532811Y-149584671D01*
X132272025Y-136563789D01*
X132278409Y-136546364D01*
X132278413Y-136546361D01*
X132278395Y-136545947D01*
X132278357Y-136545912D01*
X132278336Y-136545893D01*
X132278186Y-136545755D01*
X132278185Y-136545755D01*
X132278088Y-136545665D01*
X132255793Y-136537477D01*
X132255222Y-136537387D01*
X131695429Y-136333639D01*
X137781587Y-136333639D01*
X137781605Y-136334053D01*
X137781912Y-136334333D01*
X137794658Y-136338929D01*
X137795007Y-136339055D01*
X150820545Y-141079963D01*
X150821054Y-141080271D01*
X150843639Y-141088412D01*
X150843745Y-141088407D01*
X150843746Y-141088408D01*
X150844053Y-141088395D01*
X150844333Y-141088089D01*
X150844332Y-141088086D01*
X150852751Y-141064854D01*
X150852783Y-141064865D01*
X150852811Y-141064671D01*
X155592025Y-128043789D01*
X155598409Y-128026364D01*
X155598413Y-128026361D01*
X155598395Y-128025947D01*
X155598357Y-128025912D01*
X155598336Y-128025893D01*
X155598186Y-128025755D01*
X155598185Y-128025755D01*
X155598088Y-128025665D01*
X155575793Y-128017477D01*
X155575222Y-128017387D01*
X150856740Y-126300000D01*
X155854671Y-126300000D01*
X155873966Y-126594386D01*
X155931518Y-126883719D01*
X156026347Y-127163077D01*
X156156827Y-127427664D01*
X156320726Y-127672957D01*
X156406678Y-127770965D01*
X156515242Y-127894758D01*
X156633410Y-127998389D01*
X156737042Y-128089273D01*
X156982335Y-128253172D01*
X157246922Y-128383652D01*
X157340041Y-128415261D01*
X157526278Y-128478481D01*
X157671944Y-128507455D01*
X157815613Y-128536033D01*
X157815615Y-128536033D01*
X157815620Y-128536034D01*
X158110000Y-128555329D01*
X158404380Y-128536034D01*
X158404384Y-128536033D01*
X158404386Y-128536033D01*
X158475222Y-128521942D01*
X158693722Y-128478481D01*
X158973077Y-128383652D01*
X159237665Y-128253172D01*
X159482957Y-128089273D01*
X159704758Y-127894758D01*
X159793437Y-127793639D01*
X161111587Y-127793639D01*
X161111605Y-127794053D01*
X161111912Y-127794333D01*
X161124658Y-127798929D01*
X161125007Y-127799055D01*
X161162724Y-127812783D01*
X174150545Y-132539963D01*
X174151054Y-132540271D01*
X174173639Y-132548412D01*
X174173745Y-132548407D01*
X174173746Y-132548408D01*
X174174053Y-132548395D01*
X174174333Y-132548089D01*
X174174332Y-132548086D01*
X174182751Y-132524854D01*
X174182783Y-132524865D01*
X174182811Y-132524671D01*
X178922025Y-119503789D01*
X178928409Y-119486364D01*
X178928413Y-119486361D01*
X178928395Y-119485947D01*
X178928357Y-119485912D01*
X178928336Y-119485893D01*
X178928186Y-119485755D01*
X178928185Y-119485755D01*
X178928088Y-119485665D01*
X178905793Y-119477477D01*
X178905222Y-119477387D01*
X165889454Y-114740035D01*
X165889271Y-114739924D01*
X165866362Y-114731587D01*
X165866361Y-114731587D01*
X165866154Y-114731595D01*
X165865946Y-114731604D01*
X165861071Y-114736683D01*
X165858395Y-114751787D01*
X165857432Y-114754418D01*
X165857366Y-114754837D01*
X165284657Y-116328343D01*
X161119882Y-127770965D01*
X161119653Y-127771347D01*
X161111587Y-127793639D01*
X159793437Y-127793639D01*
X159899273Y-127672957D01*
X160063172Y-127427665D01*
X160193652Y-127163077D01*
X160288481Y-126883722D01*
X160346034Y-126594380D01*
X160365329Y-126300000D01*
X160346034Y-126005620D01*
X160288481Y-125716278D01*
X160193652Y-125436923D01*
X160063172Y-125172336D01*
X159899273Y-124927043D01*
X159704758Y-124705242D01*
X159601125Y-124614358D01*
X159482957Y-124510726D01*
X159237664Y-124346827D01*
X158973077Y-124216347D01*
X158693719Y-124121518D01*
X158404386Y-124063966D01*
X158110000Y-124044671D01*
X157815613Y-124063966D01*
X157526280Y-124121518D01*
X157246922Y-124216347D01*
X156982336Y-124346827D01*
X156737043Y-124510726D01*
X156515242Y-124705242D01*
X156320726Y-124927043D01*
X156156827Y-125172336D01*
X156026347Y-125436922D01*
X155931518Y-125716280D01*
X155873966Y-126005613D01*
X155854671Y-126300000D01*
X150856740Y-126300000D01*
X142559454Y-123280035D01*
X142559150Y-123279851D01*
X142536361Y-123271587D01*
X142531450Y-123271800D01*
X142527919Y-123293085D01*
X142527432Y-123294415D01*
X142527366Y-123294837D01*
X141893406Y-125036629D01*
X137789882Y-136310965D01*
X137789653Y-136311347D01*
X137781587Y-136333639D01*
X131695429Y-136333639D01*
X119239454Y-131800035D01*
X119239271Y-131799924D01*
X119216362Y-131791587D01*
X119216361Y-131791587D01*
X119216153Y-131791595D01*
X119215946Y-131791604D01*
X119211071Y-131796683D01*
X119208395Y-131811787D01*
X119207432Y-131814418D01*
X119207366Y-131814837D01*
X118712798Y-133173652D01*
X114469882Y-144830965D01*
X114469653Y-144831347D01*
X114461587Y-144853639D01*
X109048995Y-144853639D01*
X113402025Y-132893789D01*
X113408409Y-132876364D01*
X113408413Y-132876361D01*
X113408395Y-132875947D01*
X113408357Y-132875912D01*
X113408336Y-132875893D01*
X113408186Y-132875755D01*
X113408185Y-132875755D01*
X113408088Y-132875665D01*
X113385793Y-132867477D01*
X113385222Y-132867387D01*
X108501891Y-131090000D01*
X113754671Y-131090000D01*
X113773966Y-131384386D01*
X113831518Y-131673719D01*
X113926347Y-131953077D01*
X114056827Y-132217664D01*
X114220726Y-132462957D01*
X114304224Y-132558167D01*
X114415242Y-132684758D01*
X114533410Y-132788389D01*
X114637042Y-132879273D01*
X114882335Y-133043172D01*
X115146922Y-133173652D01*
X115240041Y-133205261D01*
X115426278Y-133268481D01*
X115571944Y-133297455D01*
X115715613Y-133326033D01*
X115715615Y-133326033D01*
X115715620Y-133326034D01*
X116010000Y-133345329D01*
X116304380Y-133326034D01*
X116304384Y-133326033D01*
X116304386Y-133326033D01*
X116375222Y-133311942D01*
X116593722Y-133268481D01*
X116873077Y-133173652D01*
X117137665Y-133043172D01*
X117382957Y-132879273D01*
X117604758Y-132684758D01*
X117799273Y-132462957D01*
X117963172Y-132217665D01*
X118093652Y-131953077D01*
X118188481Y-131673722D01*
X118246034Y-131384380D01*
X118265329Y-131090000D01*
X118246034Y-130795620D01*
X118188481Y-130506278D01*
X118093652Y-130226923D01*
X118091320Y-130222195D01*
X117963172Y-129962336D01*
X117799273Y-129717043D01*
X117604758Y-129495242D01*
X117501125Y-129404358D01*
X117382957Y-129300726D01*
X117137664Y-129136827D01*
X116873077Y-129006347D01*
X116593719Y-128911518D01*
X116304386Y-128853966D01*
X116010000Y-128834671D01*
X115715613Y-128853966D01*
X115426280Y-128911518D01*
X115146922Y-129006347D01*
X114882336Y-129136827D01*
X114637043Y-129300726D01*
X114415242Y-129495242D01*
X114220726Y-129717043D01*
X114056827Y-129962336D01*
X113926347Y-130226922D01*
X113831518Y-130506280D01*
X113773966Y-130795613D01*
X113754671Y-131090000D01*
X108501891Y-131090000D01*
X100369454Y-128130035D01*
X100369271Y-128129924D01*
X100346362Y-128121587D01*
X100346361Y-128121587D01*
X100346154Y-128121595D01*
X100345946Y-128121604D01*
X100341071Y-128126683D01*
X100338395Y-128141787D01*
X100337432Y-128144418D01*
X100337366Y-128144837D01*
X100194982Y-128536034D01*
X95599882Y-141160965D01*
X95599653Y-141161347D01*
X95591587Y-141183639D01*
X90153884Y-141183639D01*
X93142025Y-132973789D01*
X93148409Y-132956364D01*
X93148413Y-132956361D01*
X93148395Y-132955947D01*
X93148357Y-132955912D01*
X93148336Y-132955893D01*
X93148186Y-132955755D01*
X93148185Y-132955755D01*
X93148088Y-132955665D01*
X93125793Y-132947477D01*
X93125222Y-132947387D01*
X80109454Y-128210035D01*
X80109271Y-128209924D01*
X80086362Y-128201587D01*
X80086361Y-128201587D01*
X80086215Y-128201593D01*
X80085946Y-128201604D01*
X80081071Y-128206683D01*
X80078395Y-128221787D01*
X80077432Y-128224418D01*
X80077366Y-128224837D01*
X79745429Y-129136827D01*
X75339882Y-141240965D01*
X75339653Y-141241347D01*
X75331587Y-141263639D01*
X69471062Y-141263639D01*
X69380331Y-141051331D01*
X69377207Y-141043252D01*
X69265590Y-140721589D01*
X68820619Y-139439240D01*
X68818285Y-139431752D01*
X68349278Y-137739182D01*
X68347552Y-137732163D01*
X67966117Y-135959204D01*
X67964890Y-135952643D01*
X67919707Y-135668964D01*
X67671028Y-134107634D01*
X67670207Y-134101496D01*
X67463852Y-132192547D01*
X67463362Y-132186725D01*
X67344463Y-130222177D01*
X67344253Y-130216647D01*
X67336424Y-129717043D01*
X67312726Y-128204743D01*
X67312757Y-128199453D01*
X67312802Y-128197820D01*
X67368507Y-126148444D01*
X67368752Y-126143322D01*
X67511681Y-124061310D01*
X67512119Y-124056395D01*
X67582357Y-123413639D01*
X81821587Y-123413639D01*
X81821605Y-123414053D01*
X81821912Y-123414333D01*
X81834658Y-123418929D01*
X81835007Y-123419055D01*
X94860545Y-128159963D01*
X94861054Y-128160271D01*
X94883639Y-128168412D01*
X94883745Y-128168407D01*
X94883746Y-128168408D01*
X94884053Y-128168395D01*
X94884333Y-128168089D01*
X94884332Y-128168086D01*
X94892751Y-128144854D01*
X94892783Y-128144865D01*
X94892811Y-128144671D01*
X96643884Y-123333639D01*
X102081587Y-123333639D01*
X102081605Y-123334053D01*
X102081912Y-123334333D01*
X102094658Y-123338929D01*
X102095007Y-123339055D01*
X102755068Y-123579297D01*
X115120545Y-128079963D01*
X115121054Y-128080271D01*
X115143639Y-128088412D01*
X115143745Y-128088407D01*
X115143746Y-128088408D01*
X115144053Y-128088395D01*
X115144333Y-128088089D01*
X115144332Y-128088086D01*
X115152751Y-128064854D01*
X115152783Y-128064865D01*
X115152811Y-128064671D01*
X115531716Y-127023639D01*
X120961587Y-127023639D01*
X120961605Y-127024053D01*
X120961912Y-127024333D01*
X120974658Y-127028929D01*
X120975007Y-127029055D01*
X134000545Y-131769963D01*
X134001054Y-131770271D01*
X134023639Y-131778412D01*
X134023745Y-131778407D01*
X134023746Y-131778408D01*
X134024053Y-131778395D01*
X134024333Y-131778089D01*
X134024332Y-131778086D01*
X134032751Y-131754854D01*
X134032783Y-131754865D01*
X134032811Y-131754671D01*
X138772025Y-118733789D01*
X138778409Y-118716364D01*
X138778413Y-118716361D01*
X138778395Y-118715947D01*
X138778357Y-118715912D01*
X138778336Y-118715893D01*
X138778186Y-118715755D01*
X138778185Y-118715755D01*
X138778088Y-118715665D01*
X138755793Y-118707477D01*
X138755222Y-118707387D01*
X138113005Y-118473639D01*
X144281587Y-118473639D01*
X144281605Y-118474053D01*
X144281912Y-118474333D01*
X144294658Y-118478929D01*
X144295007Y-118479055D01*
X144332724Y-118492783D01*
X157320545Y-123219963D01*
X157321054Y-123220271D01*
X157343639Y-123228412D01*
X157343745Y-123228407D01*
X157343746Y-123228408D01*
X157344053Y-123228395D01*
X157344333Y-123228089D01*
X157344332Y-123228086D01*
X157352751Y-123204854D01*
X157352783Y-123204865D01*
X157352811Y-123204672D01*
X162092002Y-110183852D01*
X162098409Y-110166364D01*
X162098413Y-110166361D01*
X162098395Y-110165947D01*
X162098357Y-110165912D01*
X162098336Y-110165893D01*
X162098186Y-110165755D01*
X162098185Y-110165755D01*
X162098088Y-110165665D01*
X162075793Y-110157477D01*
X162075222Y-110157387D01*
X149059454Y-105420035D01*
X149059271Y-105419924D01*
X149036362Y-105411587D01*
X149036361Y-105411587D01*
X149036154Y-105411595D01*
X149035946Y-105411604D01*
X149031071Y-105416683D01*
X149028395Y-105431787D01*
X149027432Y-105434418D01*
X149027366Y-105434837D01*
X148575132Y-106677340D01*
X144289882Y-118450965D01*
X144289653Y-118451347D01*
X144281587Y-118473639D01*
X138113005Y-118473639D01*
X125739454Y-113970035D01*
X125739150Y-113969851D01*
X125716361Y-113961587D01*
X125711450Y-113961800D01*
X125707919Y-113983085D01*
X125707432Y-113984415D01*
X125707366Y-113984837D01*
X125299136Y-115106440D01*
X120969882Y-127000965D01*
X120969653Y-127001347D01*
X120961587Y-127023639D01*
X115531716Y-127023639D01*
X119892025Y-115043789D01*
X119898409Y-115026364D01*
X119898413Y-115026361D01*
X119898395Y-115025947D01*
X119898357Y-115025912D01*
X119898336Y-115025893D01*
X119898186Y-115025755D01*
X119898185Y-115025755D01*
X119898088Y-115025665D01*
X119875793Y-115017477D01*
X119875222Y-115017387D01*
X106859454Y-110280035D01*
X106859271Y-110279924D01*
X106836362Y-110271587D01*
X106836361Y-110271587D01*
X106836215Y-110271593D01*
X106835946Y-110271604D01*
X106831071Y-110276683D01*
X106828395Y-110291787D01*
X106827432Y-110294418D01*
X106827366Y-110294837D01*
X106442427Y-111352450D01*
X102089882Y-123310965D01*
X102089653Y-123311347D01*
X102081587Y-123333639D01*
X96643884Y-123333639D01*
X99632025Y-115123789D01*
X99638409Y-115106364D01*
X99638413Y-115106361D01*
X99638395Y-115105947D01*
X99638357Y-115105912D01*
X99638336Y-115105893D01*
X99638186Y-115105755D01*
X99638185Y-115105755D01*
X99638088Y-115105665D01*
X99615793Y-115097477D01*
X99615222Y-115097387D01*
X86599454Y-110360035D01*
X86599271Y-110359924D01*
X86576362Y-110351587D01*
X86576361Y-110351587D01*
X86576215Y-110351593D01*
X86575946Y-110351604D01*
X86571071Y-110356683D01*
X86568395Y-110371787D01*
X86567432Y-110374418D01*
X86567366Y-110374837D01*
X86212881Y-111348777D01*
X81829882Y-123390965D01*
X81829653Y-123391347D01*
X81821587Y-123413639D01*
X67582357Y-123413639D01*
X67742107Y-121951739D01*
X67742726Y-121946949D01*
X68059661Y-119827808D01*
X68060461Y-119823098D01*
X68464209Y-117697746D01*
X68465207Y-117693005D01*
X68955639Y-115569651D01*
X68956813Y-115564990D01*
X69533793Y-113451844D01*
X69535173Y-113447158D01*
X70198559Y-111352433D01*
X70200190Y-111347630D01*
X70266470Y-111164781D01*
X70949800Y-109279632D01*
X70951685Y-109274759D01*
X71220818Y-108620000D01*
X87034671Y-108620000D01*
X87053966Y-108914386D01*
X87111518Y-109203719D01*
X87206347Y-109483077D01*
X87336827Y-109747664D01*
X87500726Y-109992957D01*
X87604358Y-110111125D01*
X87695242Y-110214758D01*
X87803801Y-110309962D01*
X87917042Y-110409273D01*
X88162335Y-110573172D01*
X88426922Y-110703652D01*
X88520041Y-110735261D01*
X88706278Y-110798481D01*
X88851944Y-110827455D01*
X88995613Y-110856033D01*
X88995615Y-110856033D01*
X88995620Y-110856034D01*
X89290000Y-110875329D01*
X89584380Y-110856034D01*
X89584384Y-110856033D01*
X89584386Y-110856033D01*
X89655222Y-110841942D01*
X89873722Y-110798481D01*
X90153077Y-110703652D01*
X90417665Y-110573172D01*
X90662957Y-110409273D01*
X90884758Y-110214758D01*
X91079273Y-109992957D01*
X91243172Y-109747665D01*
X91373652Y-109483077D01*
X91468481Y-109203722D01*
X91526034Y-108914380D01*
X91545329Y-108620000D01*
X91526034Y-108325620D01*
X91468481Y-108036278D01*
X91373652Y-107756923D01*
X91243172Y-107492336D01*
X91079273Y-107247043D01*
X90884758Y-107025242D01*
X90781125Y-106934358D01*
X90662957Y-106830726D01*
X90417664Y-106666827D01*
X90153077Y-106536347D01*
X89873719Y-106441518D01*
X89584386Y-106383966D01*
X89290000Y-106364671D01*
X88995613Y-106383966D01*
X88706280Y-106441518D01*
X88426922Y-106536347D01*
X88162336Y-106666827D01*
X87917043Y-106830726D01*
X87695242Y-107025242D01*
X87500726Y-107247043D01*
X87336827Y-107492336D01*
X87206347Y-107756922D01*
X87111518Y-108036280D01*
X87053966Y-108325613D01*
X87034671Y-108620000D01*
X71220818Y-108620000D01*
X71787401Y-107241588D01*
X71789542Y-107236688D01*
X72564360Y-105563639D01*
X88331587Y-105563639D01*
X88331605Y-105564053D01*
X88331912Y-105564333D01*
X88344658Y-105568929D01*
X88345007Y-105569055D01*
X101370545Y-110309963D01*
X101371054Y-110310271D01*
X101393639Y-110318412D01*
X101393745Y-110318407D01*
X101393746Y-110318408D01*
X101394053Y-110318395D01*
X101394333Y-110318089D01*
X101394332Y-110318086D01*
X101402751Y-110294854D01*
X101402783Y-110294865D01*
X101402811Y-110294671D01*
X103157523Y-105473639D01*
X108591587Y-105473639D01*
X108591605Y-105474053D01*
X108591912Y-105474333D01*
X108604658Y-105478929D01*
X108605007Y-105479055D01*
X108715906Y-105519419D01*
X121630545Y-110219963D01*
X121631054Y-110220271D01*
X121653639Y-110228412D01*
X121653745Y-110228407D01*
X121653746Y-110228408D01*
X121654053Y-110228395D01*
X121654333Y-110228089D01*
X121654332Y-110228086D01*
X121662751Y-110204854D01*
X121662783Y-110204865D01*
X121662811Y-110204671D01*
X122045355Y-109153639D01*
X127451587Y-109153639D01*
X127451605Y-109154053D01*
X127451912Y-109154333D01*
X127464658Y-109158929D01*
X127465007Y-109159055D01*
X127782901Y-109274759D01*
X140490545Y-113899963D01*
X140491054Y-113900271D01*
X140513639Y-113908412D01*
X140513745Y-113908407D01*
X140513746Y-113908408D01*
X140514053Y-113908395D01*
X140514333Y-113908089D01*
X140514332Y-113908086D01*
X140522751Y-113884854D01*
X140522783Y-113884865D01*
X140522811Y-113884671D01*
X145262025Y-100863789D01*
X145268409Y-100846364D01*
X145268413Y-100846361D01*
X145268395Y-100845947D01*
X145268357Y-100845912D01*
X145268336Y-100845893D01*
X145268186Y-100845755D01*
X145268185Y-100845755D01*
X145268088Y-100845665D01*
X145245793Y-100837477D01*
X145245222Y-100837387D01*
X132229454Y-96100035D01*
X132229271Y-96099924D01*
X132206362Y-96091587D01*
X132206361Y-96091587D01*
X132206215Y-96091593D01*
X132205946Y-96091604D01*
X132201071Y-96096683D01*
X132198395Y-96111787D01*
X132197432Y-96114418D01*
X132197366Y-96114837D01*
X131564319Y-97854121D01*
X127459882Y-109130965D01*
X127459653Y-109131347D01*
X127451587Y-109153639D01*
X122045355Y-109153639D01*
X126402025Y-97183789D01*
X126408409Y-97166364D01*
X126408413Y-97166361D01*
X126408395Y-97165947D01*
X126408357Y-97165912D01*
X126408336Y-97165893D01*
X126408186Y-97165755D01*
X126408185Y-97165755D01*
X126408088Y-97165665D01*
X126385793Y-97157477D01*
X126385222Y-97157387D01*
X113369454Y-92420035D01*
X113369271Y-92419924D01*
X113346362Y-92411587D01*
X113346361Y-92411587D01*
X113346154Y-92411595D01*
X113345946Y-92411604D01*
X113341071Y-92416683D01*
X113338395Y-92431787D01*
X113337432Y-92434418D01*
X113337366Y-92434837D01*
X113069128Y-93171815D01*
X108599882Y-105450965D01*
X108599653Y-105451347D01*
X108591587Y-105473639D01*
X103157523Y-105473639D01*
X106142025Y-97273789D01*
X106148409Y-97256364D01*
X106148413Y-97256361D01*
X106148395Y-97255947D01*
X106148357Y-97255912D01*
X106148336Y-97255893D01*
X106148186Y-97255755D01*
X106148185Y-97255755D01*
X106148088Y-97255665D01*
X106125793Y-97247477D01*
X106125222Y-97247387D01*
X93109454Y-92510035D01*
X93109271Y-92509924D01*
X93086362Y-92501587D01*
X93086361Y-92501587D01*
X93086215Y-92501593D01*
X93085946Y-92501604D01*
X93081071Y-92506683D01*
X93078395Y-92521787D01*
X93077432Y-92524418D01*
X93077366Y-92524837D01*
X92841870Y-93171857D01*
X88339882Y-105540965D01*
X88339653Y-105541347D01*
X88331587Y-105563639D01*
X72564360Y-105563639D01*
X72711215Y-105246537D01*
X72713684Y-105241510D01*
X73721139Y-103302609D01*
X73723955Y-103297492D01*
X74817012Y-101418050D01*
X74820222Y-101412834D01*
X75998721Y-99601016D01*
X76002394Y-99595681D01*
X77266147Y-97859675D01*
X77270295Y-97854298D01*
X78619125Y-96202264D01*
X78623851Y-96196809D01*
X80057566Y-94636912D01*
X80062899Y-94631458D01*
X81581350Y-93171799D01*
X81587329Y-93166416D01*
X83190345Y-91815120D01*
X83197010Y-91809883D01*
X84884406Y-90575075D01*
X84891747Y-90570097D01*
X86663458Y-89459814D01*
X86671473Y-89455199D01*
X88527431Y-88477503D01*
X88535963Y-88473418D01*
X90475627Y-87634100D01*
X90484052Y-87630815D01*
X92503799Y-86927149D01*
X92511840Y-86924652D01*
X94606946Y-86351943D01*
X94614565Y-86350119D01*
X96780262Y-85903692D01*
X96787379Y-85902442D01*
X99018784Y-85577644D01*
X99025421Y-85576861D01*
X101317667Y-85369013D01*
X101323779Y-85368612D01*
X103672057Y-85273025D01*
X103677706Y-85272925D01*
X106077015Y-85284906D01*
G37*
%TD.AperFunction*%
M02*
