<?xml version="1.0" encoding="UTF-8" standalone="no"?>
<!DOCTYPE svg PUBLIC "-//W3C//DTD SVG 1.1//EN" "http://www.w3.org/Graphics/SVG/1.1/DTD/svg11.dtd">
<svg width="1889.7637795275593" height="1133.8582677165355" xmlns="http://www.w3.org/2000/svg" xmlns:xlink="http://www.w3.org/1999/xlink">
    <g fill="none" stroke="black" stroke-width="0.2" transform="translate(79.9153496028198, 0) scale(3.7795275590551185, 3.7795275590551185)">
        <g transform="rotate(20)">
            <g>
                <path d="M 2.25 15.875 L 2.25 12.25 L 5.875 12.25 M 13.125 12.25 L 16.75 12.25 L 16.75 15.875 M 16.75 23.125 L 16.75 26.75 L 13.125 26.75 M 5.875 26.75 L 2.25 26.75 L 2.25 23.125" />
                <rect x="0" y="10" width="19" height="19" />
                <path d="M 2.25 34.875 L 2.25 31.25 L 5.875 31.25 M 13.125 31.25 L 16.75 31.25 L 16.75 34.875 M 16.75 42.125 L 16.75 45.75 L 13.125 45.75 M 5.875 45.75 L 2.25 45.75 L 2.25 42.125" />
                <rect x="0" y="29" width="19" height="19" />
                <path d="M 2.25 53.875 L 2.25 50.25 L 5.875 50.25 M 13.125 50.25 L 16.75 50.25 L 16.75 53.875 M 16.75 61.125 L 16.75 64.75 L 13.125 64.75 M 5.875 64.75 L 2.25 64.75 L 2.25 61.125" />
                <rect x="0" y="48" width="19" height="19" />
                <path d="M 21.25 8.875 L 21.25 5.25 L 24.875 5.25 M 32.125 5.25 L 35.75 5.25 L 35.75 8.875 M 35.75 16.125 L 35.75 19.75 L 32.125 19.75 M 24.875 19.75 L 21.25 19.75 L 21.25 16.125" />
                <rect x="19" y="3" width="19" height="19" />
                <path d="M 21.25 27.875 L 21.25 24.25 L 24.875 24.25 M 32.125 24.25 L 35.75 24.25 L 35.75 27.875 M 35.75 35.125 L 35.75 38.75 L 32.125 38.75 M 24.875 38.75 L 21.25 38.75 L 21.25 35.125" />
                <rect x="19" y="22" width="19" height="19" />
                <path d="M 21.25 46.875 L 21.25 43.25 L 24.875 43.25 M 32.125 43.25 L 35.75 43.25 L 35.75 46.875 M 35.75 54.125 L 35.75 57.75 L 32.125 57.75 M 24.875 57.75 L 21.25 57.75 L 21.25 54.125" />
                <rect x="19" y="41" width="19" height="19" />
                <path d="M 40.25 5.875 L 40.25 2.25 L 43.875 2.25 M 51.125 2.25 L 54.75 2.25 L 54.75 5.875 M 54.75 13.125 L 54.75 16.75 L 51.125 16.75 M 43.875 16.75 L 40.25 16.75 L 40.25 13.125" />
                <rect x="38" y="0" width="19" height="19" />
                <path d="M 40.25 24.875 L 40.25 21.25 L 43.875 21.25 M 51.125 21.25 L 54.75 21.25 L 54.75 24.875 M 54.75 32.125 L 54.75 35.75 L 51.125 35.75 M 43.875 35.75 L 40.25 35.75 L 40.25 32.125" />
                <rect x="38" y="19" width="19" height="19" />
                <path d="M 40.25 43.875 L 40.25 40.25 L 43.875 40.25 M 51.125 40.25 L 54.75 40.25 L 54.75 43.875 M 54.75 51.125 L 54.75 54.75 L 51.125 54.75 M 43.875 54.75 L 40.25 54.75 L 40.25 51.125" />
                <rect x="38" y="38" width="19" height="19" />
                <path d="M 59.25 8.875 L 59.25 5.25 L 62.875 5.25 M 70.125 5.25 L 73.75 5.25 L 73.75 8.875 M 73.75 16.125 L 73.75 19.75 L 70.125 19.75 M 62.875 19.75 L 59.25 19.75 L 59.25 16.125" />
                <rect x="57" y="3" width="19" height="19" />
                <path d="M 59.25 27.875 L 59.25 24.25 L 62.875 24.25 M 70.125 24.25 L 73.75 24.25 L 73.75 27.875 M 73.75 35.125 L 73.75 38.75 L 70.125 38.75 M 62.875 38.75 L 59.25 38.75 L 59.25 35.125" />
                <rect x="57" y="22" width="19" height="19" />
                <path d="M 59.25 46.875 L 59.25 43.25 L 62.875 43.25 M 70.125 43.25 L 73.75 43.25 L 73.75 46.875 M 73.75 54.125 L 73.75 57.75 L 70.125 57.75 M 62.875 57.75 L 59.25 57.75 L 59.25 54.125" />
                <rect x="57" y="41" width="19" height="19" />
                <path d="M 78.25 11.875 L 78.25 8.25 L 81.875 8.25 M 89.125 8.25 L 92.75 8.25 L 92.75 11.875 M 92.75 19.125 L 92.75 22.75 L 89.125 22.75 M 81.875 22.75 L 78.25 22.75 L 78.25 19.125" />
                <rect x="76" y="6" width="19" height="19" />
                <path d="M 78.25 30.875 L 78.25 27.25 L 81.875 27.25 M 89.125 27.25 L 92.75 27.25 L 92.75 30.875 M 92.75 38.125 L 92.75 41.75 L 89.125 41.75 M 81.875 41.75 L 78.25 41.75 L 78.25 38.125" />
                <rect x="76" y="25" width="19" height="19" />
                <path d="M 78.25 49.875 L 78.25 46.25 L 81.875 46.25 M 89.125 46.25 L 92.75 46.25 L 92.75 49.875 M 92.75 57.125 L 92.75 60.75 L 89.125 60.75 M 81.875 60.75 L 78.25 60.75 L 78.25 57.125" />
                <rect x="76" y="44" width="19" height="19" />
            </g>
            <g transform="translate(56.23038116628574, 158.6036952345708)">
                <g transform="rotate(15) translate(0, -85)">
                    <rect x="-9.5" y="-9.5" width="19" height="19" />
                    <path d="M -7.25 -3.625 L -7.25 -7.25 L -3.625 -7.25 M 3.625 -7.25 L 7.25 -7.25 L 7.25 -3.625 M 7.25 3.625 L 7.25 7.25 L 3.625 7.25 M -3.625 7.25 L -7.25 7.25 L -7.25 3.625" />
                </g>
                <g transform="rotate(30) translate(0, -85)">
                    <rect x="-9.5" y="-19" width="19" height="28.5" />
                    <path d="M -7.25 -8.375 L -7.25 -12 L -3.625 -12 M 3.625 -12 L 7.25 -12 L 7.25 -8.375 M 7.25 -1.125 L 7.25 2.5 L 3.625 2.5 M -3.625 2.5 L -7.25 2.5 L -7.25 -1.125" />
                </g>
            </g>
        </g>
        <g transform="translate(230.0415979493226, 0) scale(-1, 1) rotate(20)">
            <g>
                <path d="M 2.25 15.875 L 2.25 12.25 L 5.875 12.25 M 13.125 12.25 L 16.75 12.25 L 16.75 15.875 M 16.75 23.125 L 16.75 26.75 L 13.125 26.75 M 5.875 26.75 L 2.25 26.75 L 2.25 23.125" />
                <rect x="0" y="10" width="19" height="19" />
                <path d="M 2.25 34.875 L 2.25 31.25 L 5.875 31.25 M 13.125 31.25 L 16.75 31.25 L 16.75 34.875 M 16.75 42.125 L 16.75 45.75 L 13.125 45.75 M 5.875 45.75 L 2.25 45.75 L 2.25 42.125" />
                <rect x="0" y="29" width="19" height="19" />
                <path d="M 2.25 53.875 L 2.25 50.25 L 5.875 50.25 M 13.125 50.25 L 16.75 50.25 L 16.75 53.875 M 16.75 61.125 L 16.75 64.75 L 13.125 64.75 M 5.875 64.75 L 2.25 64.75 L 2.25 61.125" />
                <rect x="0" y="48" width="19" height="19" />
                <path d="M 21.25 8.875 L 21.25 5.25 L 24.875 5.25 M 32.125 5.25 L 35.75 5.25 L 35.75 8.875 M 35.75 16.125 L 35.75 19.75 L 32.125 19.75 M 24.875 19.75 L 21.25 19.75 L 21.25 16.125" />
                <rect x="19" y="3" width="19" height="19" />
                <path d="M 21.25 27.875 L 21.25 24.25 L 24.875 24.25 M 32.125 24.25 L 35.75 24.25 L 35.75 27.875 M 35.75 35.125 L 35.75 38.75 L 32.125 38.75 M 24.875 38.75 L 21.25 38.75 L 21.25 35.125" />
                <rect x="19" y="22" width="19" height="19" />
                <path d="M 21.25 46.875 L 21.25 43.25 L 24.875 43.25 M 32.125 43.25 L 35.75 43.25 L 35.75 46.875 M 35.75 54.125 L 35.75 57.75 L 32.125 57.75 M 24.875 57.75 L 21.25 57.75 L 21.25 54.125" />
                <rect x="19" y="41" width="19" height="19" />
                <path d="M 40.25 5.875 L 40.25 2.25 L 43.875 2.25 M 51.125 2.25 L 54.75 2.25 L 54.75 5.875 M 54.75 13.125 L 54.75 16.75 L 51.125 16.75 M 43.875 16.75 L 40.25 16.75 L 40.25 13.125" />
                <rect x="38" y="0" width="19" height="19" />
                <path d="M 40.25 24.875 L 40.25 21.25 L 43.875 21.25 M 51.125 21.25 L 54.75 21.25 L 54.75 24.875 M 54.75 32.125 L 54.75 35.75 L 51.125 35.75 M 43.875 35.75 L 40.25 35.75 L 40.25 32.125" />
                <rect x="38" y="19" width="19" height="19" />
                <path d="M 40.25 43.875 L 40.25 40.25 L 43.875 40.25 M 51.125 40.25 L 54.75 40.25 L 54.75 43.875 M 54.75 51.125 L 54.75 54.75 L 51.125 54.75 M 43.875 54.75 L 40.25 54.75 L 40.25 51.125" />
                <rect x="38" y="38" width="19" height="19" />
                <path d="M 59.25 8.875 L 59.25 5.25 L 62.875 5.25 M 70.125 5.25 L 73.75 5.25 L 73.75 8.875 M 73.75 16.125 L 73.75 19.75 L 70.125 19.75 M 62.875 19.75 L 59.25 19.75 L 59.25 16.125" />
                <rect x="57" y="3" width="19" height="19" />
                <path d="M 59.25 27.875 L 59.25 24.25 L 62.875 24.25 M 70.125 24.25 L 73.75 24.25 L 73.75 27.875 M 73.75 35.125 L 73.75 38.75 L 70.125 38.75 M 62.875 38.75 L 59.25 38.75 L 59.25 35.125" />
                <rect x="57" y="22" width="19" height="19" />
                <path d="M 59.25 46.875 L 59.25 43.25 L 62.875 43.25 M 70.125 43.25 L 73.75 43.25 L 73.75 46.875 M 73.75 54.125 L 73.75 57.75 L 70.125 57.75 M 62.875 57.75 L 59.25 57.75 L 59.25 54.125" />
                <rect x="57" y="41" width="19" height="19" />
                <path d="M 78.25 11.875 L 78.25 8.25 L 81.875 8.25 M 89.125 8.25 L 92.75 8.25 L 92.75 11.875 M 92.75 19.125 L 92.75 22.75 L 89.125 22.75 M 81.875 22.75 L 78.25 22.75 L 78.25 19.125" />
                <rect x="76" y="6" width="19" height="19" />
                <path d="M 78.25 30.875 L 78.25 27.25 L 81.875 27.25 M 89.125 27.25 L 92.75 27.25 L 92.75 30.875 M 92.75 38.125 L 92.75 41.75 L 89.125 41.75 M 81.875 41.75 L 78.25 41.75 L 78.25 38.125" />
                <rect x="76" y="25" width="19" height="19" />
                <path d="M 78.25 49.875 L 78.25 46.25 L 81.875 46.25 M 89.125 46.25 L 92.75 46.25 L 92.75 49.875 M 92.75 57.125 L 92.75 60.75 L 89.125 60.75 M 81.875 60.75 L 78.25 60.75 L 78.25 57.125" />
                <rect x="76" y="44" width="19" height="19" />
            </g>
            <g transform="translate(56.23038116628574, 158.6036952345708)">
                <g transform="rotate(15) translate(0, -85)">
                    <rect x="-9.5" y="-9.5" width="19" height="19" />
                    <path d="M -7.25 -3.625 L -7.25 -7.25 L -3.625 -7.25 M 3.625 -7.25 L 7.25 -7.25 L 7.25 -3.625 M 7.25 3.625 L 7.25 7.25 L 3.625 7.25 M -3.625 7.25 L -7.25 7.25 L -7.25 3.625" />
                </g>
                <g transform="rotate(30) translate(0, -85)">
                    <rect x="-9.5" y="-19" width="19" height="28.5" />
                    <path d="M -7.25 -8.375 L -7.25 -12 L -3.625 -12 M 3.625 -12 L 7.25 -12 L 7.25 -8.375 M 7.25 -1.125 L 7.25 2.5 L 3.625 2.5 M -3.625 2.5 L -7.25 2.5 L -7.25 -1.125" />
                </g>
            </g>
        </g>
    </g>
</svg>